{
	"patcher" : 	{
		"fileversion" : 1,
		"appversion" : 		{
			"major" : 6,
			"minor" : 1,
			"revision" : 5,
			"architecture" : "x86"
		}
,
		"rect" : [ 508.0, 102.0, 640.0, 480.0 ],
		"bglocked" : 0,
		"openinpresentation" : 0,
		"default_fontsize" : 12.0,
		"default_fontface" : 0,
		"default_fontname" : "Andale Mono",
		"gridonopen" : 0,
		"gridsize" : [ 18.0, 6.0 ],
		"gridsnaponopen" : 0,
		"statusbarvisible" : 2,
		"toolbarvisible" : 1,
		"boxanimatetime" : 200,
		"imprint" : 0,
		"enablehscroll" : 1,
		"enablevscroll" : 1,
		"devicewidth" : 0.0,
		"description" : "",
		"digest" : "",
		"tags" : "",
		"boxes" : [ 			{
				"box" : 				{
					"bgcolor" : [ 1.0, 1.0, 1.0, 0.74902 ],
					"bgoncolor" : [ 0.709647, 0.709783, 0.709624, 1.0 ],
					"bgovercolor" : [ 0.858824, 0.858824, 0.858824, 0.78 ],
					"bgoveroncolor" : [ 0.858809, 0.858974, 0.858782, 1.0 ],
					"bordercolor" : [ 0.501961, 0.501961, 0.501961, 0.129412 ],
					"borderoncolor" : [ 0.4, 0.4, 0.4, 0.0 ],
					"fontname" : "Arial Bold",
					"fontsize" : 9.27615,
					"hint" : "",
					"id" : "obj-81",
					"maxclass" : "textbutton",
					"numinlets" : 1,
					"numoutlets" : 3,
					"outlettype" : [ "", "", "int" ],
					"parameter_enable" : 0,
					"patching_rect" : [ 36.0, 366.0, 100.0, 20.0 ],
					"presentation" : 1,
					"presentation_rect" : [ 510.0, 510.0, 111.0, 17.0 ],
					"text" : "Audio Driver Setup",
					"textcolor" : [ 0.360784, 0.360784, 0.360784, 1.0 ],
					"textovercolor" : [ 0.360784, 0.360784, 0.360784, 1.0 ]
				}

			}
, 			{
				"box" : 				{
					"fontname" : "Arial",
					"fontsize" : 10.435669,
					"id" : "obj-89",
					"linecount" : 2,
					"maxclass" : "message",
					"numinlets" : 2,
					"numoutlets" : 1,
					"outlettype" : [ "" ],
					"patching_rect" : [ 36.0, 390.0, 85.0, 28.0 ],
					"text" : ";\rdsp driver setup"
				}

			}
, 			{
				"box" : 				{
					"fontname" : "Arial Bold",
					"fontsize" : 9.27615,
					"frgb" : 0.0,
					"hint" : "",
					"id" : "obj-29",
					"maxclass" : "comment",
					"numinlets" : 1,
					"numoutlets" : 0,
					"patching_rect" : [ 198.0, 315.0, 55.0, 17.0 ],
					"presentation" : 1,
					"presentation_rect" : [ 510.0, 466.0, 55.0, 17.0 ],
					"text" : "Channel 2",
					"textcolor" : [ 0.258824, 0.258824, 0.258824, 1.0 ]
				}

			}
, 			{
				"box" : 				{
					"fontname" : "Arial Bold",
					"fontsize" : 9.27615,
					"frgb" : 0.0,
					"hint" : "",
					"id" : "obj-75",
					"maxclass" : "comment",
					"numinlets" : 1,
					"numoutlets" : 0,
					"patching_rect" : [ 78.0, 315.0, 55.0, 17.0 ],
					"presentation" : 1,
					"presentation_rect" : [ 510.0, 447.0, 55.0, 17.0 ],
					"text" : "Channel 1",
					"textcolor" : [ 0.258824, 0.258824, 0.258824, 1.0 ]
				}

			}
, 			{
				"box" : 				{
					"color" : [ 0.7, 0.7, 0.7, 1.0 ],
					"fontname" : "Arial",
					"fontsize" : 10.435669,
					"id" : "obj-79",
					"maxclass" : "newobj",
					"numinlets" : 2,
					"numoutlets" : 2,
					"outlettype" : [ "", "int" ],
					"patching_rect" : [ 144.0, 336.0, 91.0, 18.0 ],
					"text" : "adstatus output 2"
				}

			}
, 			{
				"box" : 				{
					"arrowbgcolor" : [ 0.941176, 0.941176, 0.941176, 0.74902 ],
					"arrowcolor" : [ 0.694118, 0.694118, 0.694118, 1.0 ],
					"arrowframe" : 0,
					"arrowlink" : 0,
					"bgcolor" : [ 1.0, 1.0, 1.0, 0.74902 ],
					"fontname" : "Arial",
					"fontsize" : 9.27615,
					"framecolor" : [ 0.501961, 0.501961, 0.501961, 0.129412 ],
					"hint" : "",
					"hltcolor" : [ 0.827451, 0.827451, 0.827451, 1.0 ],
					"id" : "obj-80",
					"items" : [ "Off", ",", 1, "Output 1", ",", 2, "Output 2" ],
					"maxclass" : "umenu",
					"numinlets" : 1,
					"numoutlets" : 3,
					"outlettype" : [ "int", "", "" ],
					"parameter_enable" : 0,
					"patching_rect" : [ 144.0, 315.0, 50.939552, 17.0 ],
					"pattrmode" : 1,
					"prefix_mode" : 2,
					"presentation" : 1,
					"presentation_rect" : [ 565.0, 465.0, 58.939552, 17.0 ],
					"prototypename" : "Arial9",
					"textcolor" : [ 0.258824, 0.258824, 0.258824, 1.0 ]
				}

			}
, 			{
				"box" : 				{
					"color" : [ 0.7, 0.7, 0.7, 1.0 ],
					"fontname" : "Arial",
					"fontsize" : 10.435669,
					"id" : "obj-68",
					"maxclass" : "newobj",
					"numinlets" : 2,
					"numoutlets" : 2,
					"outlettype" : [ "", "int" ],
					"patching_rect" : [ 24.0, 336.0, 91.0, 18.0 ],
					"text" : "adstatus output 1"
				}

			}
, 			{
				"box" : 				{
					"arrowbgcolor" : [ 0.941176, 0.941176, 0.941176, 0.74902 ],
					"arrowcolor" : [ 0.694118, 0.694118, 0.694118, 1.0 ],
					"arrowframe" : 0,
					"arrowlink" : 0,
					"bgcolor" : [ 1.0, 1.0, 1.0, 0.74902 ],
					"fontname" : "Arial",
					"fontsize" : 9.27615,
					"framecolor" : [ 0.501961, 0.501961, 0.501961, 0.129412 ],
					"hint" : "",
					"hltcolor" : [ 0.827451, 0.827451, 0.827451, 1.0 ],
					"id" : "obj-69",
					"items" : [ "Off", ",", 1, "Output 1", ",", 2, "Output 2" ],
					"maxclass" : "umenu",
					"numinlets" : 1,
					"numoutlets" : 3,
					"outlettype" : [ "int", "", "" ],
					"parameter_enable" : 0,
					"patching_rect" : [ 24.0, 315.0, 50.939552, 17.0 ],
					"pattrmode" : 1,
					"prefix_mode" : 2,
					"presentation" : 1,
					"presentation_rect" : [ 565.0, 447.0, 58.939552, 17.0 ],
					"prototypename" : "Arial9",
					"textcolor" : [ 0.258824, 0.258824, 0.258824, 1.0 ]
				}

			}
, 			{
				"box" : 				{
					"fontname" : "Arial Bold",
					"fontsize" : 9.27615,
					"frgb" : 0.0,
					"hint" : "",
					"id" : "obj-49",
					"maxclass" : "comment",
					"numinlets" : 1,
					"numoutlets" : 0,
					"patching_rect" : [ 232.0, 190.0, 22.0, 17.0 ],
					"presentation" : 1,
					"presentation_rect" : [ 584.0, 190.0, 22.0, 17.0 ],
					"text" : "Hz",
					"textcolor" : [ 0.258824, 0.258824, 0.258824, 1.0 ]
				}

			}
, 			{
				"box" : 				{
					"fontname" : "Arial Bold",
					"fontsize" : 9.27615,
					"frgb" : 0.0,
					"hint" : "",
					"id" : "obj-46",
					"maxclass" : "comment",
					"numinlets" : 1,
					"numoutlets" : 0,
					"patching_rect" : [ 75.0, 228.0, 91.0, 17.0 ],
					"presentation" : 1,
					"presentation_rect" : [ 375.0, 190.0, 91.0, 17.0 ],
					"text" : "Signal Vector Size",
					"textcolor" : [ 0.258824, 0.258824, 0.258824, 1.0 ]
				}

			}
, 			{
				"box" : 				{
					"fontname" : "Arial Bold",
					"fontsize" : 9.27615,
					"frgb" : 0.0,
					"hint" : "",
					"id" : "obj-42",
					"maxclass" : "comment",
					"numinlets" : 1,
					"numoutlets" : 0,
					"patching_rect" : [ 77.0, 168.0, 75.0, 17.0 ],
					"presentation" : 1,
					"presentation_rect" : [ 375.0, 172.0, 75.0, 17.0 ],
					"text" : "I/O Vector Size",
					"textcolor" : [ 0.258824, 0.258824, 0.258824, 1.0 ]
				}

			}
, 			{
				"box" : 				{
					"color" : [ 0.7, 0.7, 0.7, 1.0 ],
					"fontname" : "Arial",
					"fontsize" : 10.435669,
					"id" : "obj-55",
					"maxclass" : "newobj",
					"numinlets" : 3,
					"numoutlets" : 3,
					"outlettype" : [ "", "", "" ],
					"patching_rect" : [ 303.0, 271.0, 98.0, 18.0 ],
					"text" : "route clear append"
				}

			}
, 			{
				"box" : 				{
					"color" : [ 0.7, 0.7, 0.7, 1.0 ],
					"fontname" : "Arial",
					"fontsize" : 10.435669,
					"id" : "obj-50",
					"maxclass" : "newobj",
					"numinlets" : 3,
					"numoutlets" : 3,
					"outlettype" : [ "", "", "" ],
					"patching_rect" : [ 164.0, 271.0, 98.0, 18.0 ],
					"text" : "route clear append"
				}

			}
, 			{
				"box" : 				{
					"fontname" : "Arial Bold",
					"fontsize" : 9.27615,
					"frgb" : 0.0,
					"hint" : "",
					"id" : "obj-60",
					"linecount" : 2,
					"maxclass" : "comment",
					"numinlets" : 1,
					"numoutlets" : 0,
					"patching_rect" : [ 322.0, 228.0, 51.0, 27.0 ],
					"presentation" : 1,
					"presentation_rect" : [ 501.0, 209.0, 89.0, 17.0 ],
					"text" : "in Audio Interrupt",
					"textcolor" : [ 0.258824, 0.258824, 0.258824, 1.0 ]
				}

			}
, 			{
				"box" : 				{
					"color" : [ 0.7, 0.7, 0.7, 1.0 ],
					"fontname" : "Arial",
					"fontsize" : 10.435669,
					"id" : "obj-61",
					"maxclass" : "newobj",
					"numinlets" : 2,
					"numoutlets" : 2,
					"outlettype" : [ "", "int" ],
					"patching_rect" : [ 303.0, 249.0, 93.0, 18.0 ],
					"text" : "adstatus takeover"
				}

			}
, 			{
				"box" : 				{
					"bgcolor" : [ 0.926038, 0.926038, 0.926038, 1.0 ],
					"bordercolor" : [ 0.686702, 0.686702, 0.686702, 1.0 ],
					"checkedcolor" : [ 0.123289, 0.123289, 0.123289, 0.75 ],
					"id" : "obj-62",
					"maxclass" : "toggle",
					"numinlets" : 1,
					"numoutlets" : 1,
					"outlettype" : [ "int" ],
					"parameter_enable" : 0,
					"patching_rect" : [ 303.0, 228.0, 16.0, 16.0 ],
					"presentation" : 1,
					"presentation_rect" : [ 588.0, 209.0, 15.0, 15.0 ]
				}

			}
, 			{
				"box" : 				{
					"fontname" : "Arial Bold",
					"fontsize" : 9.27615,
					"frgb" : 0.0,
					"hint" : "",
					"id" : "obj-56",
					"maxclass" : "comment",
					"numinlets" : 1,
					"numoutlets" : 0,
					"patching_rect" : [ 183.0, 228.0, 113.0, 17.0 ],
					"presentation" : 1,
					"presentation_rect" : [ 375.0, 209.0, 113.0, 17.0 ],
					"text" : "Scheduler in Overdrive",
					"textcolor" : [ 0.258824, 0.258824, 0.258824, 1.0 ]
				}

			}
, 			{
				"box" : 				{
					"color" : [ 0.7, 0.7, 0.7, 1.0 ],
					"fontname" : "Arial",
					"fontsize" : 10.435669,
					"id" : "obj-57",
					"maxclass" : "newobj",
					"numinlets" : 2,
					"numoutlets" : 2,
					"outlettype" : [ "", "int" ],
					"patching_rect" : [ 164.0, 249.0, 96.0, 18.0 ],
					"text" : "adstatus overdrive"
				}

			}
, 			{
				"box" : 				{
					"bgcolor" : [ 0.926038, 0.926038, 0.926038, 1.0 ],
					"bordercolor" : [ 0.686702, 0.686702, 0.686702, 1.0 ],
					"checkedcolor" : [ 0.123289, 0.123289, 0.123289, 0.75 ],
					"id" : "obj-58",
					"maxclass" : "toggle",
					"numinlets" : 1,
					"numoutlets" : 1,
					"outlettype" : [ "int" ],
					"parameter_enable" : 0,
					"patching_rect" : [ 164.0, 228.0, 16.0, 16.0 ],
					"presentation" : 1,
					"presentation_rect" : [ 486.0, 209.0, 15.0, 15.0 ]
				}

			}
, 			{
				"box" : 				{
					"color" : [ 0.7, 0.7, 0.7, 1.0 ],
					"fontname" : "Arial",
					"fontsize" : 10.435669,
					"id" : "obj-47",
					"maxclass" : "newobj",
					"numinlets" : 2,
					"numoutlets" : 2,
					"outlettype" : [ "", "int" ],
					"patching_rect" : [ 33.0, 249.0, 77.0, 18.0 ],
					"text" : "adstatus sigvs"
				}

			}
, 			{
				"box" : 				{
					"arrowbgcolor" : [ 0.941176, 0.941176, 0.941176, 0.74902 ],
					"arrowcolor" : [ 0.694118, 0.694118, 0.694118, 1.0 ],
					"arrowframe" : 0,
					"arrowlink" : 0,
					"bgcolor" : [ 1.0, 1.0, 1.0, 0.74902 ],
					"fontname" : "Arial",
					"fontsize" : 9.27615,
					"framecolor" : [ 0.501961, 0.501961, 0.501961, 0.129412 ],
					"hint" : "",
					"hltcolor" : [ 0.827451, 0.827451, 0.827451, 1.0 ],
					"id" : "obj-48",
					"items" : [ 1, ",", 2, ",", 4, ",", 8, ",", 16, ",", 32, ",", 64, ",", 128, ",", 256, ",", 512, ",", 1024, ",", 2048, ",", 4096 ],
					"maxclass" : "umenu",
					"numinlets" : 1,
					"numoutlets" : 3,
					"outlettype" : [ "int", "", "" ],
					"parameter_enable" : 0,
					"patching_rect" : [ 33.0, 228.0, 43.939552, 17.0 ],
					"pattrmode" : 1,
					"prefix_mode" : 2,
					"presentation" : 1,
					"presentation_rect" : [ 469.0, 189.0, 46.939552, 17.0 ],
					"prototypename" : "Arial9",
					"textcolor" : [ 0.0, 0.0, 0.0, 1.0 ]
				}

			}
, 			{
				"box" : 				{
					"color" : [ 0.7, 0.7, 0.7, 1.0 ],
					"fontname" : "Arial",
					"fontsize" : 10.435669,
					"id" : "obj-43",
					"maxclass" : "newobj",
					"numinlets" : 2,
					"numoutlets" : 2,
					"outlettype" : [ "", "int" ],
					"patching_rect" : [ 33.0, 189.0, 71.0, 18.0 ],
					"text" : "adstatus iovs"
				}

			}
, 			{
				"box" : 				{
					"arrowbgcolor" : [ 0.941176, 0.941176, 0.941176, 0.74902 ],
					"arrowcolor" : [ 0.694118, 0.694118, 0.694118, 1.0 ],
					"arrowframe" : 0,
					"arrowlink" : 0,
					"bgcolor" : [ 1.0, 1.0, 1.0, 0.74902 ],
					"fontname" : "Arial",
					"fontsize" : 9.27615,
					"framecolor" : [ 0.501961, 0.501961, 0.501961, 0.129412 ],
					"hint" : "",
					"hltcolor" : [ 0.827451, 0.827451, 0.827451, 1.0 ],
					"id" : "obj-44",
					"items" : [ 32, ",", 64, ",", 128, ",", 256, ",", 512, ",", 1024, ",", 2048 ],
					"maxclass" : "umenu",
					"numinlets" : 1,
					"numoutlets" : 3,
					"outlettype" : [ "int", "", "" ],
					"parameter_enable" : 0,
					"patching_rect" : [ 33.0, 168.0, 43.939552, 17.0 ],
					"pattrmode" : 1,
					"prefix_mode" : 2,
					"presentation" : 1,
					"presentation_rect" : [ 469.0, 171.0, 46.939552, 17.0 ],
					"prototypename" : "Arial9",
					"textcolor" : [ 0.0, 0.0, 0.0, 1.0 ]
				}

			}
, 			{
				"box" : 				{
					"fontname" : "Arial Bold",
					"fontsize" : 9.27615,
					"frgb" : 0.0,
					"hint" : "",
					"id" : "obj-39",
					"maxclass" : "comment",
					"numinlets" : 1,
					"numoutlets" : 0,
					"patching_rect" : [ 216.0, 168.0, 75.0, 17.0 ],
					"presentation" : 1,
					"presentation_rect" : [ 529.0, 172.0, 75.0, 17.0 ],
					"text" : "Sampling Rate",
					"textcolor" : [ 0.258824, 0.258824, 0.258824, 1.0 ]
				}

			}
, 			{
				"box" : 				{
					"color" : [ 0.7, 0.7, 0.7, 1.0 ],
					"fontname" : "Arial",
					"fontsize" : 10.435669,
					"id" : "obj-40",
					"maxclass" : "newobj",
					"numinlets" : 2,
					"numoutlets" : 2,
					"outlettype" : [ "", "int" ],
					"patching_rect" : [ 168.0, 189.0, 62.0, 18.0 ],
					"text" : "adstatus sr"
				}

			}
, 			{
				"box" : 				{
					"arrowbgcolor" : [ 0.941176, 0.941176, 0.941176, 0.74902 ],
					"arrowcolor" : [ 0.694118, 0.694118, 0.694118, 1.0 ],
					"arrowframe" : 0,
					"arrowlink" : 0,
					"bgcolor" : [ 1.0, 1.0, 1.0, 0.74902 ],
					"fontname" : "Arial Bold",
					"fontsize" : 9.27615,
					"framecolor" : [ 0.501961, 0.501961, 0.501961, 0.129412 ],
					"hint" : "",
					"hltcolor" : [ 0.827451, 0.827451, 0.827451, 1.0 ],
					"id" : "obj-41",
					"items" : [ 44100, ",", 48000, ",", 88200, ",", 96000 ],
					"maxclass" : "umenu",
					"numinlets" : 1,
					"numoutlets" : 3,
					"outlettype" : [ "int", "", "" ],
					"parameter_enable" : 0,
					"patching_rect" : [ 168.0, 168.0, 43.939552, 17.0 ],
					"pattrmode" : 1,
					"prefix_mode" : 2,
					"presentation" : 1,
					"presentation_rect" : [ 529.0, 189.0, 55.939552, 17.0 ],
					"prototypename" : "Arial9",
					"textcolor" : [ 0.0, 0.0, 0.0, 1.0 ]
				}

			}
, 			{
				"box" : 				{
					"fontname" : "Arial Bold",
					"fontsize" : 9.27615,
					"frgb" : 0.0,
					"hint" : "",
					"id" : "obj-17",
					"maxclass" : "comment",
					"numinlets" : 1,
					"numoutlets" : 0,
					"patching_rect" : [ 90.0, 102.0, 37.0, 17.0 ],
					"presentation" : 1,
					"presentation_rect" : [ 360.0, 51.0, 37.0, 17.0 ],
					"text" : "Driver",
					"textcolor" : [ 0.258824, 0.258824, 0.258824, 1.0 ]
				}

			}
, 			{
				"box" : 				{
					"fontname" : "Arial Bold",
					"fontsize" : 11.595187,
					"frgb" : 0.0,
					"hint" : "",
					"id" : "obj-16",
					"maxclass" : "comment",
					"numinlets" : 1,
					"numoutlets" : 0,
					"patching_rect" : [ 119.0, 47.0, 44.0, 19.0 ],
					"presentation" : 1,
					"presentation_rect" : [ 360.0, 30.0, 44.0, 19.0 ],
					"text" : "Audio"
				}

			}
, 			{
				"box" : 				{
					"color" : [ 0.7, 0.7, 0.7, 1.0 ],
					"fontname" : "Arial",
					"fontsize" : 10.435669,
					"id" : "obj-2",
					"maxclass" : "newobj",
					"numinlets" : 2,
					"numoutlets" : 2,
					"outlettype" : [ "", "int" ],
					"patching_rect" : [ 162.0, 123.0, 90.0, 18.0 ],
					"text" : "adstatus option 1"
				}

			}
, 			{
				"box" : 				{
					"arrowbgcolor" : [ 0.941176, 0.941176, 0.941176, 0.74902 ],
					"arrowcolor" : [ 0.694118, 0.694118, 0.694118, 1.0 ],
					"arrowframe" : 0,
					"arrowlink" : 0,
					"bgcolor" : [ 1.0, 1.0, 1.0, 0.74902 ],
					"fontname" : "Arial",
					"fontsize" : 9.27615,
					"framecolor" : [ 0.501961, 0.501961, 0.501961, 0.129412 ],
					"hint" : "",
					"hltcolor" : [ 0.827451, 0.827451, 0.827451, 1.0 ],
					"id" : "obj-3",
					"items" : "Built-in Output",
					"maxclass" : "umenu",
					"numinlets" : 1,
					"numoutlets" : 3,
					"outlettype" : [ "int", "", "" ],
					"parameter_enable" : 0,
					"patching_rect" : [ 162.0, 102.0, 50.939552, 17.0 ],
					"pattrmode" : 1,
					"prefix_mode" : 2,
					"presentation" : 1,
					"presentation_rect" : [ 454.0, 86.0, 139.939545, 17.0 ],
					"prototypename" : "Arial9",
					"textcolor" : [ 0.258824, 0.258824, 0.258824, 1.0 ]
				}

			}
, 			{
				"box" : 				{
					"color" : [ 0.7, 0.7, 0.7, 1.0 ],
					"fontname" : "Arial",
					"fontsize" : 10.435669,
					"id" : "obj-9",
					"maxclass" : "newobj",
					"numinlets" : 2,
					"numoutlets" : 2,
					"outlettype" : [ "", "int" ],
					"patching_rect" : [ 36.0, 123.0, 79.0, 18.0 ],
					"text" : "adstatus driver"
				}

			}
, 			{
				"box" : 				{
					"arrowbgcolor" : [ 0.941176, 0.941176, 0.941176, 0.74902 ],
					"arrowcolor" : [ 0.694118, 0.694118, 0.694118, 1.0 ],
					"arrowframe" : 0,
					"arrowlink" : 0,
					"bgcolor" : [ 1.0, 1.0, 1.0, 0.74902 ],
					"fontname" : "Arial Bold",
					"fontsize" : 9.27615,
					"framecolor" : [ 0.501961, 0.501961, 0.501961, 0.129412 ],
					"hint" : "",
					"hltcolor" : [ 0.827451, 0.827451, 0.827451, 1.0 ],
					"id" : "obj-10",
					"items" : [ "None", ",", "Core Audio", ",", "NonRealTime", ",", "ad_portaudio", "Core Audio", ",", "ad_rewire", ",", "Live" ],
					"maxclass" : "umenu",
					"numinlets" : 1,
					"numoutlets" : 3,
					"outlettype" : [ "int", "", "" ],
					"parameter_enable" : 0,
					"patching_rect" : [ 36.0, 102.0, 50.939552, 17.0 ],
					"pattrmode" : 1,
					"prefix_mode" : 2,
					"presentation" : 1,
					"presentation_rect" : [ 454.0, 50.0, 139.939545, 17.0 ],
					"prototypename" : "Arial9",
					"textcolor" : [ 0.258824, 0.258824, 0.258824, 1.0 ]
				}

			}
, 			{
				"box" : 				{
					"color" : [ 0.7, 0.7, 0.7, 1.0 ],
					"fontname" : "Arial",
					"fontsize" : 10.435669,
					"id" : "obj-1",
					"maxclass" : "newobj",
					"numinlets" : 2,
					"numoutlets" : 2,
					"outlettype" : [ "", "int" ],
					"patching_rect" : [ 36.0, 48.0, 82.0, 18.0 ],
					"text" : "adstatus switch"
				}

			}
, 			{
				"box" : 				{
					"arrowbgcolor" : [ 0.941176, 0.941176, 0.941176, 0.74902 ],
					"arrowcolor" : [ 0.694118, 0.694118, 0.694118, 1.0 ],
					"arrowframe" : 0,
					"arrowlink" : 0,
					"bgcolor" : [ 1.0, 1.0, 1.0, 0.74902 ],
					"fontname" : "Arial Bold",
					"fontsize" : 12.0,
					"framecolor" : [ 0.501961, 0.501961, 0.501961, 0.129412 ],
					"hint" : "",
					"hltcolor" : [ 0.827451, 0.827451, 0.827451, 1.0 ],
					"id" : "obj-36",
					"items" : [ "Off", ",", "On" ],
					"maxclass" : "umenu",
					"numinlets" : 1,
					"numoutlets" : 3,
					"outlettype" : [ "int", "", "" ],
					"parameter_enable" : 0,
					"patching_rect" : [ 36.0, 27.0, 50.939552, 20.0 ],
					"pattrmode" : 1,
					"prefix_mode" : 2,
					"presentation" : 1,
					"presentation_rect" : [ 454.0, 29.0, 54.939552, 20.0 ],
					"prototypename" : "Arial9",
					"textcolor" : [ 0.258824, 0.258824, 0.258824, 1.0 ]
				}

			}
 ],
		"lines" : [ 			{
				"patchline" : 				{
					"color" : [ 0.0, 0.0, 0.0, 1.0 ],
					"destination" : [ "obj-36", 0 ],
					"disabled" : 0,
					"hidden" : 0,
					"midpoints" : [ 45.5, 69.0, 33.0, 69.0, 33.0, 23.0, 45.5, 23.0 ],
					"source" : [ "obj-1", 0 ]
				}

			}
, 			{
				"patchline" : 				{
					"color" : [ 0.0, 0.0, 0.0, 1.0 ],
					"destination" : [ "obj-9", 0 ],
					"disabled" : 0,
					"hidden" : 0,
					"source" : [ "obj-10", 0 ]
				}

			}
, 			{
				"patchline" : 				{
					"color" : [ 0.0, 0.0, 0.0, 1.0 ],
					"destination" : [ "obj-3", 0 ],
					"disabled" : 0,
					"hidden" : 0,
					"midpoints" : [ 171.5, 144.0, 159.0, 144.0, 159.0, 98.0, 171.5, 98.0 ],
					"source" : [ "obj-2", 0 ]
				}

			}
, 			{
				"patchline" : 				{
					"color" : [ 0.0, 0.0, 0.0, 1.0 ],
					"destination" : [ "obj-2", 0 ],
					"disabled" : 0,
					"hidden" : 0,
					"source" : [ "obj-3", 0 ]
				}

			}
, 			{
				"patchline" : 				{
					"color" : [ 0.0, 0.0, 0.0, 1.0 ],
					"destination" : [ "obj-1", 0 ],
					"disabled" : 0,
					"hidden" : 0,
					"source" : [ "obj-36", 0 ]
				}

			}
, 			{
				"patchline" : 				{
					"color" : [ 0.0, 0.0, 0.0, 1.0 ],
					"destination" : [ "obj-41", 0 ],
					"disabled" : 0,
					"hidden" : 0,
					"midpoints" : [ 177.5, 210.0, 165.0, 210.0, 165.0, 164.0, 177.5, 164.0 ],
					"source" : [ "obj-40", 0 ]
				}

			}
, 			{
				"patchline" : 				{
					"color" : [ 0.0, 0.0, 0.0, 1.0 ],
					"destination" : [ "obj-40", 0 ],
					"disabled" : 0,
					"hidden" : 0,
					"source" : [ "obj-41", 0 ]
				}

			}
, 			{
				"patchline" : 				{
					"color" : [ 0.0, 0.0, 0.0, 1.0 ],
					"destination" : [ "obj-44", 0 ],
					"disabled" : 0,
					"hidden" : 0,
					"midpoints" : [ 42.5, 210.0, 30.0, 210.0, 30.0, 164.0, 42.5, 164.0 ],
					"source" : [ "obj-43", 0 ]
				}

			}
, 			{
				"patchline" : 				{
					"color" : [ 0.0, 0.0, 0.0, 1.0 ],
					"destination" : [ "obj-43", 0 ],
					"disabled" : 0,
					"hidden" : 0,
					"source" : [ "obj-44", 0 ]
				}

			}
, 			{
				"patchline" : 				{
					"color" : [ 0.0, 0.0, 0.0, 1.0 ],
					"destination" : [ "obj-48", 0 ],
					"disabled" : 0,
					"hidden" : 0,
					"midpoints" : [ 42.5, 270.0, 30.0, 270.0, 30.0, 224.0, 42.5, 224.0 ],
					"source" : [ "obj-47", 0 ]
				}

			}
, 			{
				"patchline" : 				{
					"color" : [ 0.0, 0.0, 0.0, 1.0 ],
					"destination" : [ "obj-47", 0 ],
					"disabled" : 0,
					"hidden" : 0,
					"source" : [ "obj-48", 0 ]
				}

			}
, 			{
				"patchline" : 				{
					"color" : [ 0.0, 0.0, 0.0, 1.0 ],
					"destination" : [ "obj-58", 0 ],
					"disabled" : 0,
					"hidden" : 0,
					"midpoints" : [ 252.5, 293.0, 161.0, 293.0, 161.0, 225.0, 173.5, 225.0 ],
					"source" : [ "obj-50", 2 ]
				}

			}
, 			{
				"patchline" : 				{
					"color" : [ 0.0, 0.0, 0.0, 1.0 ],
					"destination" : [ "obj-62", 0 ],
					"disabled" : 0,
					"hidden" : 0,
					"midpoints" : [ 391.5, 293.0, 300.0, 293.0, 300.0, 225.0, 312.5, 225.0 ],
					"source" : [ "obj-55", 2 ]
				}

			}
, 			{
				"patchline" : 				{
					"color" : [ 0.0, 0.0, 0.0, 1.0 ],
					"destination" : [ "obj-50", 0 ],
					"disabled" : 0,
					"hidden" : 0,
					"source" : [ "obj-57", 0 ]
				}

			}
, 			{
				"patchline" : 				{
					"color" : [ 0.0, 0.0, 0.0, 1.0 ],
					"destination" : [ "obj-57", 0 ],
					"disabled" : 0,
					"hidden" : 0,
					"source" : [ "obj-58", 0 ]
				}

			}
, 			{
				"patchline" : 				{
					"color" : [ 0.0, 0.0, 0.0, 1.0 ],
					"destination" : [ "obj-55", 0 ],
					"disabled" : 0,
					"hidden" : 0,
					"source" : [ "obj-61", 0 ]
				}

			}
, 			{
				"patchline" : 				{
					"color" : [ 0.0, 0.0, 0.0, 1.0 ],
					"destination" : [ "obj-61", 0 ],
					"disabled" : 0,
					"hidden" : 0,
					"source" : [ "obj-62", 0 ]
				}

			}
, 			{
				"patchline" : 				{
					"color" : [ 0.0, 0.0, 0.0, 1.0 ],
					"destination" : [ "obj-69", 0 ],
					"disabled" : 0,
					"hidden" : 0,
					"midpoints" : [ 33.5, 357.0, 21.0, 357.0, 21.0, 311.0, 33.5, 311.0 ],
					"source" : [ "obj-68", 0 ]
				}

			}
, 			{
				"patchline" : 				{
					"color" : [ 0.0, 0.0, 0.0, 1.0 ],
					"destination" : [ "obj-68", 0 ],
					"disabled" : 0,
					"hidden" : 0,
					"source" : [ "obj-69", 0 ]
				}

			}
, 			{
				"patchline" : 				{
					"color" : [ 0.0, 0.0, 0.0, 1.0 ],
					"destination" : [ "obj-80", 0 ],
					"disabled" : 0,
					"hidden" : 0,
					"midpoints" : [ 153.5, 357.0, 141.0, 357.0, 141.0, 311.0, 153.5, 311.0 ],
					"source" : [ "obj-79", 0 ]
				}

			}
, 			{
				"patchline" : 				{
					"color" : [ 0.0, 0.0, 0.0, 1.0 ],
					"destination" : [ "obj-79", 0 ],
					"disabled" : 0,
					"hidden" : 0,
					"source" : [ "obj-80", 0 ]
				}

			}
, 			{
				"patchline" : 				{
					"color" : [ 0.0, 0.0, 0.0, 1.0 ],
					"destination" : [ "obj-89", 0 ],
					"disabled" : 0,
					"hidden" : 0,
					"source" : [ "obj-81", 0 ]
				}

			}
, 			{
				"patchline" : 				{
					"color" : [ 0.0, 0.0, 0.0, 1.0 ],
					"destination" : [ "obj-10", 0 ],
					"disabled" : 0,
					"hidden" : 0,
					"midpoints" : [ 45.5, 144.0, 33.0, 144.0, 33.0, 98.0, 45.5, 98.0 ],
					"source" : [ "obj-9", 0 ]
				}

			}
 ],
		"dependency_cache" : [  ]
	}

}
