{
	"patcher" : 	{
		"fileversion" : 1,
		"appversion" : 		{
			"major" : 6,
			"minor" : 1,
			"revision" : 5,
			"architecture" : "x86"
		}
,
		"openrect" : [ 769.0, 44.0, 270.0, 132.0 ],
		"bglocked" : 0,
		"openinpresentation" : 1,
		"default_fontsize" : 12.0,
		"default_fontface" : 0,
		"default_fontname" : "Andale Mono",
		"gridonopen" : 0,
		"gridsize" : [ 18.0, 6.0 ],
		"gridsnaponopen" : 0,
		"statusbarvisible" : 0,
		"toolbarvisible" : 1,
		"boxanimatetime" : 200,
		"imprint" : 0,
		"enablehscroll" : 1,
		"enablevscroll" : 1,
		"devicewidth" : 0.0,
		"description" : "",
		"digest" : "",
		"tags" : "",
		"boxes" : [ 			{
				"box" : 				{
					"bgcolor" : [ 0.701961, 0.701961, 0.701961, 1.0 ],
					"bgoncolor" : [ 1.0, 0.8, 0.4, 0.75 ],
					"bgovercolor" : [ 0.701961, 0.701961, 0.701961, 1.0 ],
					"bgoveroncolor" : [ 1.0, 0.8, 0.4, 0.75 ],
					"border" : 1,
					"bordercolor" : [ 0.701961, 0.701961, 0.701961, 1.0 ],
					"borderoncolor" : [ 0.701961, 0.701961, 0.701961, 1.0 ],
					"fontname" : "Andale Mono",
					"fontsize" : 12.0,
					"id" : "obj-1",
					"maxclass" : "textbutton",
					"numinlets" : 1,
					"numoutlets" : 3,
					"outlettype" : [ "", "", "int" ],
					"parameter_enable" : 0,
					"patching_rect" : [ 72.0, 90.0, 100.0, 20.0 ],
					"presentation" : 1,
					"presentation_rect" : [ 162.0, 66.0, 72.0, 18.0 ],
					"rounded" : 0.0,
					"text" : "refresh",
					"texton" : "on",
					"textoncolor" : [ 0.0, 0.0, 0.0, 1.0 ],
					"textoveroncolor" : [ 0.0, 0.0, 0.0, 1.0 ],
					"varname" : "midi-clock[1]"
				}

			}
, 			{
				"box" : 				{
					"fontname" : "Andale Mono",
					"fontsize" : 12.0,
					"frgb" : 0.0,
					"id" : "obj-28",
					"maxclass" : "comment",
					"numinlets" : 1,
					"numoutlets" : 0,
					"patching_rect" : [ 39.0, 63.0, 108.0, 20.0 ],
					"presentation" : 1,
					"presentation_rect" : [ 36.0, 66.0, 104.0, 20.0 ],
					"text" : "midi out port"
				}

			}
, 			{
				"box" : 				{
					"fontname" : "Andale Mono",
					"fontsize" : 12.0,
					"id" : "obj-27",
					"maxclass" : "newobj",
					"numinlets" : 1,
					"numoutlets" : 1,
					"outlettype" : [ "int" ],
					"patching_rect" : [ 18.0, 216.0, 47.0, 20.0 ],
					"text" : "t 252"
				}

			}
, 			{
				"box" : 				{
					"fontname" : "Andale Mono",
					"fontsize" : 12.0,
					"id" : "obj-25",
					"maxclass" : "newobj",
					"numinlets" : 1,
					"numoutlets" : 1,
					"outlettype" : [ "int" ],
					"patching_rect" : [ 18.0, 192.0, 47.0, 20.0 ],
					"text" : "t 250"
				}

			}
, 			{
				"box" : 				{
					"fontname" : "Andale Mono",
					"fontsize" : 12.0,
					"id" : "obj-24",
					"maxclass" : "newobj",
					"numinlets" : 2,
					"numoutlets" : 2,
					"outlettype" : [ "bang", "" ],
					"patching_rect" : [ 18.0, 150.0, 47.0, 20.0 ],
					"text" : "sel 1"
				}

			}
, 			{
				"box" : 				{
					"fontname" : "Andale Mono",
					"fontsize" : 12.0,
					"id" : "obj-23",
					"maxclass" : "newobj",
					"numinlets" : 1,
					"numoutlets" : 1,
					"outlettype" : [ "int" ],
					"patching_rect" : [ 72.0, 198.0, 47.0, 20.0 ],
					"text" : "t 248"
				}

			}
, 			{
				"box" : 				{
					"fontname" : "Arial Bold",
					"fontsize" : 10.0,
					"id" : "obj-21",
					"maxclass" : "newobj",
					"numinlets" : 1,
					"numoutlets" : 1,
					"outlettype" : [ "bang" ],
					"patching_rect" : [ 198.0, 120.0, 55.0, 18.0 ],
					"text" : "loadbang"
				}

			}
, 			{
				"box" : 				{
					"fontname" : "Arial Bold",
					"fontsize" : 10.0,
					"id" : "obj-22",
					"maxclass" : "newobj",
					"numinlets" : 2,
					"numoutlets" : 1,
					"outlettype" : [ "" ],
					"patching_rect" : [ 198.0, 150.0, 49.0, 18.0 ],
					"text" : "midiinfo"
				}

			}
, 			{
				"box" : 				{
					"align" : 2,
					"bgcolor" : [ 0.8, 0.8, 0.8, 1.0 ],
					"bgcolor2" : [ 0.901961, 0.901961, 0.901961, 1.0 ],
					"fontname" : "Andale Mono",
					"fontsize" : 12.0,
					"framecolor" : [ 0.501961, 0.501961, 0.501961, 0.0 ],
					"hltcolor" : [ 1.0, 1.0, 1.0, 1.0 ],
					"id" : "obj-19",
					"items" : [ "AU DLS Synth 1", ",", "IAC Driver fda", ",", "from Max 1", ",", "from Max 2" ],
					"maxclass" : "umenu",
					"numinlets" : 1,
					"numoutlets" : 3,
					"outlettype" : [ "int", "", "" ],
					"parameter_enable" : 0,
					"patching_rect" : [ 144.0, 186.0, 100.0, 20.0 ],
					"presentation" : 1,
					"presentation_rect" : [ 36.0, 84.0, 198.0, 20.0 ],
					"rounded" : 0
				}

			}
, 			{
				"box" : 				{
					"color" : [ 0.8, 0.4, 1.0, 1.0 ],
					"fontname" : "Helvetica Neue",
					"fontsize" : 11.0,
					"id" : "obj-198",
					"maxclass" : "newobj",
					"numinlets" : 0,
					"numoutlets" : 1,
					"outlettype" : [ "" ],
					"patching_rect" : [ 90.0, 120.0, 82.0, 19.0 ],
					"text" : "r [batch]tempo"
				}

			}
, 			{
				"box" : 				{
					"fontface" : 1,
					"fontname" : "Arial",
					"fontsize" : 10.0,
					"id" : "obj-9",
					"maxclass" : "newobj",
					"numinlets" : 4,
					"numoutlets" : 1,
					"outlettype" : [ "int" ],
					"patching_rect" : [ 72.0, 150.0, 82.0, 18.0 ],
					"text" : "tempo 120 1 96"
				}

			}
, 			{
				"box" : 				{
					"fontname" : "Andale Mono",
					"fontsize" : 12.0,
					"id" : "obj-10",
					"maxclass" : "newobj",
					"numinlets" : 1,
					"numoutlets" : 0,
					"patching_rect" : [ 54.0, 264.0, 61.0, 20.0 ],
					"text" : "midiout"
				}

			}
, 			{
				"box" : 				{
					"comment" : "",
					"id" : "obj-4",
					"maxclass" : "inlet",
					"numinlets" : 0,
					"numoutlets" : 1,
					"outlettype" : [ "" ],
					"patching_rect" : [ 180.0, 78.0, 25.0, 25.0 ]
				}

			}
, 			{
				"box" : 				{
					"bgcolor" : [ 0.701961, 0.701961, 0.701961, 1.0 ],
					"bgoncolor" : [ 1.0, 0.8, 0.4, 0.75 ],
					"bgovercolor" : [ 0.701961, 0.701961, 0.701961, 1.0 ],
					"bgoveroncolor" : [ 1.0, 0.8, 0.4, 0.75 ],
					"border" : 1,
					"bordercolor" : [ 0.701961, 0.701961, 0.701961, 1.0 ],
					"borderoncolor" : [ 0.701961, 0.701961, 0.701961, 1.0 ],
					"fontname" : "Andale Mono",
					"fontsize" : 12.0,
					"id" : "obj-26",
					"maxclass" : "textbutton",
					"mode" : 1,
					"numinlets" : 1,
					"numoutlets" : 3,
					"outlettype" : [ "", "", "int" ],
					"parameter_enable" : 0,
					"patching_rect" : [ 36.0, 60.0, 100.0, 20.0 ],
					"presentation" : 1,
					"presentation_rect" : [ 36.0, 36.0, 198.0, 18.0 ],
					"rounded" : 0.0,
					"text" : "off",
					"texton" : "on",
					"textoncolor" : [ 0.0, 0.0, 0.0, 1.0 ],
					"textoveroncolor" : [ 0.0, 0.0, 0.0, 1.0 ],
					"varname" : "midi-clock"
				}

			}
, 			{
				"box" : 				{
					"fontname" : "Andale Mono",
					"fontsize" : 18.0,
					"frgb" : 0.0,
					"id" : "obj-5",
					"maxclass" : "comment",
					"numinlets" : 1,
					"numoutlets" : 0,
					"patching_rect" : [ 18.0, 12.0, 220.0, 27.0 ],
					"presentation" : 1,
					"presentation_rect" : [ 17.0, 5.0, 163.0, 27.0 ],
					"text" : "midi clock"
				}

			}
, 			{
				"box" : 				{
					"bgcolor" : [ 1.0, 0.8, 0.4, 0.2 ],
					"id" : "obj-6",
					"maxclass" : "panel",
					"numinlets" : 1,
					"numoutlets" : 0,
					"patching_rect" : [ 486.0, 18.0, 72.0, 42.0 ],
					"presentation" : 1,
					"presentation_rect" : [ 18.0, 24.0, 234.0, 90.0 ]
				}

			}
 ],
		"lines" : [ 			{
				"patchline" : 				{
					"destination" : [ "obj-22", 0 ],
					"disabled" : 0,
					"hidden" : 0,
					"source" : [ "obj-1", 0 ]
				}

			}
, 			{
				"patchline" : 				{
					"destination" : [ "obj-10", 0 ],
					"disabled" : 0,
					"hidden" : 0,
					"source" : [ "obj-19", 1 ]
				}

			}
, 			{
				"patchline" : 				{
					"destination" : [ "obj-9", 1 ],
					"disabled" : 0,
					"hidden" : 0,
					"source" : [ "obj-198", 0 ]
				}

			}
, 			{
				"patchline" : 				{
					"destination" : [ "obj-22", 0 ],
					"disabled" : 0,
					"hidden" : 0,
					"source" : [ "obj-21", 0 ]
				}

			}
, 			{
				"patchline" : 				{
					"destination" : [ "obj-19", 0 ],
					"disabled" : 0,
					"hidden" : 0,
					"source" : [ "obj-22", 0 ]
				}

			}
, 			{
				"patchline" : 				{
					"destination" : [ "obj-10", 0 ],
					"disabled" : 0,
					"hidden" : 0,
					"source" : [ "obj-23", 0 ]
				}

			}
, 			{
				"patchline" : 				{
					"destination" : [ "obj-25", 0 ],
					"disabled" : 0,
					"hidden" : 0,
					"source" : [ "obj-24", 0 ]
				}

			}
, 			{
				"patchline" : 				{
					"destination" : [ "obj-27", 0 ],
					"disabled" : 0,
					"hidden" : 0,
					"source" : [ "obj-24", 1 ]
				}

			}
, 			{
				"patchline" : 				{
					"destination" : [ "obj-10", 0 ],
					"disabled" : 0,
					"hidden" : 0,
					"source" : [ "obj-25", 0 ]
				}

			}
, 			{
				"patchline" : 				{
					"destination" : [ "obj-24", 0 ],
					"disabled" : 0,
					"hidden" : 0,
					"source" : [ "obj-26", 0 ]
				}

			}
, 			{
				"patchline" : 				{
					"destination" : [ "obj-9", 0 ],
					"disabled" : 0,
					"hidden" : 0,
					"midpoints" : [ 38.0, 136.0 ],
					"source" : [ "obj-26", 0 ]
				}

			}
, 			{
				"patchline" : 				{
					"destination" : [ "obj-10", 0 ],
					"disabled" : 0,
					"hidden" : 0,
					"source" : [ "obj-27", 0 ]
				}

			}
, 			{
				"patchline" : 				{
					"destination" : [ "obj-22", 0 ],
					"disabled" : 0,
					"hidden" : 0,
					"source" : [ "obj-4", 0 ]
				}

			}
, 			{
				"patchline" : 				{
					"destination" : [ "obj-23", 0 ],
					"disabled" : 0,
					"hidden" : 0,
					"source" : [ "obj-9", 0 ]
				}

			}
 ]
	}

}
