{
	"patcher" : 	{
		"fileversion" : 1,
		"rect" : [ 638.0, 127.0, 332.0, 418.0 ],
		"bglocked" : 0,
		"defrect" : [ 638.0, 127.0, 332.0, 418.0 ],
		"openrect" : [ 0.0, 0.0, 0.0, 0.0 ],
		"openinpresentation" : 0,
		"default_fontsize" : 12.0,
		"default_fontface" : 0,
		"default_fontname" : "Arial",
		"gridonopen" : 0,
		"gridsize" : [ 15.0, 15.0 ],
		"gridsnaponopen" : 0,
		"toolbarvisible" : 1,
		"boxanimatetime" : 200,
		"imprint" : 0,
		"enablehscroll" : 1,
		"enablevscroll" : 1,
		"devicewidth" : 0.0,
		"boxes" : [ 			{
				"box" : 				{
					"maxclass" : "newobj",
					"text" : "loadmess 0",
					"outlettype" : [ "" ],
					"hidden" : 1,
					"fontsize" : 9.0,
					"numinlets" : 1,
					"patching_rect" : [ 1.0, 21.0, 60.0, 17.0 ],
					"id" : "obj-1",
					"fontname" : "Arial",
					"numoutlets" : 1
				}

			}
, 			{
				"box" : 				{
					"maxclass" : "preset",
					"outlettype" : [ "preset", "int", "preset", "int" ],
					"spacing" : 2,
					"bubblesize" : 8,
					"numinlets" : 1,
					"patching_rect" : [ 1.0, 48.0, 175.0, 17.0 ],
					"margin" : 4,
					"id" : "obj-2",
					"numoutlets" : 4,
					"preset_data" : [ 						{
							"number" : 1,
							"data" : [ 5, "obj-131", "number", "int", 36, 5, "obj-128", "number", "int", 36, 5, "obj-126", "number", "int", 38, 5, "obj-124", "number", "int", 38, 5, "obj-122", "number", "int", 40, 5, "obj-120", "number", "int", 40, 5, "obj-118", "number", "int", 41, 5, "obj-116", "number", "int", 41, 5, "<invalid>", 14, "int", 43, 5, "<invalid>", 41, "int", 43, 5, "<invalid>", "number", "int", 45, 5, "<invalid>", 86, "int", 45, 5, "<invalid>", "\u003b", "int", 47, 5, "<invalid>", "int", "int", 47, 5, "<invalid>", 261, "int", 36, 5, "<invalid>", -1, "int", 36, 5, "obj-114", "number", "int", 48, 5, "obj-112", "number", "int", 48, 5, "obj-110", "number", "int", 50, 5, "obj-108", "number", "int", 50, 5, "obj-106", "number", "int", 52, 5, "obj-104", "number", "int", 52, 5, "obj-102", "number", "int", 53, 5, "obj-100", "number", "int", 53, 5, "<invalid>", "number", "int", 55, 5, "<invalid>", 121, "int", 55, 5, "<invalid>", "\u003b", "int", 57, 5, "<invalid>", "int", "int", 57, 5, "<invalid>", 153, "int", 59, 5, "<invalid>", 28, "int", 59, 5, "<invalid>", 52, "int", 48, 5, "<invalid>", "number", "int", 48, 5, "obj-98", "number", "int", 60, 5, "obj-96", "number", "int", 60, 5, "obj-94", "number", "int", 62, 5, "obj-92", "number", "int", 62, 5, "obj-90", "number", "int", 64, 5, "obj-88", "number", "int", 64, 5, "obj-86", "number", "int", 65, 5, "obj-84", "number", "int", 65, 5, "<invalid>", "\u003b", "int", 67, 5, "<invalid>", "int", "int", 67, 5, "<invalid>", 261, "int", 69, 5, "<invalid>", -1, "int", 69, 5, "<invalid>", 48, "int", 71, 5, "<invalid>", "number", "int", 71, 5, "<invalid>", 156, "int", 60, 5, "<invalid>", "\u003b", "int", 60, 5, "obj-82", "number", "int", 72, 5, "obj-80", "number", "int", 72, 5, "obj-78", "number", "int", 74, 5, "obj-76", "number", "int", 74, 5, "obj-74", "number", "int", 76, 5, "obj-72", "number", "int", 76, 5, "obj-70", "number", "int", 77, 5, "obj-68", "number", "int", 77, 5, "<invalid>", 261, "int", 79, 5, "<invalid>", -1, "int", 79, 5, "<invalid>", 67, "int", 81, 5, "<invalid>", "number", "int", 81, 5, "<invalid>", 156, "int", 83, 5, "<invalid>", "\u003b", "int", 83, 5, "<invalid>", "int", "int", 72, 5, "<invalid>", 261, "int", 72, 5, "obj-66", "number", "int", 84, 5, "obj-64", "number", "int", 84, 5, "obj-62", "number", "int", 86, 5, "obj-60", "number", "int", 86, 5, "obj-58", "number", "int", 88, 5, "obj-56", "number", "int", 88, 5, "obj-54", "number", "int", 89, 5, "obj-52", "number", "int", 89, 5, "<invalid>", 74, "int", 91, 5, "<invalid>", "number", "int", 91, 5, "<invalid>", 191, "int", 93, 5, "<invalid>", "\u003b", "int", 93, 5, "<invalid>", "int", "int", 95, 5, "<invalid>", 261, "int", 95, 5, "<invalid>", -1, "int", 84, 5, "<invalid>", 79, "int", 84, 5, "obj-50", "number", "int", 96, 5, "obj-48", "number", "int", 96, 5, "obj-46", "number", "int", 98, 5, "obj-44", "number", "int", 98, 5, "obj-42", "number", "int", 100, 5, "obj-40", "number", "int", 100, 5, "obj-38", "number", "int", 101, 5, "obj-36", "number", "int", 101, 5, "<invalid>", 191, "int", 103, 5, "<invalid>", "\u003b", "int", 103, 5, "<invalid>", "int", "int", 105, 5, "<invalid>", 39, "int", 105, 5, "<invalid>", 70, "int", 107, 5, "<invalid>", 86, "int", 107, 5, "<invalid>", "number", "int", 96, 5, "<invalid>", 235, "int", 96, 5, "obj-34", "number", "int", 108, 5, "obj-32", "number", "int", 108, 5, "obj-30", "number", "int", 110, 5, "obj-28", "number", "int", 110, 5, "obj-26", "number", "int", 112, 5, "obj-24", "number", "int", 112, 5, "obj-22", "number", "int", 113, 5, "obj-20", "number", "int", 113, 5, "<invalid>", "int", "int", 115, 5, "<invalid>", 261, "int", 115, 5, "<invalid>", -1, "int", 117, 5, "<invalid>", 95, "int", 117, 5, "<invalid>", "number", "int", 119, 5, "<invalid>", 235, "int", 119, 5, "<invalid>", "\u003b", "int", 108, 5, "<invalid>", "int", "int", 108, 5, "obj-18", "number", "int", 96, 5, "obj-16", "number", "int", 96, 5, "obj-14", "number", "int", 98, 5, "obj-12", "number", "int", 98, 5, "obj-10", "number", "int", 100, 5, "obj-8", "number", "int", 100, 5, "obj-6", "number", "int", 101, 5, "obj-4", "number", "int", 101, 5, "<invalid>", 94, "int", 103, 5, "<invalid>", 101, "int", 103, 5, "<invalid>", "number", "int", 105, 5, "<invalid>", 270, "int", 105, 5, "<invalid>", "\u003b", "int", 107, 5, "<invalid>", "int", "int", 107, 5, "<invalid>", 261, "int", 96, 5, "<invalid>", -1, "int", 96, 5, "<invalid>", 105, "int", 84, 5, "<invalid>", "number", "int", 84, 5, "<invalid>", 270, "int", 86, 5, "<invalid>", "\u003b", "int", 86, 5, "<invalid>", "int", "int", 88, 5, "<invalid>", 261, "int", 88, 5, "<invalid>", 98, "int", 89, 5, "<invalid>", 108, "int", 89, 5, "<invalid>", "number", "int", 91, 5, "<invalid>", 305, "int", 91, 5, "<invalid>", "\u003b", "int", 93, 5, "<invalid>", "int", "int", 93, 5, "<invalid>", 153, "int", 95, 5, "<invalid>", 108, "int", 95, 5, "<invalid>", 112, "int", 84, 5, "<invalid>", "number", "int", 84, 5, "<invalid>", 305, "int", 72, 5, "<invalid>", "\u003b", "int", 72, 5, "<invalid>", "int", "int", 74, 5, "<invalid>", 261, "int", 74, 5, "<invalid>", -1, "int", 76, 5, "<invalid>", 117, "int", 76, 5, "<invalid>", "number", "int", 77, 5, "<invalid>", 305, "int", 77, 5, "<invalid>", "\u003b", "int", 79, 5, "<invalid>", "int", "int", 79, 5, "<invalid>", 261, "int", 81, 5, "<invalid>", -1, "int", 81, 5, "<invalid>", 108, "int", 83, 5, "<invalid>", "number", "int", 83, 5, "<invalid>", 340, "int", 72, 5, "<invalid>", "\u003b", "int", 72, 5, "<invalid>", "int", "int", 60, 5, "<invalid>", 111, "int", 60, 5, "<invalid>", 122, "int", 62, 5, "<invalid>", 100, "int", 62, 5, "<invalid>", "number", "int", 64, 5, "<invalid>", 340, "int", 64, 5, "<invalid>", "\u003b", "int", 65, 5, "<invalid>", "int", "int", 65, 5, "<invalid>", 261, "int", 67, 5, "<invalid>", -1, "int", 67, 5, "<invalid>", 103, "int", 69, 5, "<invalid>", "number", "int", 69, 5, "<invalid>", 340, "int", 71, 5, "<invalid>", "\u003b", "int", 71, 5, "<invalid>", "int", "int", 60, 5, "<invalid>", 261, "int", 60, 5, "<invalid>", -1, "int", 48, 5, "<invalid>", 96, "int", 48, 5, "<invalid>", "number", "int", 50, 5, "<invalid>", 340, "int", 50, 5, "<invalid>", "\u003b", "int", 52, 5, "<invalid>", "int", "int", 52, 5, "<invalid>", 261, "int", 53, 5, "<invalid>", -1, "int", 53, 5, "<invalid>", 86, "int", 55, 5, "<invalid>", "number", "int", 55, 5, "<invalid>", 340, "int", 57, 5, "<invalid>", "\u003b", "int", 57, 5, "<invalid>", "int", "int", 59, 5, "<invalid>", 261, "int", 59, 5, "<invalid>", -1, "int", 48, 5, "<invalid>", 91, "int", 0, 5, "<invalid>", "number", "int", 36, 5, "<invalid>", 340, "int", 36, 5, "<invalid>", "\u003b", "int", 38, 5, "<invalid>", "int", "int", 38, 5, "<invalid>", 261, "int", 40, 5, "<invalid>", -1, "int", 40, 5, "<invalid>", 95, "int", 41, 5, "<invalid>", "number", "int", 41, 5, "<invalid>", 340, "int", 43, 5, "<invalid>", "\u003b", "int", 43, 5, "<invalid>", "int", "int", 45, 5, "<invalid>", 261, "int", 45, 5, "<invalid>", -1, "int", 47, 5, "<invalid>", 74, "int", 47, 5, "<invalid>", "number", "int", 36, 5, "<invalid>", 340, "int", 36, 5, "<invalid>", "\u003b", "int", 24, 5, "<invalid>", "int", "int", 24, 5, "<invalid>", 261, "int", 26, 5, "<invalid>", -1, "int", 26, 5, "<invalid>", 77, "int", 28, 5, "<invalid>", "number", "int", 28, 5, "<invalid>", 340, "int", 29, 5, "<invalid>", "\u003b", "int", 29, 5, "<invalid>", "int", "int", 31, 5, "<invalid>", 261, "int", 31, 5, "<invalid>", -1, "int", 33, 5, "<invalid>", 83, "int", 33, 5, "<invalid>", "number", "int", 35, 5, "<invalid>", 340, "int", 35, 5, "<invalid>", "\u003b", "int", 24, 5, "<invalid>", "int", "int", 24, 5, "<invalid>", 261, "int", 12, 5, "<invalid>", -1, "int", 12, 5, "<invalid>", 60, "int", 14, 5, "<invalid>", "number", "int", 14, 5, "<invalid>", 340, "int", 16, 5, "<invalid>", "\u003b", "int", 16, 5, "<invalid>", "int", "int", 17, 5, "<invalid>", 261, "int", 17, 5, "<invalid>", -1, "int", 19, 5, "<invalid>", 65, "int", 19, 5, "<invalid>", "number", "int", 21, 5, "<invalid>", 340, "int", 21, 5, "<invalid>", "\u003b", "int", 23, 5, "<invalid>", "int", "int", 23, 5, "<invalid>", 261, "int", 12, 5, "<invalid>", -1, "int", 12, 5, "<invalid>", 69, "int", 0, 5, "<invalid>", "number", "int", 0, 5, "<invalid>", 340, "int", 2, 5, "<invalid>", "\u003b", "int", 2, 5, "<invalid>", "int", "int", 4, 5, "<invalid>", 261, "int", 4, 5, "<invalid>", -1, "int", 5, 5, "<invalid>", 48, "int", 5, 5, "<invalid>", "number", "int", 7, 5, "<invalid>", 340, "int", 7, 5, "<invalid>", "\u003b", "int", 9, 5, "<invalid>", "int", "int", 9, 5, "<invalid>", 261, "int", 11, 5, "<invalid>", -1, "int", 11, 5, "<invalid>", 52, "int", 0, 5, "<invalid>", "number", "int", 0 ]
						}
 ]
				}

			}
, 			{
				"box" : 				{
					"maxclass" : "newobj",
					"text" : "ap 119",
					"hidden" : 1,
					"fontsize" : 9.0,
					"numinlets" : 1,
					"patching_rect" : [ 261.0, 357.0, 41.0, 17.0 ],
					"id" : "obj-3",
					"fontname" : "Arial",
					"numoutlets" : 0
				}

			}
, 			{
				"box" : 				{
					"maxclass" : "number",
					"format" : 4,
					"minimum" : 0,
					"outlettype" : [ "int", "bang" ],
					"htextcolor" : [ 0.870588, 0.870588, 0.870588, 1.0 ],
					"triscale" : 0.9,
					"maximum" : 127,
					"fontsize" : 9.0,
					"bgcolor" : [ 0.866667, 0.866667, 0.866667, 1.0 ],
					"numinlets" : 1,
					"patching_rect" : [ 261.0, 340.0, 35.0, 17.0 ],
					"id" : "obj-4",
					"fontname" : "Arial",
					"numoutlets" : 2
				}

			}
, 			{
				"box" : 				{
					"maxclass" : "newobj",
					"text" : "ap 118",
					"hidden" : 1,
					"fontsize" : 9.0,
					"numinlets" : 1,
					"patching_rect" : [ 225.0, 357.0, 41.0, 17.0 ],
					"id" : "obj-5",
					"fontname" : "Arial",
					"numoutlets" : 0
				}

			}
, 			{
				"box" : 				{
					"maxclass" : "number",
					"format" : 4,
					"minimum" : 0,
					"outlettype" : [ "int", "bang" ],
					"htextcolor" : [ 0.870588, 0.870588, 0.870588, 1.0 ],
					"triscale" : 0.9,
					"maximum" : 127,
					"fontsize" : 9.0,
					"bgcolor" : [ 0.866667, 0.866667, 0.866667, 1.0 ],
					"numinlets" : 1,
					"patching_rect" : [ 225.0, 340.0, 35.0, 17.0 ],
					"id" : "obj-6",
					"fontname" : "Arial",
					"numoutlets" : 2
				}

			}
, 			{
				"box" : 				{
					"maxclass" : "newobj",
					"text" : "ap 117",
					"hidden" : 1,
					"fontsize" : 9.0,
					"numinlets" : 1,
					"patching_rect" : [ 189.0, 357.0, 41.0, 17.0 ],
					"id" : "obj-7",
					"fontname" : "Arial",
					"numoutlets" : 0
				}

			}
, 			{
				"box" : 				{
					"maxclass" : "number",
					"format" : 4,
					"minimum" : 0,
					"outlettype" : [ "int", "bang" ],
					"htextcolor" : [ 0.870588, 0.870588, 0.870588, 1.0 ],
					"triscale" : 0.9,
					"maximum" : 127,
					"fontsize" : 9.0,
					"bgcolor" : [ 0.866667, 0.866667, 0.866667, 1.0 ],
					"numinlets" : 1,
					"patching_rect" : [ 189.0, 340.0, 35.0, 17.0 ],
					"id" : "obj-8",
					"fontname" : "Arial",
					"numoutlets" : 2
				}

			}
, 			{
				"box" : 				{
					"maxclass" : "newobj",
					"text" : "ap 116",
					"hidden" : 1,
					"fontsize" : 9.0,
					"numinlets" : 1,
					"patching_rect" : [ 153.0, 357.0, 41.0, 17.0 ],
					"id" : "obj-9",
					"fontname" : "Arial",
					"numoutlets" : 0
				}

			}
, 			{
				"box" : 				{
					"maxclass" : "number",
					"format" : 4,
					"minimum" : 0,
					"outlettype" : [ "int", "bang" ],
					"htextcolor" : [ 0.870588, 0.870588, 0.870588, 1.0 ],
					"triscale" : 0.9,
					"maximum" : 127,
					"fontsize" : 9.0,
					"bgcolor" : [ 0.866667, 0.866667, 0.866667, 1.0 ],
					"numinlets" : 1,
					"patching_rect" : [ 153.0, 340.0, 35.0, 17.0 ],
					"id" : "obj-10",
					"fontname" : "Arial",
					"numoutlets" : 2
				}

			}
, 			{
				"box" : 				{
					"maxclass" : "newobj",
					"text" : "ap 115",
					"hidden" : 1,
					"fontsize" : 9.0,
					"numinlets" : 1,
					"patching_rect" : [ 111.0, 357.0, 41.0, 17.0 ],
					"id" : "obj-11",
					"fontname" : "Arial",
					"numoutlets" : 0
				}

			}
, 			{
				"box" : 				{
					"maxclass" : "number",
					"format" : 4,
					"minimum" : 0,
					"outlettype" : [ "int", "bang" ],
					"htextcolor" : [ 0.870588, 0.870588, 0.870588, 1.0 ],
					"triscale" : 0.9,
					"maximum" : 127,
					"fontsize" : 9.0,
					"bgcolor" : [ 0.866667, 0.866667, 0.866667, 1.0 ],
					"numinlets" : 1,
					"patching_rect" : [ 111.0, 340.0, 35.0, 17.0 ],
					"id" : "obj-12",
					"fontname" : "Arial",
					"numoutlets" : 2
				}

			}
, 			{
				"box" : 				{
					"maxclass" : "newobj",
					"text" : "ap 114",
					"hidden" : 1,
					"fontsize" : 9.0,
					"numinlets" : 1,
					"patching_rect" : [ 75.0, 357.0, 41.0, 17.0 ],
					"id" : "obj-13",
					"fontname" : "Arial",
					"numoutlets" : 0
				}

			}
, 			{
				"box" : 				{
					"maxclass" : "number",
					"format" : 4,
					"minimum" : 0,
					"outlettype" : [ "int", "bang" ],
					"htextcolor" : [ 0.870588, 0.870588, 0.870588, 1.0 ],
					"triscale" : 0.9,
					"maximum" : 127,
					"fontsize" : 9.0,
					"bgcolor" : [ 0.866667, 0.866667, 0.866667, 1.0 ],
					"numinlets" : 1,
					"patching_rect" : [ 75.0, 340.0, 35.0, 17.0 ],
					"id" : "obj-14",
					"fontname" : "Arial",
					"numoutlets" : 2
				}

			}
, 			{
				"box" : 				{
					"maxclass" : "newobj",
					"text" : "ap 113",
					"hidden" : 1,
					"fontsize" : 9.0,
					"numinlets" : 1,
					"patching_rect" : [ 39.0, 357.0, 41.0, 17.0 ],
					"id" : "obj-15",
					"fontname" : "Arial",
					"numoutlets" : 0
				}

			}
, 			{
				"box" : 				{
					"maxclass" : "number",
					"format" : 4,
					"minimum" : 0,
					"outlettype" : [ "int", "bang" ],
					"htextcolor" : [ 0.870588, 0.870588, 0.870588, 1.0 ],
					"triscale" : 0.9,
					"maximum" : 127,
					"fontsize" : 9.0,
					"bgcolor" : [ 0.866667, 0.866667, 0.866667, 1.0 ],
					"numinlets" : 1,
					"patching_rect" : [ 39.0, 340.0, 35.0, 17.0 ],
					"id" : "obj-16",
					"fontname" : "Arial",
					"numoutlets" : 2
				}

			}
, 			{
				"box" : 				{
					"maxclass" : "newobj",
					"text" : "ap 112",
					"hidden" : 1,
					"fontsize" : 9.0,
					"numinlets" : 1,
					"patching_rect" : [ 3.0, 357.0, 41.0, 17.0 ],
					"id" : "obj-17",
					"fontname" : "Arial",
					"numoutlets" : 0
				}

			}
, 			{
				"box" : 				{
					"maxclass" : "number",
					"format" : 4,
					"minimum" : 0,
					"outlettype" : [ "int", "bang" ],
					"htextcolor" : [ 0.870588, 0.870588, 0.870588, 1.0 ],
					"triscale" : 0.9,
					"maximum" : 127,
					"fontsize" : 9.0,
					"bgcolor" : [ 0.866667, 0.866667, 0.866667, 1.0 ],
					"numinlets" : 1,
					"patching_rect" : [ 3.0, 340.0, 35.0, 17.0 ],
					"id" : "obj-18",
					"fontname" : "Arial",
					"numoutlets" : 2
				}

			}
, 			{
				"box" : 				{
					"maxclass" : "newobj",
					"text" : "ap 103",
					"hidden" : 1,
					"fontsize" : 9.0,
					"numinlets" : 1,
					"patching_rect" : [ 261.0, 322.0, 41.0, 17.0 ],
					"id" : "obj-19",
					"fontname" : "Arial",
					"numoutlets" : 0
				}

			}
, 			{
				"box" : 				{
					"maxclass" : "number",
					"format" : 4,
					"minimum" : 0,
					"outlettype" : [ "int", "bang" ],
					"htextcolor" : [ 0.870588, 0.870588, 0.870588, 1.0 ],
					"triscale" : 0.9,
					"maximum" : 127,
					"fontsize" : 9.0,
					"bgcolor" : [ 0.866667, 0.866667, 0.866667, 1.0 ],
					"numinlets" : 1,
					"patching_rect" : [ 261.0, 305.0, 35.0, 17.0 ],
					"id" : "obj-20",
					"fontname" : "Arial",
					"numoutlets" : 2
				}

			}
, 			{
				"box" : 				{
					"maxclass" : "newobj",
					"text" : "ap 102",
					"hidden" : 1,
					"fontsize" : 9.0,
					"numinlets" : 1,
					"patching_rect" : [ 225.0, 322.0, 41.0, 17.0 ],
					"id" : "obj-21",
					"fontname" : "Arial",
					"numoutlets" : 0
				}

			}
, 			{
				"box" : 				{
					"maxclass" : "number",
					"format" : 4,
					"minimum" : 0,
					"outlettype" : [ "int", "bang" ],
					"htextcolor" : [ 0.870588, 0.870588, 0.870588, 1.0 ],
					"triscale" : 0.9,
					"maximum" : 127,
					"fontsize" : 9.0,
					"bgcolor" : [ 0.866667, 0.866667, 0.866667, 1.0 ],
					"numinlets" : 1,
					"patching_rect" : [ 225.0, 305.0, 35.0, 17.0 ],
					"id" : "obj-22",
					"fontname" : "Arial",
					"numoutlets" : 2
				}

			}
, 			{
				"box" : 				{
					"maxclass" : "newobj",
					"text" : "ap 101",
					"hidden" : 1,
					"fontsize" : 9.0,
					"numinlets" : 1,
					"patching_rect" : [ 189.0, 322.0, 41.0, 17.0 ],
					"id" : "obj-23",
					"fontname" : "Arial",
					"numoutlets" : 0
				}

			}
, 			{
				"box" : 				{
					"maxclass" : "number",
					"format" : 4,
					"minimum" : 0,
					"outlettype" : [ "int", "bang" ],
					"htextcolor" : [ 0.870588, 0.870588, 0.870588, 1.0 ],
					"triscale" : 0.9,
					"maximum" : 127,
					"fontsize" : 9.0,
					"bgcolor" : [ 0.866667, 0.866667, 0.866667, 1.0 ],
					"numinlets" : 1,
					"patching_rect" : [ 189.0, 305.0, 35.0, 17.0 ],
					"id" : "obj-24",
					"fontname" : "Arial",
					"numoutlets" : 2
				}

			}
, 			{
				"box" : 				{
					"maxclass" : "newobj",
					"text" : "ap 100",
					"hidden" : 1,
					"fontsize" : 9.0,
					"numinlets" : 1,
					"patching_rect" : [ 153.0, 322.0, 41.0, 17.0 ],
					"id" : "obj-25",
					"fontname" : "Arial",
					"numoutlets" : 0
				}

			}
, 			{
				"box" : 				{
					"maxclass" : "number",
					"format" : 4,
					"minimum" : 0,
					"outlettype" : [ "int", "bang" ],
					"htextcolor" : [ 0.870588, 0.870588, 0.870588, 1.0 ],
					"triscale" : 0.9,
					"maximum" : 127,
					"fontsize" : 9.0,
					"bgcolor" : [ 0.866667, 0.866667, 0.866667, 1.0 ],
					"numinlets" : 1,
					"patching_rect" : [ 153.0, 305.0, 35.0, 17.0 ],
					"id" : "obj-26",
					"fontname" : "Arial",
					"numoutlets" : 2
				}

			}
, 			{
				"box" : 				{
					"maxclass" : "newobj",
					"text" : "ap 99",
					"hidden" : 1,
					"fontsize" : 9.0,
					"numinlets" : 1,
					"patching_rect" : [ 111.0, 322.0, 35.0, 17.0 ],
					"id" : "obj-27",
					"fontname" : "Arial",
					"numoutlets" : 0
				}

			}
, 			{
				"box" : 				{
					"maxclass" : "number",
					"format" : 4,
					"minimum" : 0,
					"outlettype" : [ "int", "bang" ],
					"htextcolor" : [ 0.870588, 0.870588, 0.870588, 1.0 ],
					"triscale" : 0.9,
					"maximum" : 127,
					"fontsize" : 9.0,
					"bgcolor" : [ 0.866667, 0.866667, 0.866667, 1.0 ],
					"numinlets" : 1,
					"patching_rect" : [ 111.0, 305.0, 35.0, 17.0 ],
					"id" : "obj-28",
					"fontname" : "Arial",
					"numoutlets" : 2
				}

			}
, 			{
				"box" : 				{
					"maxclass" : "newobj",
					"text" : "ap 98",
					"hidden" : 1,
					"fontsize" : 9.0,
					"numinlets" : 1,
					"patching_rect" : [ 75.0, 322.0, 35.0, 17.0 ],
					"id" : "obj-29",
					"fontname" : "Arial",
					"numoutlets" : 0
				}

			}
, 			{
				"box" : 				{
					"maxclass" : "number",
					"format" : 4,
					"minimum" : 0,
					"outlettype" : [ "int", "bang" ],
					"htextcolor" : [ 0.870588, 0.870588, 0.870588, 1.0 ],
					"triscale" : 0.9,
					"maximum" : 127,
					"fontsize" : 9.0,
					"bgcolor" : [ 0.866667, 0.866667, 0.866667, 1.0 ],
					"numinlets" : 1,
					"patching_rect" : [ 75.0, 305.0, 35.0, 17.0 ],
					"id" : "obj-30",
					"fontname" : "Arial",
					"numoutlets" : 2
				}

			}
, 			{
				"box" : 				{
					"maxclass" : "newobj",
					"text" : "ap 97",
					"hidden" : 1,
					"fontsize" : 9.0,
					"numinlets" : 1,
					"patching_rect" : [ 39.0, 322.0, 35.0, 17.0 ],
					"id" : "obj-31",
					"fontname" : "Arial",
					"numoutlets" : 0
				}

			}
, 			{
				"box" : 				{
					"maxclass" : "number",
					"format" : 4,
					"minimum" : 0,
					"outlettype" : [ "int", "bang" ],
					"htextcolor" : [ 0.870588, 0.870588, 0.870588, 1.0 ],
					"triscale" : 0.9,
					"maximum" : 127,
					"fontsize" : 9.0,
					"bgcolor" : [ 0.866667, 0.866667, 0.866667, 1.0 ],
					"numinlets" : 1,
					"patching_rect" : [ 39.0, 305.0, 35.0, 17.0 ],
					"id" : "obj-32",
					"fontname" : "Arial",
					"numoutlets" : 2
				}

			}
, 			{
				"box" : 				{
					"maxclass" : "newobj",
					"text" : "ap 96",
					"hidden" : 1,
					"fontsize" : 9.0,
					"numinlets" : 1,
					"patching_rect" : [ 3.0, 322.0, 35.0, 17.0 ],
					"id" : "obj-33",
					"fontname" : "Arial",
					"numoutlets" : 0
				}

			}
, 			{
				"box" : 				{
					"maxclass" : "number",
					"format" : 4,
					"minimum" : 0,
					"outlettype" : [ "int", "bang" ],
					"htextcolor" : [ 0.870588, 0.870588, 0.870588, 1.0 ],
					"triscale" : 0.9,
					"maximum" : 127,
					"fontsize" : 9.0,
					"bgcolor" : [ 0.866667, 0.866667, 0.866667, 1.0 ],
					"numinlets" : 1,
					"patching_rect" : [ 3.0, 305.0, 35.0, 17.0 ],
					"id" : "obj-34",
					"fontname" : "Arial",
					"numoutlets" : 2
				}

			}
, 			{
				"box" : 				{
					"maxclass" : "newobj",
					"text" : "ap 87",
					"hidden" : 1,
					"fontsize" : 9.0,
					"numinlets" : 1,
					"patching_rect" : [ 261.0, 287.0, 35.0, 17.0 ],
					"id" : "obj-35",
					"fontname" : "Arial",
					"numoutlets" : 0
				}

			}
, 			{
				"box" : 				{
					"maxclass" : "number",
					"format" : 4,
					"minimum" : 0,
					"outlettype" : [ "int", "bang" ],
					"htextcolor" : [ 0.870588, 0.870588, 0.870588, 1.0 ],
					"triscale" : 0.9,
					"maximum" : 127,
					"fontsize" : 9.0,
					"bgcolor" : [ 0.866667, 0.866667, 0.866667, 1.0 ],
					"numinlets" : 1,
					"patching_rect" : [ 261.0, 270.0, 35.0, 17.0 ],
					"id" : "obj-36",
					"fontname" : "Arial",
					"numoutlets" : 2
				}

			}
, 			{
				"box" : 				{
					"maxclass" : "newobj",
					"text" : "ap 86",
					"hidden" : 1,
					"fontsize" : 9.0,
					"numinlets" : 1,
					"patching_rect" : [ 225.0, 287.0, 35.0, 17.0 ],
					"id" : "obj-37",
					"fontname" : "Arial",
					"numoutlets" : 0
				}

			}
, 			{
				"box" : 				{
					"maxclass" : "number",
					"format" : 4,
					"minimum" : 0,
					"outlettype" : [ "int", "bang" ],
					"htextcolor" : [ 0.870588, 0.870588, 0.870588, 1.0 ],
					"triscale" : 0.9,
					"maximum" : 127,
					"fontsize" : 9.0,
					"bgcolor" : [ 0.866667, 0.866667, 0.866667, 1.0 ],
					"numinlets" : 1,
					"patching_rect" : [ 225.0, 270.0, 35.0, 17.0 ],
					"id" : "obj-38",
					"fontname" : "Arial",
					"numoutlets" : 2
				}

			}
, 			{
				"box" : 				{
					"maxclass" : "newobj",
					"text" : "ap 85",
					"hidden" : 1,
					"fontsize" : 9.0,
					"numinlets" : 1,
					"patching_rect" : [ 189.0, 287.0, 35.0, 17.0 ],
					"id" : "obj-39",
					"fontname" : "Arial",
					"numoutlets" : 0
				}

			}
, 			{
				"box" : 				{
					"maxclass" : "number",
					"format" : 4,
					"minimum" : 0,
					"outlettype" : [ "int", "bang" ],
					"htextcolor" : [ 0.870588, 0.870588, 0.870588, 1.0 ],
					"triscale" : 0.9,
					"maximum" : 127,
					"fontsize" : 9.0,
					"bgcolor" : [ 0.866667, 0.866667, 0.866667, 1.0 ],
					"numinlets" : 1,
					"patching_rect" : [ 189.0, 270.0, 35.0, 17.0 ],
					"id" : "obj-40",
					"fontname" : "Arial",
					"numoutlets" : 2
				}

			}
, 			{
				"box" : 				{
					"maxclass" : "newobj",
					"text" : "ap 84",
					"hidden" : 1,
					"fontsize" : 9.0,
					"numinlets" : 1,
					"patching_rect" : [ 153.0, 287.0, 35.0, 17.0 ],
					"id" : "obj-41",
					"fontname" : "Arial",
					"numoutlets" : 0
				}

			}
, 			{
				"box" : 				{
					"maxclass" : "number",
					"format" : 4,
					"minimum" : 0,
					"outlettype" : [ "int", "bang" ],
					"htextcolor" : [ 0.870588, 0.870588, 0.870588, 1.0 ],
					"triscale" : 0.9,
					"maximum" : 127,
					"fontsize" : 9.0,
					"bgcolor" : [ 0.866667, 0.866667, 0.866667, 1.0 ],
					"numinlets" : 1,
					"patching_rect" : [ 153.0, 270.0, 35.0, 17.0 ],
					"id" : "obj-42",
					"fontname" : "Arial",
					"numoutlets" : 2
				}

			}
, 			{
				"box" : 				{
					"maxclass" : "newobj",
					"text" : "ap 83",
					"hidden" : 1,
					"fontsize" : 9.0,
					"numinlets" : 1,
					"patching_rect" : [ 111.0, 287.0, 35.0, 17.0 ],
					"id" : "obj-43",
					"fontname" : "Arial",
					"numoutlets" : 0
				}

			}
, 			{
				"box" : 				{
					"maxclass" : "number",
					"format" : 4,
					"minimum" : 0,
					"outlettype" : [ "int", "bang" ],
					"htextcolor" : [ 0.870588, 0.870588, 0.870588, 1.0 ],
					"triscale" : 0.9,
					"maximum" : 127,
					"fontsize" : 9.0,
					"bgcolor" : [ 0.866667, 0.866667, 0.866667, 1.0 ],
					"numinlets" : 1,
					"patching_rect" : [ 111.0, 270.0, 35.0, 17.0 ],
					"id" : "obj-44",
					"fontname" : "Arial",
					"numoutlets" : 2
				}

			}
, 			{
				"box" : 				{
					"maxclass" : "newobj",
					"text" : "ap 82",
					"hidden" : 1,
					"fontsize" : 9.0,
					"numinlets" : 1,
					"patching_rect" : [ 75.0, 287.0, 35.0, 17.0 ],
					"id" : "obj-45",
					"fontname" : "Arial",
					"numoutlets" : 0
				}

			}
, 			{
				"box" : 				{
					"maxclass" : "number",
					"format" : 4,
					"minimum" : 0,
					"outlettype" : [ "int", "bang" ],
					"htextcolor" : [ 0.870588, 0.870588, 0.870588, 1.0 ],
					"triscale" : 0.9,
					"maximum" : 127,
					"fontsize" : 9.0,
					"bgcolor" : [ 0.866667, 0.866667, 0.866667, 1.0 ],
					"numinlets" : 1,
					"patching_rect" : [ 75.0, 270.0, 35.0, 17.0 ],
					"id" : "obj-46",
					"fontname" : "Arial",
					"numoutlets" : 2
				}

			}
, 			{
				"box" : 				{
					"maxclass" : "newobj",
					"text" : "ap 81",
					"hidden" : 1,
					"fontsize" : 9.0,
					"numinlets" : 1,
					"patching_rect" : [ 39.0, 287.0, 35.0, 17.0 ],
					"id" : "obj-47",
					"fontname" : "Arial",
					"numoutlets" : 0
				}

			}
, 			{
				"box" : 				{
					"maxclass" : "number",
					"format" : 4,
					"minimum" : 0,
					"outlettype" : [ "int", "bang" ],
					"htextcolor" : [ 0.870588, 0.870588, 0.870588, 1.0 ],
					"triscale" : 0.9,
					"maximum" : 127,
					"fontsize" : 9.0,
					"bgcolor" : [ 0.866667, 0.866667, 0.866667, 1.0 ],
					"numinlets" : 1,
					"patching_rect" : [ 39.0, 270.0, 35.0, 17.0 ],
					"id" : "obj-48",
					"fontname" : "Arial",
					"numoutlets" : 2
				}

			}
, 			{
				"box" : 				{
					"maxclass" : "newobj",
					"text" : "ap 80",
					"hidden" : 1,
					"fontsize" : 9.0,
					"numinlets" : 1,
					"patching_rect" : [ 3.0, 287.0, 35.0, 17.0 ],
					"id" : "obj-49",
					"fontname" : "Arial",
					"numoutlets" : 0
				}

			}
, 			{
				"box" : 				{
					"maxclass" : "number",
					"format" : 4,
					"minimum" : 0,
					"outlettype" : [ "int", "bang" ],
					"htextcolor" : [ 0.870588, 0.870588, 0.870588, 1.0 ],
					"triscale" : 0.9,
					"maximum" : 127,
					"fontsize" : 9.0,
					"bgcolor" : [ 0.866667, 0.866667, 0.866667, 1.0 ],
					"numinlets" : 1,
					"patching_rect" : [ 3.0, 270.0, 35.0, 17.0 ],
					"id" : "obj-50",
					"fontname" : "Arial",
					"numoutlets" : 2
				}

			}
, 			{
				"box" : 				{
					"maxclass" : "newobj",
					"text" : "ap 71",
					"hidden" : 1,
					"fontsize" : 9.0,
					"numinlets" : 1,
					"patching_rect" : [ 261.0, 252.0, 35.0, 17.0 ],
					"id" : "obj-51",
					"fontname" : "Arial",
					"numoutlets" : 0
				}

			}
, 			{
				"box" : 				{
					"maxclass" : "number",
					"format" : 4,
					"minimum" : 0,
					"outlettype" : [ "int", "bang" ],
					"htextcolor" : [ 0.870588, 0.870588, 0.870588, 1.0 ],
					"triscale" : 0.9,
					"maximum" : 127,
					"fontsize" : 9.0,
					"bgcolor" : [ 0.866667, 0.866667, 0.866667, 1.0 ],
					"numinlets" : 1,
					"patching_rect" : [ 261.0, 235.0, 35.0, 17.0 ],
					"id" : "obj-52",
					"fontname" : "Arial",
					"numoutlets" : 2
				}

			}
, 			{
				"box" : 				{
					"maxclass" : "newobj",
					"text" : "ap 70",
					"hidden" : 1,
					"fontsize" : 9.0,
					"numinlets" : 1,
					"patching_rect" : [ 225.0, 252.0, 35.0, 17.0 ],
					"id" : "obj-53",
					"fontname" : "Arial",
					"numoutlets" : 0
				}

			}
, 			{
				"box" : 				{
					"maxclass" : "number",
					"format" : 4,
					"minimum" : 0,
					"outlettype" : [ "int", "bang" ],
					"htextcolor" : [ 0.870588, 0.870588, 0.870588, 1.0 ],
					"triscale" : 0.9,
					"maximum" : 127,
					"fontsize" : 9.0,
					"bgcolor" : [ 0.866667, 0.866667, 0.866667, 1.0 ],
					"numinlets" : 1,
					"patching_rect" : [ 225.0, 235.0, 35.0, 17.0 ],
					"id" : "obj-54",
					"fontname" : "Arial",
					"numoutlets" : 2
				}

			}
, 			{
				"box" : 				{
					"maxclass" : "newobj",
					"text" : "ap 69",
					"hidden" : 1,
					"fontsize" : 9.0,
					"numinlets" : 1,
					"patching_rect" : [ 189.0, 252.0, 35.0, 17.0 ],
					"id" : "obj-55",
					"fontname" : "Arial",
					"numoutlets" : 0
				}

			}
, 			{
				"box" : 				{
					"maxclass" : "number",
					"format" : 4,
					"minimum" : 0,
					"outlettype" : [ "int", "bang" ],
					"htextcolor" : [ 0.870588, 0.870588, 0.870588, 1.0 ],
					"triscale" : 0.9,
					"maximum" : 127,
					"fontsize" : 9.0,
					"bgcolor" : [ 0.866667, 0.866667, 0.866667, 1.0 ],
					"numinlets" : 1,
					"patching_rect" : [ 189.0, 235.0, 35.0, 17.0 ],
					"id" : "obj-56",
					"fontname" : "Arial",
					"numoutlets" : 2
				}

			}
, 			{
				"box" : 				{
					"maxclass" : "newobj",
					"text" : "ap 68",
					"hidden" : 1,
					"fontsize" : 9.0,
					"numinlets" : 1,
					"patching_rect" : [ 153.0, 252.0, 35.0, 17.0 ],
					"id" : "obj-57",
					"fontname" : "Arial",
					"numoutlets" : 0
				}

			}
, 			{
				"box" : 				{
					"maxclass" : "number",
					"format" : 4,
					"minimum" : 0,
					"outlettype" : [ "int", "bang" ],
					"htextcolor" : [ 0.870588, 0.870588, 0.870588, 1.0 ],
					"triscale" : 0.9,
					"maximum" : 127,
					"fontsize" : 9.0,
					"bgcolor" : [ 0.866667, 0.866667, 0.866667, 1.0 ],
					"numinlets" : 1,
					"patching_rect" : [ 153.0, 235.0, 35.0, 17.0 ],
					"id" : "obj-58",
					"fontname" : "Arial",
					"numoutlets" : 2
				}

			}
, 			{
				"box" : 				{
					"maxclass" : "newobj",
					"text" : "ap 67",
					"hidden" : 1,
					"fontsize" : 9.0,
					"numinlets" : 1,
					"patching_rect" : [ 111.0, 252.0, 35.0, 17.0 ],
					"id" : "obj-59",
					"fontname" : "Arial",
					"numoutlets" : 0
				}

			}
, 			{
				"box" : 				{
					"maxclass" : "number",
					"format" : 4,
					"minimum" : 0,
					"outlettype" : [ "int", "bang" ],
					"htextcolor" : [ 0.870588, 0.870588, 0.870588, 1.0 ],
					"triscale" : 0.9,
					"maximum" : 127,
					"fontsize" : 9.0,
					"bgcolor" : [ 0.866667, 0.866667, 0.866667, 1.0 ],
					"numinlets" : 1,
					"patching_rect" : [ 111.0, 235.0, 35.0, 17.0 ],
					"id" : "obj-60",
					"fontname" : "Arial",
					"numoutlets" : 2
				}

			}
, 			{
				"box" : 				{
					"maxclass" : "newobj",
					"text" : "ap 66",
					"hidden" : 1,
					"fontsize" : 9.0,
					"numinlets" : 1,
					"patching_rect" : [ 75.0, 252.0, 35.0, 17.0 ],
					"id" : "obj-61",
					"fontname" : "Arial",
					"numoutlets" : 0
				}

			}
, 			{
				"box" : 				{
					"maxclass" : "number",
					"format" : 4,
					"minimum" : 0,
					"outlettype" : [ "int", "bang" ],
					"htextcolor" : [ 0.870588, 0.870588, 0.870588, 1.0 ],
					"triscale" : 0.9,
					"maximum" : 127,
					"fontsize" : 9.0,
					"bgcolor" : [ 0.866667, 0.866667, 0.866667, 1.0 ],
					"numinlets" : 1,
					"patching_rect" : [ 75.0, 235.0, 35.0, 17.0 ],
					"id" : "obj-62",
					"fontname" : "Arial",
					"numoutlets" : 2
				}

			}
, 			{
				"box" : 				{
					"maxclass" : "newobj",
					"text" : "ap 65",
					"hidden" : 1,
					"fontsize" : 9.0,
					"numinlets" : 1,
					"patching_rect" : [ 39.0, 252.0, 35.0, 17.0 ],
					"id" : "obj-63",
					"fontname" : "Arial",
					"numoutlets" : 0
				}

			}
, 			{
				"box" : 				{
					"maxclass" : "number",
					"format" : 4,
					"minimum" : 0,
					"outlettype" : [ "int", "bang" ],
					"htextcolor" : [ 0.870588, 0.870588, 0.870588, 1.0 ],
					"triscale" : 0.9,
					"maximum" : 127,
					"fontsize" : 9.0,
					"bgcolor" : [ 0.866667, 0.866667, 0.866667, 1.0 ],
					"numinlets" : 1,
					"patching_rect" : [ 39.0, 235.0, 35.0, 17.0 ],
					"id" : "obj-64",
					"fontname" : "Arial",
					"numoutlets" : 2
				}

			}
, 			{
				"box" : 				{
					"maxclass" : "newobj",
					"text" : "ap 64",
					"hidden" : 1,
					"fontsize" : 9.0,
					"numinlets" : 1,
					"patching_rect" : [ 3.0, 252.0, 35.0, 17.0 ],
					"id" : "obj-65",
					"fontname" : "Arial",
					"numoutlets" : 0
				}

			}
, 			{
				"box" : 				{
					"maxclass" : "number",
					"format" : 4,
					"minimum" : 0,
					"outlettype" : [ "int", "bang" ],
					"htextcolor" : [ 0.870588, 0.870588, 0.870588, 1.0 ],
					"triscale" : 0.9,
					"maximum" : 127,
					"fontsize" : 9.0,
					"bgcolor" : [ 0.866667, 0.866667, 0.866667, 1.0 ],
					"numinlets" : 1,
					"patching_rect" : [ 3.0, 235.0, 35.0, 17.0 ],
					"id" : "obj-66",
					"fontname" : "Arial",
					"numoutlets" : 2
				}

			}
, 			{
				"box" : 				{
					"maxclass" : "newobj",
					"text" : "ap 55",
					"hidden" : 1,
					"fontsize" : 9.0,
					"numinlets" : 1,
					"patching_rect" : [ 261.0, 208.0, 35.0, 17.0 ],
					"id" : "obj-67",
					"fontname" : "Arial",
					"numoutlets" : 0
				}

			}
, 			{
				"box" : 				{
					"maxclass" : "number",
					"format" : 4,
					"minimum" : 0,
					"outlettype" : [ "int", "bang" ],
					"htextcolor" : [ 0.870588, 0.870588, 0.870588, 1.0 ],
					"triscale" : 0.9,
					"maximum" : 127,
					"fontsize" : 9.0,
					"bgcolor" : [ 0.866667, 0.866667, 0.866667, 1.0 ],
					"numinlets" : 1,
					"patching_rect" : [ 261.0, 191.0, 35.0, 17.0 ],
					"id" : "obj-68",
					"fontname" : "Arial",
					"numoutlets" : 2
				}

			}
, 			{
				"box" : 				{
					"maxclass" : "newobj",
					"text" : "ap 54",
					"hidden" : 1,
					"fontsize" : 9.0,
					"numinlets" : 1,
					"patching_rect" : [ 225.0, 208.0, 35.0, 17.0 ],
					"id" : "obj-69",
					"fontname" : "Arial",
					"numoutlets" : 0
				}

			}
, 			{
				"box" : 				{
					"maxclass" : "number",
					"format" : 4,
					"minimum" : 0,
					"outlettype" : [ "int", "bang" ],
					"htextcolor" : [ 0.870588, 0.870588, 0.870588, 1.0 ],
					"triscale" : 0.9,
					"maximum" : 127,
					"fontsize" : 9.0,
					"bgcolor" : [ 0.866667, 0.866667, 0.866667, 1.0 ],
					"numinlets" : 1,
					"patching_rect" : [ 225.0, 191.0, 35.0, 17.0 ],
					"id" : "obj-70",
					"fontname" : "Arial",
					"numoutlets" : 2
				}

			}
, 			{
				"box" : 				{
					"maxclass" : "newobj",
					"text" : "ap 53",
					"hidden" : 1,
					"fontsize" : 9.0,
					"numinlets" : 1,
					"patching_rect" : [ 189.0, 208.0, 35.0, 17.0 ],
					"id" : "obj-71",
					"fontname" : "Arial",
					"numoutlets" : 0
				}

			}
, 			{
				"box" : 				{
					"maxclass" : "number",
					"format" : 4,
					"minimum" : 0,
					"outlettype" : [ "int", "bang" ],
					"htextcolor" : [ 0.870588, 0.870588, 0.870588, 1.0 ],
					"triscale" : 0.9,
					"maximum" : 127,
					"fontsize" : 9.0,
					"bgcolor" : [ 0.866667, 0.866667, 0.866667, 1.0 ],
					"numinlets" : 1,
					"patching_rect" : [ 189.0, 191.0, 35.0, 17.0 ],
					"id" : "obj-72",
					"fontname" : "Arial",
					"numoutlets" : 2
				}

			}
, 			{
				"box" : 				{
					"maxclass" : "newobj",
					"text" : "ap 52",
					"hidden" : 1,
					"fontsize" : 9.0,
					"numinlets" : 1,
					"patching_rect" : [ 153.0, 208.0, 35.0, 17.0 ],
					"id" : "obj-73",
					"fontname" : "Arial",
					"numoutlets" : 0
				}

			}
, 			{
				"box" : 				{
					"maxclass" : "number",
					"format" : 4,
					"minimum" : 0,
					"outlettype" : [ "int", "bang" ],
					"htextcolor" : [ 0.870588, 0.870588, 0.870588, 1.0 ],
					"triscale" : 0.9,
					"maximum" : 127,
					"fontsize" : 9.0,
					"bgcolor" : [ 0.866667, 0.866667, 0.866667, 1.0 ],
					"numinlets" : 1,
					"patching_rect" : [ 153.0, 191.0, 35.0, 17.0 ],
					"id" : "obj-74",
					"fontname" : "Arial",
					"numoutlets" : 2
				}

			}
, 			{
				"box" : 				{
					"maxclass" : "newobj",
					"text" : "ap 51",
					"hidden" : 1,
					"fontsize" : 9.0,
					"numinlets" : 1,
					"patching_rect" : [ 111.0, 208.0, 35.0, 17.0 ],
					"id" : "obj-75",
					"fontname" : "Arial",
					"numoutlets" : 0
				}

			}
, 			{
				"box" : 				{
					"maxclass" : "number",
					"format" : 4,
					"minimum" : 0,
					"outlettype" : [ "int", "bang" ],
					"htextcolor" : [ 0.870588, 0.870588, 0.870588, 1.0 ],
					"triscale" : 0.9,
					"maximum" : 127,
					"fontsize" : 9.0,
					"bgcolor" : [ 0.866667, 0.866667, 0.866667, 1.0 ],
					"numinlets" : 1,
					"patching_rect" : [ 111.0, 191.0, 35.0, 17.0 ],
					"id" : "obj-76",
					"fontname" : "Arial",
					"numoutlets" : 2
				}

			}
, 			{
				"box" : 				{
					"maxclass" : "newobj",
					"text" : "ap 50",
					"hidden" : 1,
					"fontsize" : 9.0,
					"numinlets" : 1,
					"patching_rect" : [ 75.0, 208.0, 35.0, 17.0 ],
					"id" : "obj-77",
					"fontname" : "Arial",
					"numoutlets" : 0
				}

			}
, 			{
				"box" : 				{
					"maxclass" : "number",
					"format" : 4,
					"minimum" : 0,
					"outlettype" : [ "int", "bang" ],
					"htextcolor" : [ 0.870588, 0.870588, 0.870588, 1.0 ],
					"triscale" : 0.9,
					"maximum" : 127,
					"fontsize" : 9.0,
					"bgcolor" : [ 0.866667, 0.866667, 0.866667, 1.0 ],
					"numinlets" : 1,
					"patching_rect" : [ 75.0, 191.0, 35.0, 17.0 ],
					"id" : "obj-78",
					"fontname" : "Arial",
					"numoutlets" : 2
				}

			}
, 			{
				"box" : 				{
					"maxclass" : "newobj",
					"text" : "ap 49",
					"hidden" : 1,
					"fontsize" : 9.0,
					"numinlets" : 1,
					"patching_rect" : [ 39.0, 208.0, 35.0, 17.0 ],
					"id" : "obj-79",
					"fontname" : "Arial",
					"numoutlets" : 0
				}

			}
, 			{
				"box" : 				{
					"maxclass" : "number",
					"format" : 4,
					"minimum" : 0,
					"outlettype" : [ "int", "bang" ],
					"htextcolor" : [ 0.870588, 0.870588, 0.870588, 1.0 ],
					"triscale" : 0.9,
					"maximum" : 127,
					"fontsize" : 9.0,
					"bgcolor" : [ 0.866667, 0.866667, 0.866667, 1.0 ],
					"numinlets" : 1,
					"patching_rect" : [ 39.0, 191.0, 35.0, 17.0 ],
					"id" : "obj-80",
					"fontname" : "Arial",
					"numoutlets" : 2
				}

			}
, 			{
				"box" : 				{
					"maxclass" : "newobj",
					"text" : "ap 48",
					"hidden" : 1,
					"fontsize" : 9.0,
					"numinlets" : 1,
					"patching_rect" : [ 3.0, 208.0, 35.0, 17.0 ],
					"id" : "obj-81",
					"fontname" : "Arial",
					"numoutlets" : 0
				}

			}
, 			{
				"box" : 				{
					"maxclass" : "number",
					"format" : 4,
					"minimum" : 0,
					"outlettype" : [ "int", "bang" ],
					"htextcolor" : [ 0.870588, 0.870588, 0.870588, 1.0 ],
					"triscale" : 0.9,
					"maximum" : 127,
					"fontsize" : 9.0,
					"bgcolor" : [ 0.866667, 0.866667, 0.866667, 1.0 ],
					"numinlets" : 1,
					"patching_rect" : [ 3.0, 191.0, 35.0, 17.0 ],
					"id" : "obj-82",
					"fontname" : "Arial",
					"numoutlets" : 2
				}

			}
, 			{
				"box" : 				{
					"maxclass" : "newobj",
					"text" : "ap 39",
					"hidden" : 1,
					"fontsize" : 9.0,
					"numinlets" : 1,
					"patching_rect" : [ 261.0, 173.0, 35.0, 17.0 ],
					"id" : "obj-83",
					"fontname" : "Arial",
					"numoutlets" : 0
				}

			}
, 			{
				"box" : 				{
					"maxclass" : "number",
					"format" : 4,
					"minimum" : 0,
					"outlettype" : [ "int", "bang" ],
					"htextcolor" : [ 0.870588, 0.870588, 0.870588, 1.0 ],
					"triscale" : 0.9,
					"maximum" : 127,
					"fontsize" : 9.0,
					"bgcolor" : [ 0.866667, 0.866667, 0.866667, 1.0 ],
					"numinlets" : 1,
					"patching_rect" : [ 261.0, 156.0, 35.0, 17.0 ],
					"id" : "obj-84",
					"fontname" : "Arial",
					"numoutlets" : 2
				}

			}
, 			{
				"box" : 				{
					"maxclass" : "newobj",
					"text" : "ap 38",
					"hidden" : 1,
					"fontsize" : 9.0,
					"numinlets" : 1,
					"patching_rect" : [ 225.0, 173.0, 35.0, 17.0 ],
					"id" : "obj-85",
					"fontname" : "Arial",
					"numoutlets" : 0
				}

			}
, 			{
				"box" : 				{
					"maxclass" : "number",
					"format" : 4,
					"minimum" : 0,
					"outlettype" : [ "int", "bang" ],
					"htextcolor" : [ 0.870588, 0.870588, 0.870588, 1.0 ],
					"triscale" : 0.9,
					"maximum" : 127,
					"fontsize" : 9.0,
					"bgcolor" : [ 0.866667, 0.866667, 0.866667, 1.0 ],
					"numinlets" : 1,
					"patching_rect" : [ 225.0, 156.0, 35.0, 17.0 ],
					"id" : "obj-86",
					"fontname" : "Arial",
					"numoutlets" : 2
				}

			}
, 			{
				"box" : 				{
					"maxclass" : "newobj",
					"text" : "ap 37",
					"hidden" : 1,
					"fontsize" : 9.0,
					"numinlets" : 1,
					"patching_rect" : [ 189.0, 173.0, 35.0, 17.0 ],
					"id" : "obj-87",
					"fontname" : "Arial",
					"numoutlets" : 0
				}

			}
, 			{
				"box" : 				{
					"maxclass" : "number",
					"format" : 4,
					"minimum" : 0,
					"outlettype" : [ "int", "bang" ],
					"htextcolor" : [ 0.870588, 0.870588, 0.870588, 1.0 ],
					"triscale" : 0.9,
					"maximum" : 127,
					"fontsize" : 9.0,
					"bgcolor" : [ 0.866667, 0.866667, 0.866667, 1.0 ],
					"numinlets" : 1,
					"patching_rect" : [ 189.0, 156.0, 35.0, 17.0 ],
					"id" : "obj-88",
					"fontname" : "Arial",
					"numoutlets" : 2
				}

			}
, 			{
				"box" : 				{
					"maxclass" : "newobj",
					"text" : "ap 36",
					"hidden" : 1,
					"fontsize" : 9.0,
					"numinlets" : 1,
					"patching_rect" : [ 153.0, 173.0, 35.0, 17.0 ],
					"id" : "obj-89",
					"fontname" : "Arial",
					"numoutlets" : 0
				}

			}
, 			{
				"box" : 				{
					"maxclass" : "number",
					"format" : 4,
					"minimum" : 0,
					"outlettype" : [ "int", "bang" ],
					"htextcolor" : [ 0.870588, 0.870588, 0.870588, 1.0 ],
					"triscale" : 0.9,
					"maximum" : 127,
					"fontsize" : 9.0,
					"bgcolor" : [ 0.866667, 0.866667, 0.866667, 1.0 ],
					"numinlets" : 1,
					"patching_rect" : [ 153.0, 156.0, 35.0, 17.0 ],
					"id" : "obj-90",
					"fontname" : "Arial",
					"numoutlets" : 2
				}

			}
, 			{
				"box" : 				{
					"maxclass" : "newobj",
					"text" : "ap 35",
					"hidden" : 1,
					"fontsize" : 9.0,
					"numinlets" : 1,
					"patching_rect" : [ 111.0, 173.0, 35.0, 17.0 ],
					"id" : "obj-91",
					"fontname" : "Arial",
					"numoutlets" : 0
				}

			}
, 			{
				"box" : 				{
					"maxclass" : "number",
					"format" : 4,
					"minimum" : 0,
					"outlettype" : [ "int", "bang" ],
					"htextcolor" : [ 0.870588, 0.870588, 0.870588, 1.0 ],
					"triscale" : 0.9,
					"maximum" : 127,
					"fontsize" : 9.0,
					"bgcolor" : [ 0.866667, 0.866667, 0.866667, 1.0 ],
					"numinlets" : 1,
					"patching_rect" : [ 111.0, 156.0, 35.0, 17.0 ],
					"id" : "obj-92",
					"fontname" : "Arial",
					"numoutlets" : 2
				}

			}
, 			{
				"box" : 				{
					"maxclass" : "newobj",
					"text" : "ap 34",
					"hidden" : 1,
					"fontsize" : 9.0,
					"numinlets" : 1,
					"patching_rect" : [ 75.0, 173.0, 35.0, 17.0 ],
					"id" : "obj-93",
					"fontname" : "Arial",
					"numoutlets" : 0
				}

			}
, 			{
				"box" : 				{
					"maxclass" : "number",
					"format" : 4,
					"minimum" : 0,
					"outlettype" : [ "int", "bang" ],
					"htextcolor" : [ 0.870588, 0.870588, 0.870588, 1.0 ],
					"triscale" : 0.9,
					"maximum" : 127,
					"fontsize" : 9.0,
					"bgcolor" : [ 0.866667, 0.866667, 0.866667, 1.0 ],
					"numinlets" : 1,
					"patching_rect" : [ 75.0, 156.0, 35.0, 17.0 ],
					"id" : "obj-94",
					"fontname" : "Arial",
					"numoutlets" : 2
				}

			}
, 			{
				"box" : 				{
					"maxclass" : "newobj",
					"text" : "ap 33",
					"hidden" : 1,
					"fontsize" : 9.0,
					"numinlets" : 1,
					"patching_rect" : [ 39.0, 173.0, 35.0, 17.0 ],
					"id" : "obj-95",
					"fontname" : "Arial",
					"numoutlets" : 0
				}

			}
, 			{
				"box" : 				{
					"maxclass" : "number",
					"format" : 4,
					"minimum" : 0,
					"outlettype" : [ "int", "bang" ],
					"htextcolor" : [ 0.870588, 0.870588, 0.870588, 1.0 ],
					"triscale" : 0.9,
					"maximum" : 127,
					"fontsize" : 9.0,
					"bgcolor" : [ 0.866667, 0.866667, 0.866667, 1.0 ],
					"numinlets" : 1,
					"patching_rect" : [ 39.0, 156.0, 35.0, 17.0 ],
					"id" : "obj-96",
					"fontname" : "Arial",
					"numoutlets" : 2
				}

			}
, 			{
				"box" : 				{
					"maxclass" : "newobj",
					"text" : "ap 32",
					"hidden" : 1,
					"fontsize" : 9.0,
					"numinlets" : 1,
					"patching_rect" : [ 3.0, 173.0, 35.0, 17.0 ],
					"id" : "obj-97",
					"fontname" : "Arial",
					"numoutlets" : 0
				}

			}
, 			{
				"box" : 				{
					"maxclass" : "number",
					"format" : 4,
					"minimum" : 0,
					"outlettype" : [ "int", "bang" ],
					"htextcolor" : [ 0.870588, 0.870588, 0.870588, 1.0 ],
					"triscale" : 0.9,
					"maximum" : 127,
					"fontsize" : 9.0,
					"bgcolor" : [ 0.866667, 0.866667, 0.866667, 1.0 ],
					"numinlets" : 1,
					"patching_rect" : [ 3.0, 156.0, 35.0, 17.0 ],
					"id" : "obj-98",
					"fontname" : "Arial",
					"numoutlets" : 2
				}

			}
, 			{
				"box" : 				{
					"maxclass" : "newobj",
					"text" : "ap 23",
					"hidden" : 1,
					"fontsize" : 9.0,
					"numinlets" : 1,
					"patching_rect" : [ 261.0, 138.0, 35.0, 17.0 ],
					"id" : "obj-99",
					"fontname" : "Arial",
					"numoutlets" : 0
				}

			}
, 			{
				"box" : 				{
					"maxclass" : "number",
					"format" : 4,
					"minimum" : 0,
					"outlettype" : [ "int", "bang" ],
					"htextcolor" : [ 0.870588, 0.870588, 0.870588, 1.0 ],
					"triscale" : 0.9,
					"maximum" : 127,
					"fontsize" : 9.0,
					"bgcolor" : [ 0.866667, 0.866667, 0.866667, 1.0 ],
					"numinlets" : 1,
					"patching_rect" : [ 261.0, 121.0, 35.0, 17.0 ],
					"id" : "obj-100",
					"fontname" : "Arial",
					"numoutlets" : 2
				}

			}
, 			{
				"box" : 				{
					"maxclass" : "newobj",
					"text" : "ap 22",
					"hidden" : 1,
					"fontsize" : 9.0,
					"numinlets" : 1,
					"patching_rect" : [ 225.0, 138.0, 35.0, 17.0 ],
					"id" : "obj-101",
					"fontname" : "Arial",
					"numoutlets" : 0
				}

			}
, 			{
				"box" : 				{
					"maxclass" : "number",
					"format" : 4,
					"minimum" : 0,
					"outlettype" : [ "int", "bang" ],
					"htextcolor" : [ 0.870588, 0.870588, 0.870588, 1.0 ],
					"triscale" : 0.9,
					"maximum" : 127,
					"fontsize" : 9.0,
					"bgcolor" : [ 0.866667, 0.866667, 0.866667, 1.0 ],
					"numinlets" : 1,
					"patching_rect" : [ 225.0, 121.0, 35.0, 17.0 ],
					"id" : "obj-102",
					"fontname" : "Arial",
					"numoutlets" : 2
				}

			}
, 			{
				"box" : 				{
					"maxclass" : "newobj",
					"text" : "ap 21",
					"hidden" : 1,
					"fontsize" : 9.0,
					"numinlets" : 1,
					"patching_rect" : [ 189.0, 138.0, 35.0, 17.0 ],
					"id" : "obj-103",
					"fontname" : "Arial",
					"numoutlets" : 0
				}

			}
, 			{
				"box" : 				{
					"maxclass" : "number",
					"format" : 4,
					"minimum" : 0,
					"outlettype" : [ "int", "bang" ],
					"htextcolor" : [ 0.870588, 0.870588, 0.870588, 1.0 ],
					"triscale" : 0.9,
					"maximum" : 127,
					"fontsize" : 9.0,
					"bgcolor" : [ 0.866667, 0.866667, 0.866667, 1.0 ],
					"numinlets" : 1,
					"patching_rect" : [ 189.0, 121.0, 35.0, 17.0 ],
					"id" : "obj-104",
					"fontname" : "Arial",
					"numoutlets" : 2
				}

			}
, 			{
				"box" : 				{
					"maxclass" : "newobj",
					"text" : "ap 20",
					"hidden" : 1,
					"fontsize" : 9.0,
					"numinlets" : 1,
					"patching_rect" : [ 153.0, 138.0, 35.0, 17.0 ],
					"id" : "obj-105",
					"fontname" : "Arial",
					"numoutlets" : 0
				}

			}
, 			{
				"box" : 				{
					"maxclass" : "number",
					"format" : 4,
					"minimum" : 0,
					"outlettype" : [ "int", "bang" ],
					"htextcolor" : [ 0.870588, 0.870588, 0.870588, 1.0 ],
					"triscale" : 0.9,
					"maximum" : 127,
					"fontsize" : 9.0,
					"bgcolor" : [ 0.866667, 0.866667, 0.866667, 1.0 ],
					"numinlets" : 1,
					"patching_rect" : [ 153.0, 121.0, 35.0, 17.0 ],
					"id" : "obj-106",
					"fontname" : "Arial",
					"numoutlets" : 2
				}

			}
, 			{
				"box" : 				{
					"maxclass" : "newobj",
					"text" : "ap 19",
					"hidden" : 1,
					"fontsize" : 9.0,
					"numinlets" : 1,
					"patching_rect" : [ 111.0, 138.0, 35.0, 17.0 ],
					"id" : "obj-107",
					"fontname" : "Arial",
					"numoutlets" : 0
				}

			}
, 			{
				"box" : 				{
					"maxclass" : "number",
					"format" : 4,
					"minimum" : 0,
					"outlettype" : [ "int", "bang" ],
					"htextcolor" : [ 0.870588, 0.870588, 0.870588, 1.0 ],
					"triscale" : 0.9,
					"maximum" : 127,
					"fontsize" : 9.0,
					"bgcolor" : [ 0.866667, 0.866667, 0.866667, 1.0 ],
					"numinlets" : 1,
					"patching_rect" : [ 111.0, 121.0, 35.0, 17.0 ],
					"id" : "obj-108",
					"fontname" : "Arial",
					"numoutlets" : 2
				}

			}
, 			{
				"box" : 				{
					"maxclass" : "newobj",
					"text" : "ap 18",
					"hidden" : 1,
					"fontsize" : 9.0,
					"numinlets" : 1,
					"patching_rect" : [ 75.0, 138.0, 35.0, 17.0 ],
					"id" : "obj-109",
					"fontname" : "Arial",
					"numoutlets" : 0
				}

			}
, 			{
				"box" : 				{
					"maxclass" : "number",
					"format" : 4,
					"minimum" : 0,
					"outlettype" : [ "int", "bang" ],
					"htextcolor" : [ 0.870588, 0.870588, 0.870588, 1.0 ],
					"triscale" : 0.9,
					"maximum" : 127,
					"fontsize" : 9.0,
					"bgcolor" : [ 0.866667, 0.866667, 0.866667, 1.0 ],
					"numinlets" : 1,
					"patching_rect" : [ 75.0, 121.0, 35.0, 17.0 ],
					"id" : "obj-110",
					"fontname" : "Arial",
					"numoutlets" : 2
				}

			}
, 			{
				"box" : 				{
					"maxclass" : "newobj",
					"text" : "ap 17",
					"hidden" : 1,
					"fontsize" : 9.0,
					"numinlets" : 1,
					"patching_rect" : [ 39.0, 138.0, 35.0, 17.0 ],
					"id" : "obj-111",
					"fontname" : "Arial",
					"numoutlets" : 0
				}

			}
, 			{
				"box" : 				{
					"maxclass" : "number",
					"format" : 4,
					"minimum" : 0,
					"outlettype" : [ "int", "bang" ],
					"htextcolor" : [ 0.870588, 0.870588, 0.870588, 1.0 ],
					"triscale" : 0.9,
					"maximum" : 127,
					"fontsize" : 9.0,
					"bgcolor" : [ 0.866667, 0.866667, 0.866667, 1.0 ],
					"numinlets" : 1,
					"patching_rect" : [ 39.0, 121.0, 35.0, 17.0 ],
					"id" : "obj-112",
					"fontname" : "Arial",
					"numoutlets" : 2
				}

			}
, 			{
				"box" : 				{
					"maxclass" : "newobj",
					"text" : "ap 16",
					"hidden" : 1,
					"fontsize" : 9.0,
					"numinlets" : 1,
					"patching_rect" : [ 3.0, 138.0, 35.0, 17.0 ],
					"id" : "obj-113",
					"fontname" : "Arial",
					"numoutlets" : 0
				}

			}
, 			{
				"box" : 				{
					"maxclass" : "number",
					"format" : 4,
					"minimum" : 0,
					"outlettype" : [ "int", "bang" ],
					"htextcolor" : [ 0.870588, 0.870588, 0.870588, 1.0 ],
					"triscale" : 0.9,
					"maximum" : 127,
					"fontsize" : 9.0,
					"bgcolor" : [ 0.866667, 0.866667, 0.866667, 1.0 ],
					"numinlets" : 1,
					"patching_rect" : [ 3.0, 121.0, 35.0, 17.0 ],
					"id" : "obj-114",
					"fontname" : "Arial",
					"numoutlets" : 2
				}

			}
, 			{
				"box" : 				{
					"maxclass" : "newobj",
					"text" : "ap 7",
					"hidden" : 1,
					"fontsize" : 9.0,
					"numinlets" : 1,
					"patching_rect" : [ 261.0, 103.0, 29.0, 17.0 ],
					"id" : "obj-115",
					"fontname" : "Arial",
					"numoutlets" : 0
				}

			}
, 			{
				"box" : 				{
					"maxclass" : "number",
					"format" : 4,
					"minimum" : 0,
					"outlettype" : [ "int", "bang" ],
					"htextcolor" : [ 0.870588, 0.870588, 0.870588, 1.0 ],
					"triscale" : 0.9,
					"maximum" : 127,
					"fontsize" : 9.0,
					"bgcolor" : [ 0.866667, 0.866667, 0.866667, 1.0 ],
					"numinlets" : 1,
					"patching_rect" : [ 261.0, 86.0, 35.0, 17.0 ],
					"id" : "obj-116",
					"fontname" : "Arial",
					"numoutlets" : 2
				}

			}
, 			{
				"box" : 				{
					"maxclass" : "newobj",
					"text" : "ap 6",
					"hidden" : 1,
					"fontsize" : 9.0,
					"numinlets" : 1,
					"patching_rect" : [ 225.0, 103.0, 29.0, 17.0 ],
					"id" : "obj-117",
					"fontname" : "Arial",
					"numoutlets" : 0
				}

			}
, 			{
				"box" : 				{
					"maxclass" : "number",
					"format" : 4,
					"minimum" : 0,
					"outlettype" : [ "int", "bang" ],
					"htextcolor" : [ 0.870588, 0.870588, 0.870588, 1.0 ],
					"triscale" : 0.9,
					"maximum" : 127,
					"fontsize" : 9.0,
					"bgcolor" : [ 0.866667, 0.866667, 0.866667, 1.0 ],
					"numinlets" : 1,
					"patching_rect" : [ 225.0, 86.0, 35.0, 17.0 ],
					"id" : "obj-118",
					"fontname" : "Arial",
					"numoutlets" : 2
				}

			}
, 			{
				"box" : 				{
					"maxclass" : "newobj",
					"text" : "ap 5",
					"hidden" : 1,
					"fontsize" : 9.0,
					"numinlets" : 1,
					"patching_rect" : [ 189.0, 103.0, 29.0, 17.0 ],
					"id" : "obj-119",
					"fontname" : "Arial",
					"numoutlets" : 0
				}

			}
, 			{
				"box" : 				{
					"maxclass" : "number",
					"format" : 4,
					"minimum" : 0,
					"outlettype" : [ "int", "bang" ],
					"htextcolor" : [ 0.870588, 0.870588, 0.870588, 1.0 ],
					"triscale" : 0.9,
					"maximum" : 127,
					"fontsize" : 9.0,
					"bgcolor" : [ 0.866667, 0.866667, 0.866667, 1.0 ],
					"numinlets" : 1,
					"patching_rect" : [ 189.0, 86.0, 35.0, 17.0 ],
					"id" : "obj-120",
					"fontname" : "Arial",
					"numoutlets" : 2
				}

			}
, 			{
				"box" : 				{
					"maxclass" : "newobj",
					"text" : "ap 4",
					"hidden" : 1,
					"fontsize" : 9.0,
					"numinlets" : 1,
					"patching_rect" : [ 153.0, 103.0, 29.0, 17.0 ],
					"id" : "obj-121",
					"fontname" : "Arial",
					"numoutlets" : 0
				}

			}
, 			{
				"box" : 				{
					"maxclass" : "number",
					"format" : 4,
					"minimum" : 0,
					"outlettype" : [ "int", "bang" ],
					"htextcolor" : [ 0.870588, 0.870588, 0.870588, 1.0 ],
					"triscale" : 0.9,
					"maximum" : 127,
					"fontsize" : 9.0,
					"bgcolor" : [ 0.866667, 0.866667, 0.866667, 1.0 ],
					"numinlets" : 1,
					"patching_rect" : [ 153.0, 86.0, 35.0, 17.0 ],
					"id" : "obj-122",
					"fontname" : "Arial",
					"numoutlets" : 2
				}

			}
, 			{
				"box" : 				{
					"maxclass" : "newobj",
					"text" : "ap 3",
					"hidden" : 1,
					"fontsize" : 9.0,
					"numinlets" : 1,
					"patching_rect" : [ 111.0, 103.0, 29.0, 17.0 ],
					"id" : "obj-123",
					"fontname" : "Arial",
					"numoutlets" : 0
				}

			}
, 			{
				"box" : 				{
					"maxclass" : "number",
					"format" : 4,
					"minimum" : 0,
					"outlettype" : [ "int", "bang" ],
					"htextcolor" : [ 0.870588, 0.870588, 0.870588, 1.0 ],
					"triscale" : 0.9,
					"maximum" : 127,
					"fontsize" : 9.0,
					"bgcolor" : [ 0.866667, 0.866667, 0.866667, 1.0 ],
					"numinlets" : 1,
					"patching_rect" : [ 111.0, 86.0, 35.0, 17.0 ],
					"id" : "obj-124",
					"fontname" : "Arial",
					"numoutlets" : 2
				}

			}
, 			{
				"box" : 				{
					"maxclass" : "newobj",
					"text" : "ap 2",
					"hidden" : 1,
					"fontsize" : 9.0,
					"numinlets" : 1,
					"patching_rect" : [ 75.0, 103.0, 29.0, 17.0 ],
					"id" : "obj-125",
					"fontname" : "Arial",
					"numoutlets" : 0
				}

			}
, 			{
				"box" : 				{
					"maxclass" : "number",
					"format" : 4,
					"minimum" : 0,
					"outlettype" : [ "int", "bang" ],
					"htextcolor" : [ 0.870588, 0.870588, 0.870588, 1.0 ],
					"triscale" : 0.9,
					"maximum" : 127,
					"fontsize" : 9.0,
					"bgcolor" : [ 0.866667, 0.866667, 0.866667, 1.0 ],
					"numinlets" : 1,
					"patching_rect" : [ 75.0, 86.0, 35.0, 17.0 ],
					"id" : "obj-126",
					"fontname" : "Arial",
					"numoutlets" : 2
				}

			}
, 			{
				"box" : 				{
					"maxclass" : "newobj",
					"text" : "ap 1",
					"hidden" : 1,
					"fontsize" : 9.0,
					"numinlets" : 1,
					"patching_rect" : [ 39.0, 103.0, 29.0, 17.0 ],
					"id" : "obj-127",
					"fontname" : "Arial",
					"numoutlets" : 0
				}

			}
, 			{
				"box" : 				{
					"maxclass" : "number",
					"format" : 4,
					"minimum" : 0,
					"outlettype" : [ "int", "bang" ],
					"htextcolor" : [ 0.870588, 0.870588, 0.870588, 1.0 ],
					"triscale" : 0.9,
					"maximum" : 127,
					"fontsize" : 9.0,
					"bgcolor" : [ 0.866667, 0.866667, 0.866667, 1.0 ],
					"numinlets" : 1,
					"patching_rect" : [ 39.0, 86.0, 35.0, 17.0 ],
					"id" : "obj-128",
					"fontname" : "Arial",
					"numoutlets" : 2
				}

			}
, 			{
				"box" : 				{
					"maxclass" : "newobj",
					"text" : "r arbmappg",
					"outlettype" : [ "" ],
					"hidden" : 1,
					"fontsize" : 9.0,
					"numinlets" : 0,
					"patching_rect" : [ 181.0, 24.0, 61.0, 17.0 ],
					"id" : "obj-129",
					"fontname" : "Arial",
					"numoutlets" : 1
				}

			}
, 			{
				"box" : 				{
					"maxclass" : "newobj",
					"text" : "ap 0",
					"hidden" : 1,
					"fontsize" : 9.0,
					"numinlets" : 1,
					"patching_rect" : [ 3.0, 103.0, 29.0, 17.0 ],
					"id" : "obj-130",
					"fontname" : "Arial",
					"numoutlets" : 0
				}

			}
, 			{
				"box" : 				{
					"maxclass" : "number",
					"format" : 4,
					"minimum" : 0,
					"outlettype" : [ "int", "bang" ],
					"htextcolor" : [ 0.870588, 0.870588, 0.870588, 1.0 ],
					"triscale" : 0.9,
					"maximum" : 127,
					"fontsize" : 9.0,
					"bgcolor" : [ 0.866667, 0.866667, 0.866667, 1.0 ],
					"numinlets" : 1,
					"patching_rect" : [ 3.0, 86.0, 35.0, 17.0 ],
					"id" : "obj-131",
					"fontname" : "Arial",
					"numoutlets" : 2
				}

			}
, 			{
				"box" : 				{
					"maxclass" : "newobj",
					"text" : "coll arbmap",
					"outlettype" : [ "", "", "", "" ],
					"hidden" : 1,
					"fontsize" : 9.0,
					"numinlets" : 1,
					"patching_rect" : [ 181.0, 48.0, 62.0, 17.0 ],
					"id" : "obj-132",
					"fontname" : "Arial",
					"numoutlets" : 4,
					"saved_object_attributes" : 					{
						"embed" : 0
					}

				}

			}
 ],
		"lines" : [ 			{
				"patchline" : 				{
					"source" : [ "obj-4", 0 ],
					"destination" : [ "obj-3", 0 ],
					"hidden" : 1,
					"midpoints" : [  ]
				}

			}
, 			{
				"patchline" : 				{
					"source" : [ "obj-20", 0 ],
					"destination" : [ "obj-19", 0 ],
					"hidden" : 1,
					"midpoints" : [  ]
				}

			}
, 			{
				"patchline" : 				{
					"source" : [ "obj-36", 0 ],
					"destination" : [ "obj-35", 0 ],
					"hidden" : 1,
					"midpoints" : [  ]
				}

			}
, 			{
				"patchline" : 				{
					"source" : [ "obj-52", 0 ],
					"destination" : [ "obj-51", 0 ],
					"hidden" : 1,
					"midpoints" : [  ]
				}

			}
, 			{
				"patchline" : 				{
					"source" : [ "obj-68", 0 ],
					"destination" : [ "obj-67", 0 ],
					"hidden" : 1,
					"midpoints" : [  ]
				}

			}
, 			{
				"patchline" : 				{
					"source" : [ "obj-84", 0 ],
					"destination" : [ "obj-83", 0 ],
					"hidden" : 1,
					"midpoints" : [  ]
				}

			}
, 			{
				"patchline" : 				{
					"source" : [ "obj-100", 0 ],
					"destination" : [ "obj-99", 0 ],
					"hidden" : 1,
					"midpoints" : [  ]
				}

			}
, 			{
				"patchline" : 				{
					"source" : [ "obj-116", 0 ],
					"destination" : [ "obj-115", 0 ],
					"hidden" : 1,
					"midpoints" : [  ]
				}

			}
, 			{
				"patchline" : 				{
					"source" : [ "obj-6", 0 ],
					"destination" : [ "obj-5", 0 ],
					"hidden" : 1,
					"midpoints" : [  ]
				}

			}
, 			{
				"patchline" : 				{
					"source" : [ "obj-22", 0 ],
					"destination" : [ "obj-21", 0 ],
					"hidden" : 1,
					"midpoints" : [  ]
				}

			}
, 			{
				"patchline" : 				{
					"source" : [ "obj-38", 0 ],
					"destination" : [ "obj-37", 0 ],
					"hidden" : 1,
					"midpoints" : [  ]
				}

			}
, 			{
				"patchline" : 				{
					"source" : [ "obj-54", 0 ],
					"destination" : [ "obj-53", 0 ],
					"hidden" : 1,
					"midpoints" : [  ]
				}

			}
, 			{
				"patchline" : 				{
					"source" : [ "obj-70", 0 ],
					"destination" : [ "obj-69", 0 ],
					"hidden" : 1,
					"midpoints" : [  ]
				}

			}
, 			{
				"patchline" : 				{
					"source" : [ "obj-86", 0 ],
					"destination" : [ "obj-85", 0 ],
					"hidden" : 1,
					"midpoints" : [  ]
				}

			}
, 			{
				"patchline" : 				{
					"source" : [ "obj-102", 0 ],
					"destination" : [ "obj-101", 0 ],
					"hidden" : 1,
					"midpoints" : [  ]
				}

			}
, 			{
				"patchline" : 				{
					"source" : [ "obj-118", 0 ],
					"destination" : [ "obj-117", 0 ],
					"hidden" : 1,
					"midpoints" : [  ]
				}

			}
, 			{
				"patchline" : 				{
					"source" : [ "obj-8", 0 ],
					"destination" : [ "obj-7", 0 ],
					"hidden" : 1,
					"midpoints" : [  ]
				}

			}
, 			{
				"patchline" : 				{
					"source" : [ "obj-24", 0 ],
					"destination" : [ "obj-23", 0 ],
					"hidden" : 1,
					"midpoints" : [  ]
				}

			}
, 			{
				"patchline" : 				{
					"source" : [ "obj-40", 0 ],
					"destination" : [ "obj-39", 0 ],
					"hidden" : 1,
					"midpoints" : [  ]
				}

			}
, 			{
				"patchline" : 				{
					"source" : [ "obj-56", 0 ],
					"destination" : [ "obj-55", 0 ],
					"hidden" : 1,
					"midpoints" : [  ]
				}

			}
, 			{
				"patchline" : 				{
					"source" : [ "obj-72", 0 ],
					"destination" : [ "obj-71", 0 ],
					"hidden" : 1,
					"midpoints" : [  ]
				}

			}
, 			{
				"patchline" : 				{
					"source" : [ "obj-88", 0 ],
					"destination" : [ "obj-87", 0 ],
					"hidden" : 1,
					"midpoints" : [  ]
				}

			}
, 			{
				"patchline" : 				{
					"source" : [ "obj-104", 0 ],
					"destination" : [ "obj-103", 0 ],
					"hidden" : 1,
					"midpoints" : [  ]
				}

			}
, 			{
				"patchline" : 				{
					"source" : [ "obj-120", 0 ],
					"destination" : [ "obj-119", 0 ],
					"hidden" : 1,
					"midpoints" : [  ]
				}

			}
, 			{
				"patchline" : 				{
					"source" : [ "obj-129", 0 ],
					"destination" : [ "obj-132", 0 ],
					"hidden" : 1,
					"midpoints" : [  ]
				}

			}
, 			{
				"patchline" : 				{
					"source" : [ "obj-10", 0 ],
					"destination" : [ "obj-9", 0 ],
					"hidden" : 1,
					"midpoints" : [  ]
				}

			}
, 			{
				"patchline" : 				{
					"source" : [ "obj-26", 0 ],
					"destination" : [ "obj-25", 0 ],
					"hidden" : 1,
					"midpoints" : [  ]
				}

			}
, 			{
				"patchline" : 				{
					"source" : [ "obj-42", 0 ],
					"destination" : [ "obj-41", 0 ],
					"hidden" : 1,
					"midpoints" : [  ]
				}

			}
, 			{
				"patchline" : 				{
					"source" : [ "obj-58", 0 ],
					"destination" : [ "obj-57", 0 ],
					"hidden" : 1,
					"midpoints" : [  ]
				}

			}
, 			{
				"patchline" : 				{
					"source" : [ "obj-74", 0 ],
					"destination" : [ "obj-73", 0 ],
					"hidden" : 1,
					"midpoints" : [  ]
				}

			}
, 			{
				"patchline" : 				{
					"source" : [ "obj-90", 0 ],
					"destination" : [ "obj-89", 0 ],
					"hidden" : 1,
					"midpoints" : [  ]
				}

			}
, 			{
				"patchline" : 				{
					"source" : [ "obj-106", 0 ],
					"destination" : [ "obj-105", 0 ],
					"hidden" : 1,
					"midpoints" : [  ]
				}

			}
, 			{
				"patchline" : 				{
					"source" : [ "obj-122", 0 ],
					"destination" : [ "obj-121", 0 ],
					"hidden" : 1,
					"midpoints" : [  ]
				}

			}
, 			{
				"patchline" : 				{
					"source" : [ "obj-12", 0 ],
					"destination" : [ "obj-11", 0 ],
					"hidden" : 1,
					"midpoints" : [  ]
				}

			}
, 			{
				"patchline" : 				{
					"source" : [ "obj-28", 0 ],
					"destination" : [ "obj-27", 0 ],
					"hidden" : 1,
					"midpoints" : [  ]
				}

			}
, 			{
				"patchline" : 				{
					"source" : [ "obj-44", 0 ],
					"destination" : [ "obj-43", 0 ],
					"hidden" : 1,
					"midpoints" : [  ]
				}

			}
, 			{
				"patchline" : 				{
					"source" : [ "obj-60", 0 ],
					"destination" : [ "obj-59", 0 ],
					"hidden" : 1,
					"midpoints" : [  ]
				}

			}
, 			{
				"patchline" : 				{
					"source" : [ "obj-76", 0 ],
					"destination" : [ "obj-75", 0 ],
					"hidden" : 1,
					"midpoints" : [  ]
				}

			}
, 			{
				"patchline" : 				{
					"source" : [ "obj-92", 0 ],
					"destination" : [ "obj-91", 0 ],
					"hidden" : 1,
					"midpoints" : [  ]
				}

			}
, 			{
				"patchline" : 				{
					"source" : [ "obj-108", 0 ],
					"destination" : [ "obj-107", 0 ],
					"hidden" : 1,
					"midpoints" : [  ]
				}

			}
, 			{
				"patchline" : 				{
					"source" : [ "obj-124", 0 ],
					"destination" : [ "obj-123", 0 ],
					"hidden" : 1,
					"midpoints" : [  ]
				}

			}
, 			{
				"patchline" : 				{
					"source" : [ "obj-14", 0 ],
					"destination" : [ "obj-13", 0 ],
					"hidden" : 1,
					"midpoints" : [  ]
				}

			}
, 			{
				"patchline" : 				{
					"source" : [ "obj-30", 0 ],
					"destination" : [ "obj-29", 0 ],
					"hidden" : 1,
					"midpoints" : [  ]
				}

			}
, 			{
				"patchline" : 				{
					"source" : [ "obj-46", 0 ],
					"destination" : [ "obj-45", 0 ],
					"hidden" : 1,
					"midpoints" : [  ]
				}

			}
, 			{
				"patchline" : 				{
					"source" : [ "obj-62", 0 ],
					"destination" : [ "obj-61", 0 ],
					"hidden" : 1,
					"midpoints" : [  ]
				}

			}
, 			{
				"patchline" : 				{
					"source" : [ "obj-78", 0 ],
					"destination" : [ "obj-77", 0 ],
					"hidden" : 1,
					"midpoints" : [  ]
				}

			}
, 			{
				"patchline" : 				{
					"source" : [ "obj-94", 0 ],
					"destination" : [ "obj-93", 0 ],
					"hidden" : 1,
					"midpoints" : [  ]
				}

			}
, 			{
				"patchline" : 				{
					"source" : [ "obj-110", 0 ],
					"destination" : [ "obj-109", 0 ],
					"hidden" : 1,
					"midpoints" : [  ]
				}

			}
, 			{
				"patchline" : 				{
					"source" : [ "obj-126", 0 ],
					"destination" : [ "obj-125", 0 ],
					"hidden" : 1,
					"midpoints" : [  ]
				}

			}
, 			{
				"patchline" : 				{
					"source" : [ "obj-16", 0 ],
					"destination" : [ "obj-15", 0 ],
					"hidden" : 1,
					"midpoints" : [  ]
				}

			}
, 			{
				"patchline" : 				{
					"source" : [ "obj-32", 0 ],
					"destination" : [ "obj-31", 0 ],
					"hidden" : 1,
					"midpoints" : [  ]
				}

			}
, 			{
				"patchline" : 				{
					"source" : [ "obj-48", 0 ],
					"destination" : [ "obj-47", 0 ],
					"hidden" : 1,
					"midpoints" : [  ]
				}

			}
, 			{
				"patchline" : 				{
					"source" : [ "obj-64", 0 ],
					"destination" : [ "obj-63", 0 ],
					"hidden" : 1,
					"midpoints" : [  ]
				}

			}
, 			{
				"patchline" : 				{
					"source" : [ "obj-80", 0 ],
					"destination" : [ "obj-79", 0 ],
					"hidden" : 1,
					"midpoints" : [  ]
				}

			}
, 			{
				"patchline" : 				{
					"source" : [ "obj-96", 0 ],
					"destination" : [ "obj-95", 0 ],
					"hidden" : 1,
					"midpoints" : [  ]
				}

			}
, 			{
				"patchline" : 				{
					"source" : [ "obj-112", 0 ],
					"destination" : [ "obj-111", 0 ],
					"hidden" : 1,
					"midpoints" : [  ]
				}

			}
, 			{
				"patchline" : 				{
					"source" : [ "obj-128", 0 ],
					"destination" : [ "obj-127", 0 ],
					"hidden" : 1,
					"midpoints" : [  ]
				}

			}
, 			{
				"patchline" : 				{
					"source" : [ "obj-18", 0 ],
					"destination" : [ "obj-17", 0 ],
					"hidden" : 1,
					"midpoints" : [  ]
				}

			}
, 			{
				"patchline" : 				{
					"source" : [ "obj-34", 0 ],
					"destination" : [ "obj-33", 0 ],
					"hidden" : 1,
					"midpoints" : [  ]
				}

			}
, 			{
				"patchline" : 				{
					"source" : [ "obj-50", 0 ],
					"destination" : [ "obj-49", 0 ],
					"hidden" : 1,
					"midpoints" : [  ]
				}

			}
, 			{
				"patchline" : 				{
					"source" : [ "obj-66", 0 ],
					"destination" : [ "obj-65", 0 ],
					"hidden" : 1,
					"midpoints" : [  ]
				}

			}
, 			{
				"patchline" : 				{
					"source" : [ "obj-82", 0 ],
					"destination" : [ "obj-81", 0 ],
					"hidden" : 1,
					"midpoints" : [  ]
				}

			}
, 			{
				"patchline" : 				{
					"source" : [ "obj-98", 0 ],
					"destination" : [ "obj-97", 0 ],
					"hidden" : 1,
					"midpoints" : [  ]
				}

			}
, 			{
				"patchline" : 				{
					"source" : [ "obj-114", 0 ],
					"destination" : [ "obj-113", 0 ],
					"hidden" : 1,
					"midpoints" : [  ]
				}

			}
, 			{
				"patchline" : 				{
					"source" : [ "obj-131", 0 ],
					"destination" : [ "obj-130", 0 ],
					"hidden" : 1,
					"midpoints" : [  ]
				}

			}
, 			{
				"patchline" : 				{
					"source" : [ "obj-1", 0 ],
					"destination" : [ "obj-2", 0 ],
					"hidden" : 1,
					"midpoints" : [  ]
				}

			}
 ]
	}

}
