{
	"patcher" : 	{
		"fileversion" : 1,
		"rect" : [ 280.0, 358.0, 895.0, 568.0 ],
		"bglocked" : 0,
		"defrect" : [ 280.0, 358.0, 895.0, 568.0 ],
		"openrect" : [ 0.0, 0.0, 0.0, 0.0 ],
		"openinpresentation" : 0,
		"default_fontsize" : 12.0,
		"default_fontface" : 0,
		"default_fontname" : "Arial",
		"gridonopen" : 0,
		"gridsize" : [ 15.0, 15.0 ],
		"gridsnaponopen" : 0,
		"toolbarvisible" : 1,
		"boxanimatetime" : 200,
		"imprint" : 0,
		"enablehscroll" : 1,
		"enablevscroll" : 1,
		"devicewidth" : 0.0,
		"boxes" : [ 			{
				"box" : 				{
					"maxclass" : "comment",
					"text" : "swing",
					"fontsize" : 9.0,
					"numinlets" : 1,
					"patching_rect" : [ 194.0, 128.0, 48.0, 17.0 ],
					"id" : "obj-1",
					"fontname" : "Arial",
					"numoutlets" : 0
				}

			}
, 			{
				"box" : 				{
					"maxclass" : "umenu",
					"textcolor2" : [ 0.121569, 0.121569, 0.121569, 1.0 ],
					"outlettype" : [ "int", "", "" ],
					"types" : [  ],
					"fontsize" : 9.0,
					"textcolor" : [ 0.121569, 0.121569, 0.121569, 1.0 ],
					"bgcolor" : [ 0.905882, 0.905882, 0.905882, 1.0 ],
					"items" : [ -5, ",", -4, ",", -3, ",", -2, ",", -1, ",", "straight", ",", "+1", ",", "+2", ",", "+3", ",", "+4", ",", "+5" ],
					"framecolor" : [ 0.015686, 0.015686, 0.015686, 1.0 ],
					"discolor" : [ 0.439216, 0.439216, 0.439216, 1.0 ],
					"numinlets" : 1,
					"hltcolor" : [ 0.905882, 0.905882, 0.905882, 1.0 ],
					"patching_rect" : [ 195.0, 141.0, 56.0, 17.0 ],
					"togcolor" : [ 0.552941, 0.552941, 0.552941, 1.0 ],
					"id" : "obj-2",
					"fontname" : "Arial",
					"bgcolor2" : [ 0.917647, 0.917647, 0.917647, 1.0 ],
					"numoutlets" : 3
				}

			}
, 			{
				"box" : 				{
					"maxclass" : "umenu",
					"textcolor2" : [ 0.0, 0.0, 0.0, 1.0 ],
					"outlettype" : [ "int", "", "" ],
					"types" : [  ],
					"fontsize" : 9.0,
					"textcolor" : [ 0.0, 0.0, 0.0, 1.0 ],
					"bgcolor" : [ 0.905882, 0.905882, 0.905882, 1.0 ],
					"items" : [ "AU DLS Synth 1", ",", "IAC Driver Bus 1", ",", "Faderport", ",", "from MaxMSP 1", ",", "from MaxMSP 2" ],
					"framecolor" : [ 0.015686, 0.015686, 0.015686, 1.0 ],
					"discolor" : [ 0.439216, 0.439216, 0.439216, 1.0 ],
					"numinlets" : 1,
					"hltcolor" : [ 0.905882, 0.905882, 0.905882, 1.0 ],
					"patching_rect" : [ 67.0, 179.0, 115.0, 17.0 ],
					"togcolor" : [ 0.552941, 0.552941, 0.552941, 1.0 ],
					"id" : "obj-3",
					"fontname" : "Arial",
					"bgcolor2" : [ 0.917647, 0.917647, 0.917647, 1.0 ],
					"numoutlets" : 3
				}

			}
, 			{
				"box" : 				{
					"maxclass" : "umenu",
					"textcolor2" : [ 0.121569, 0.121569, 0.121569, 1.0 ],
					"outlettype" : [ "int", "", "" ],
					"types" : [  ],
					"fontsize" : 9.0,
					"textcolor" : [ 0.121569, 0.121569, 0.121569, 1.0 ],
					"bgcolor" : [ 0.905882, 0.905882, 0.905882, 1.0 ],
					"items" : [ "IAC Driver Bus 1", ",", "Faderport", ",", "to MaxMSP 1", ",", "to MaxMSP 2" ],
					"framecolor" : [ 0.015686, 0.015686, 0.015686, 1.0 ],
					"discolor" : [ 0.439216, 0.439216, 0.439216, 1.0 ],
					"numinlets" : 1,
					"hltcolor" : [ 0.905882, 0.905882, 0.905882, 1.0 ],
					"patching_rect" : [ 185.0, 179.0, 115.0, 17.0 ],
					"togcolor" : [ 0.552941, 0.552941, 0.552941, 1.0 ],
					"id" : "obj-4",
					"fontname" : "Arial",
					"bgcolor2" : [ 0.917647, 0.917647, 0.917647, 1.0 ],
					"numoutlets" : 3
				}

			}
, 			{
				"box" : 				{
					"maxclass" : "umenu",
					"textcolor2" : [ 0.121569, 0.121569, 0.121569, 1.0 ],
					"outlettype" : [ "int", "", "" ],
					"types" : [  ],
					"fontsize" : 9.0,
					"textcolor" : [ 0.121569, 0.121569, 0.121569, 1.0 ],
					"bgcolor" : [ 0.905882, 0.905882, 0.905882, 1.0 ],
					"items" : [ "off", ",", "internal", ",", "external", ",", "beat", "clock" ],
					"framecolor" : [ 0.015686, 0.015686, 0.015686, 1.0 ],
					"discolor" : [ 0.439216, 0.439216, 0.439216, 1.0 ],
					"numinlets" : 1,
					"hltcolor" : [ 0.905882, 0.905882, 0.905882, 1.0 ],
					"patching_rect" : [ 67.0, 141.0, 70.0, 17.0 ],
					"togcolor" : [ 0.552941, 0.552941, 0.552941, 1.0 ],
					"id" : "obj-5",
					"fontname" : "Arial",
					"bgcolor2" : [ 0.917647, 0.917647, 0.917647, 1.0 ],
					"numoutlets" : 3
				}

			}
, 			{
				"box" : 				{
					"maxclass" : "comment",
					"text" : "clock options",
					"frgb" : [ 1.0, 1.0, 1.0, 1.0 ],
					"fontsize" : 9.0,
					"textcolor" : [ 1.0, 1.0, 1.0, 1.0 ],
					"numinlets" : 1,
					"patching_rect" : [ 68.0, 106.0, 181.0, 17.0 ],
					"id" : "obj-6",
					"fontname" : "Arial",
					"numoutlets" : 0
				}

			}
, 			{
				"box" : 				{
					"maxclass" : "panel",
					"rounded" : 0,
					"bgcolor" : [ 0.290196, 0.082353, 0.309804, 1.0 ],
					"numinlets" : 1,
					"patching_rect" : [ 47.0, 86.0, 342.0, 36.0 ],
					"id" : "obj-7",
					"numoutlets" : 0
				}

			}
, 			{
				"box" : 				{
					"maxclass" : "newobj",
					"text" : "p clock_init",
					"outlettype" : [ "", "", "", "", "" ],
					"hidden" : 1,
					"fontsize" : 9.0,
					"numinlets" : 0,
					"patching_rect" : [ 70.0, 45.0, 135.0, 17.0 ],
					"id" : "obj-8",
					"fontname" : "Arial",
					"numoutlets" : 5,
					"patcher" : 					{
						"fileversion" : 1,
						"rect" : [ 10.0, 59.0, 600.0, 426.0 ],
						"bglocked" : 0,
						"defrect" : [ 10.0, 59.0, 600.0, 426.0 ],
						"openrect" : [ 0.0, 0.0, 0.0, 0.0 ],
						"openinpresentation" : 0,
						"default_fontsize" : 12.0,
						"default_fontface" : 0,
						"default_fontname" : "Arial",
						"gridonopen" : 0,
						"gridsize" : [ 15.0, 15.0 ],
						"gridsnaponopen" : 0,
						"toolbarvisible" : 1,
						"boxanimatetime" : 200,
						"imprint" : 0,
						"enablehscroll" : 1,
						"enablevscroll" : 1,
						"devicewidth" : 0.0,
						"boxes" : [ 							{
								"box" : 								{
									"maxclass" : "outlet",
									"numinlets" : 1,
									"patching_rect" : [ 317.0, 191.0, 15.0, 15.0 ],
									"id" : "obj-1",
									"numoutlets" : 0,
									"comment" : "swing"
								}

							}
, 							{
								"box" : 								{
									"maxclass" : "newobj",
									"text" : "loadmess 5",
									"outlettype" : [ "" ],
									"fontsize" : 9.0,
									"numinlets" : 1,
									"patching_rect" : [ 421.0, 97.0, 60.0, 17.0 ],
									"id" : "obj-2",
									"fontname" : "Arial",
									"numoutlets" : 1
								}

							}
, 							{
								"box" : 								{
									"maxclass" : "newobj",
									"text" : "r gome_midi_refresh",
									"outlettype" : [ "" ],
									"fontsize" : 9.0,
									"numinlets" : 0,
									"patching_rect" : [ 266.0, 41.0, 106.0, 17.0 ],
									"id" : "obj-3",
									"fontname" : "Arial",
									"numoutlets" : 1
								}

							}
, 							{
								"box" : 								{
									"maxclass" : "newobj",
									"text" : "loadmess 1",
									"outlettype" : [ "" ],
									"fontsize" : 9.0,
									"numinlets" : 1,
									"patching_rect" : [ 94.0, 49.0, 60.0, 17.0 ],
									"id" : "obj-4",
									"fontname" : "Arial",
									"numoutlets" : 1
								}

							}
, 							{
								"box" : 								{
									"maxclass" : "newobj",
									"text" : "loadmess 1",
									"outlettype" : [ "" ],
									"fontsize" : 9.0,
									"numinlets" : 1,
									"patching_rect" : [ 52.0, 109.0, 60.0, 17.0 ],
									"id" : "obj-5",
									"fontname" : "Arial",
									"numoutlets" : 1
								}

							}
, 							{
								"box" : 								{
									"maxclass" : "newobj",
									"text" : "loadmess 0",
									"outlettype" : [ "" ],
									"fontsize" : 9.0,
									"numinlets" : 1,
									"patching_rect" : [ 259.0, 78.0, 60.0, 17.0 ],
									"id" : "obj-6",
									"fontname" : "Arial",
									"numoutlets" : 1
								}

							}
, 							{
								"box" : 								{
									"maxclass" : "outlet",
									"numinlets" : 1,
									"patching_rect" : [ 193.0, 194.0, 15.0, 15.0 ],
									"id" : "obj-7",
									"numoutlets" : 0,
									"comment" : ""
								}

							}
, 							{
								"box" : 								{
									"maxclass" : "outlet",
									"numinlets" : 1,
									"patching_rect" : [ 160.0, 194.0, 15.0, 15.0 ],
									"id" : "obj-8",
									"numoutlets" : 0,
									"comment" : ""
								}

							}
, 							{
								"box" : 								{
									"maxclass" : "outlet",
									"numinlets" : 1,
									"patching_rect" : [ 141.0, 194.0, 15.0, 15.0 ],
									"id" : "obj-9",
									"numoutlets" : 0,
									"comment" : ""
								}

							}
, 							{
								"box" : 								{
									"maxclass" : "outlet",
									"numinlets" : 1,
									"patching_rect" : [ 60.0, 194.0, 15.0, 15.0 ],
									"id" : "obj-10",
									"numoutlets" : 0,
									"comment" : ""
								}

							}
, 							{
								"box" : 								{
									"maxclass" : "newobj",
									"text" : "delay 5",
									"outlettype" : [ "bang" ],
									"fontsize" : 9.0,
									"numinlets" : 2,
									"patching_rect" : [ 194.0, 103.0, 43.0, 17.0 ],
									"id" : "obj-11",
									"fontname" : "Arial",
									"numoutlets" : 1
								}

							}
, 							{
								"box" : 								{
									"maxclass" : "newobj",
									"text" : "r mabalhabla_ss",
									"outlettype" : [ "" ],
									"fontsize" : 9.0,
									"numinlets" : 0,
									"patching_rect" : [ 294.0, 137.0, 83.0, 17.0 ],
									"id" : "obj-12",
									"fontname" : "Arial",
									"numoutlets" : 1
								}

							}
, 							{
								"box" : 								{
									"maxclass" : "newobj",
									"text" : "loadbang",
									"outlettype" : [ "bang" ],
									"fontsize" : 9.0,
									"numinlets" : 1,
									"patching_rect" : [ 200.0, 36.0, 48.0, 17.0 ],
									"id" : "obj-13",
									"fontname" : "Arial",
									"numoutlets" : 1
								}

							}
, 							{
								"box" : 								{
									"maxclass" : "newobj",
									"text" : "midiinfo",
									"outlettype" : [ "" ],
									"fontsize" : 9.0,
									"numinlets" : 2,
									"patching_rect" : [ 195.0, 153.0, 45.0, 17.0 ],
									"id" : "obj-14",
									"fontname" : "Arial",
									"numoutlets" : 1
								}

							}
, 							{
								"box" : 								{
									"maxclass" : "message",
									"text" : "120",
									"outlettype" : [ "" ],
									"fontsize" : 9.0,
									"numinlets" : 2,
									"patching_rect" : [ 158.0, 147.0, 26.0, 15.0 ],
									"id" : "obj-15",
									"fontname" : "Arial",
									"numoutlets" : 1
								}

							}
, 							{
								"box" : 								{
									"maxclass" : "newobj",
									"text" : "sel 32",
									"outlettype" : [ "bang", "" ],
									"fontsize" : 9.0,
									"numinlets" : 2,
									"patching_rect" : [ 141.0, 122.0, 35.0, 17.0 ],
									"id" : "obj-16",
									"fontname" : "Arial",
									"numoutlets" : 2
								}

							}
, 							{
								"box" : 								{
									"maxclass" : "newobj",
									"text" : "key",
									"outlettype" : [ "int", "int", "int", "int" ],
									"fontsize" : 9.0,
									"numinlets" : 0,
									"patching_rect" : [ 141.0, 87.0, 40.0, 17.0 ],
									"id" : "obj-17",
									"fontname" : "Arial",
									"numoutlets" : 4
								}

							}
 ],
						"lines" : [ 							{
								"patchline" : 								{
									"source" : [ "obj-2", 0 ],
									"destination" : [ "obj-1", 0 ],
									"hidden" : 0,
									"midpoints" : [  ]
								}

							}
, 							{
								"patchline" : 								{
									"source" : [ "obj-3", 0 ],
									"destination" : [ "obj-6", 0 ],
									"hidden" : 0,
									"midpoints" : [  ]
								}

							}
, 							{
								"patchline" : 								{
									"source" : [ "obj-6", 0 ],
									"destination" : [ "obj-14", 1 ],
									"hidden" : 0,
									"midpoints" : [  ]
								}

							}
, 							{
								"patchline" : 								{
									"source" : [ "obj-13", 0 ],
									"destination" : [ "obj-11", 0 ],
									"hidden" : 0,
									"midpoints" : [  ]
								}

							}
, 							{
								"patchline" : 								{
									"source" : [ "obj-14", 0 ],
									"destination" : [ "obj-7", 0 ],
									"hidden" : 0,
									"midpoints" : [  ]
								}

							}
, 							{
								"patchline" : 								{
									"source" : [ "obj-15", 0 ],
									"destination" : [ "obj-8", 0 ],
									"hidden" : 0,
									"midpoints" : [  ]
								}

							}
, 							{
								"patchline" : 								{
									"source" : [ "obj-11", 0 ],
									"destination" : [ "obj-15", 0 ],
									"hidden" : 0,
									"midpoints" : [  ]
								}

							}
, 							{
								"patchline" : 								{
									"source" : [ "obj-16", 0 ],
									"destination" : [ "obj-15", 0 ],
									"hidden" : 0,
									"midpoints" : [  ]
								}

							}
, 							{
								"patchline" : 								{
									"source" : [ "obj-12", 0 ],
									"destination" : [ "obj-9", 0 ],
									"hidden" : 0,
									"midpoints" : [  ]
								}

							}
, 							{
								"patchline" : 								{
									"source" : [ "obj-4", 0 ],
									"destination" : [ "obj-9", 0 ],
									"hidden" : 0,
									"midpoints" : [  ]
								}

							}
, 							{
								"patchline" : 								{
									"source" : [ "obj-16", 0 ],
									"destination" : [ "obj-9", 0 ],
									"hidden" : 0,
									"midpoints" : [  ]
								}

							}
, 							{
								"patchline" : 								{
									"source" : [ "obj-17", 0 ],
									"destination" : [ "obj-16", 0 ],
									"hidden" : 0,
									"midpoints" : [  ]
								}

							}
, 							{
								"patchline" : 								{
									"source" : [ "obj-5", 0 ],
									"destination" : [ "obj-10", 0 ],
									"hidden" : 0,
									"midpoints" : [  ]
								}

							}
 ]
					}
,
					"saved_object_attributes" : 					{
						"globalpatchername" : "",
						"default_fontface" : 0,
						"fontface" : 0,
						"fontsize" : 12.0,
						"default_fontname" : "Arial",
						"default_fontsize" : 12.0,
						"fontname" : "Arial"
					}

				}

			}
, 			{
				"box" : 				{
					"maxclass" : "comment",
					"text" : "send beat clock to:",
					"fontsize" : 9.0,
					"numinlets" : 1,
					"patching_rect" : [ 67.0, 166.0, 103.0, 17.0 ],
					"id" : "obj-9",
					"fontname" : "Arial",
					"numoutlets" : 0
				}

			}
, 			{
				"box" : 				{
					"maxclass" : "newobj",
					"text" : "p gome_master_clock",
					"hidden" : 1,
					"fontsize" : 9.0,
					"numinlets" : 6,
					"patching_rect" : [ 65.0, 211.0, 224.0, 17.0 ],
					"id" : "obj-10",
					"fontname" : "Arial",
					"numoutlets" : 0,
					"patcher" : 					{
						"fileversion" : 1,
						"rect" : [ 859.0, 207.0, 773.0, 807.0 ],
						"bglocked" : 0,
						"defrect" : [ 859.0, 207.0, 773.0, 807.0 ],
						"openrect" : [ 0.0, 0.0, 0.0, 0.0 ],
						"openinpresentation" : 0,
						"default_fontsize" : 12.0,
						"default_fontface" : 0,
						"default_fontname" : "Arial",
						"gridonopen" : 0,
						"gridsize" : [ 15.0, 15.0 ],
						"gridsnaponopen" : 0,
						"toolbarvisible" : 1,
						"boxanimatetime" : 200,
						"imprint" : 0,
						"enablehscroll" : 1,
						"enablevscroll" : 1,
						"devicewidth" : 0.0,
						"boxes" : [ 							{
								"box" : 								{
									"maxclass" : "inlet",
									"outlettype" : [ "int" ],
									"numinlets" : 0,
									"patching_rect" : [ 463.0, 101.0, 15.0, 15.0 ],
									"id" : "obj-1",
									"numoutlets" : 1,
									"comment" : "swing value"
								}

							}
, 							{
								"box" : 								{
									"maxclass" : "newobj",
									"text" : "sel 6",
									"outlettype" : [ "bang", "" ],
									"fontsize" : 9.0,
									"numinlets" : 2,
									"patching_rect" : [ 312.0, 243.0, 32.0, 17.0 ],
									"id" : "obj-2",
									"fontname" : "Arial",
									"numoutlets" : 2
								}

							}
, 							{
								"box" : 								{
									"maxclass" : "newobj",
									"text" : "sel 0",
									"outlettype" : [ "bang", "" ],
									"fontsize" : 9.0,
									"numinlets" : 2,
									"patching_rect" : [ 265.0, 246.0, 32.0, 17.0 ],
									"id" : "obj-3",
									"fontname" : "Arial",
									"numoutlets" : 2
								}

							}
, 							{
								"box" : 								{
									"maxclass" : "newobj",
									"text" : "% 12",
									"outlettype" : [ "int" ],
									"fontsize" : 9.0,
									"numinlets" : 2,
									"patching_rect" : [ 289.0, 207.0, 34.0, 17.0 ],
									"id" : "obj-4",
									"fontname" : "Arial",
									"numoutlets" : 1
								}

							}
, 							{
								"box" : 								{
									"maxclass" : "newobj",
									"text" : "+ 1",
									"outlettype" : [ "int" ],
									"fontsize" : 9.0,
									"numinlets" : 2,
									"patching_rect" : [ 457.0, 148.0, 27.0, 17.0 ],
									"id" : "obj-5",
									"fontname" : "Arial",
									"numoutlets" : 1
								}

							}
, 							{
								"box" : 								{
									"maxclass" : "newobj",
									"text" : "sel 6",
									"outlettype" : [ "bang", "" ],
									"fontsize" : 9.0,
									"numinlets" : 2,
									"patching_rect" : [ 103.0, 233.0, 32.0, 17.0 ],
									"id" : "obj-6",
									"fontname" : "Arial",
									"numoutlets" : 2
								}

							}
, 							{
								"box" : 								{
									"maxclass" : "newobj",
									"text" : "sel 0",
									"outlettype" : [ "bang", "" ],
									"fontsize" : 9.0,
									"numinlets" : 2,
									"patching_rect" : [ 63.0, 230.0, 32.0, 17.0 ],
									"id" : "obj-7",
									"fontname" : "Arial",
									"numoutlets" : 2
								}

							}
, 							{
								"box" : 								{
									"maxclass" : "newobj",
									"text" : "% 12",
									"outlettype" : [ "int" ],
									"fontsize" : 9.0,
									"numinlets" : 2,
									"patching_rect" : [ 80.0, 197.0, 34.0, 17.0 ],
									"id" : "obj-8",
									"fontname" : "Arial",
									"numoutlets" : 1
								}

							}
, 							{
								"box" : 								{
									"maxclass" : "newobj",
									"text" : "loadbang",
									"outlettype" : [ "bang" ],
									"fontsize" : 9.0,
									"numinlets" : 1,
									"patching_rect" : [ 166.0, 36.0, 48.0, 17.0 ],
									"id" : "obj-9",
									"fontname" : "Arial",
									"numoutlets" : 1
								}

							}
, 							{
								"box" : 								{
									"maxclass" : "newobj",
									"text" : "s gome_pulse_duration",
									"fontsize" : 9.0,
									"numinlets" : 1,
									"patching_rect" : [ 355.0, 380.0, 113.0, 17.0 ],
									"id" : "obj-10",
									"fontname" : "Arial",
									"numoutlets" : 0
								}

							}
, 							{
								"box" : 								{
									"maxclass" : "newobj",
									"text" : "expr (60000/$i1)/4",
									"outlettype" : [ "" ],
									"fontsize" : 9.0,
									"numinlets" : 1,
									"patching_rect" : [ 355.0, 356.0, 104.0, 17.0 ],
									"id" : "obj-11",
									"fontname" : "Arial",
									"numoutlets" : 1
								}

							}
, 							{
								"box" : 								{
									"maxclass" : "newobj",
									"text" : "sel 1 0",
									"outlettype" : [ "bang", "bang", "" ],
									"fontsize" : 9.0,
									"numinlets" : 1,
									"patching_rect" : [ 281.0, 411.0, 40.0, 17.0 ],
									"id" : "obj-12",
									"fontname" : "Arial",
									"numoutlets" : 3
								}

							}
, 							{
								"box" : 								{
									"maxclass" : "message",
									"text" : "252",
									"outlettype" : [ "" ],
									"fontsize" : 9.0,
									"numinlets" : 2,
									"patching_rect" : [ 319.0, 438.0, 26.0, 15.0 ],
									"id" : "obj-13",
									"fontname" : "Arial",
									"numoutlets" : 1
								}

							}
, 							{
								"box" : 								{
									"maxclass" : "message",
									"text" : "250",
									"outlettype" : [ "" ],
									"fontsize" : 9.0,
									"numinlets" : 2,
									"patching_rect" : [ 281.0, 438.0, 26.0, 15.0 ],
									"id" : "obj-14",
									"fontname" : "Arial",
									"numoutlets" : 1
								}

							}
, 							{
								"box" : 								{
									"maxclass" : "newobj",
									"text" : "b",
									"outlettype" : [ "bang", "bang" ],
									"fontsize" : 9.0,
									"numinlets" : 1,
									"patching_rect" : [ 251.0, 411.0, 27.0, 17.0 ],
									"id" : "obj-15",
									"fontname" : "Arial",
									"numoutlets" : 2
								}

							}
, 							{
								"box" : 								{
									"maxclass" : "inlet",
									"outlettype" : [ "" ],
									"numinlets" : 0,
									"patching_rect" : [ 275.0, 83.0, 15.0, 15.0 ],
									"id" : "obj-16",
									"numoutlets" : 1,
									"comment" : "beat clock output destination"
								}

							}
, 							{
								"box" : 								{
									"maxclass" : "message",
									"text" : "96",
									"outlettype" : [ "" ],
									"fontsize" : 9.0,
									"numinlets" : 2,
									"patching_rect" : [ 134.0, 73.0, 20.0, 15.0 ],
									"id" : "obj-17",
									"fontname" : "Arial",
									"numoutlets" : 1
								}

							}
, 							{
								"box" : 								{
									"maxclass" : "newobj",
									"text" : "tempo",
									"outlettype" : [ "int" ],
									"fontsize" : 9.0,
									"numinlets" : 4,
									"patching_rect" : [ 76.0, 149.0, 53.0, 17.0 ],
									"id" : "obj-18",
									"fontname" : "Arial",
									"numoutlets" : 1
								}

							}
, 							{
								"box" : 								{
									"maxclass" : "message",
									"text" : "248",
									"outlettype" : [ "" ],
									"fontsize" : 9.0,
									"numinlets" : 2,
									"patching_rect" : [ 251.0, 438.0, 26.0, 15.0 ],
									"id" : "obj-19",
									"fontname" : "Arial",
									"numoutlets" : 1
								}

							}
, 							{
								"box" : 								{
									"maxclass" : "newobj",
									"text" : "midiout",
									"fontsize" : 9.0,
									"numinlets" : 1,
									"patching_rect" : [ 286.0, 485.0, 42.0, 17.0 ],
									"id" : "obj-20",
									"fontname" : "Arial",
									"numoutlets" : 0
								}

							}
, 							{
								"box" : 								{
									"maxclass" : "inlet",
									"outlettype" : [ "" ],
									"numinlets" : 0,
									"patching_rect" : [ 164.0, 84.0, 15.0, 15.0 ],
									"id" : "obj-21",
									"numoutlets" : 1,
									"comment" : "mtc device in"
								}

							}
, 							{
								"box" : 								{
									"maxclass" : "inlet",
									"outlettype" : [ "int" ],
									"numinlets" : 0,
									"patching_rect" : [ 106.0, 86.0, 15.0, 15.0 ],
									"id" : "obj-22",
									"numoutlets" : 1,
									"comment" : "internal ms tempo"
								}

							}
, 							{
								"box" : 								{
									"maxclass" : "inlet",
									"outlettype" : [ "int" ],
									"numinlets" : 0,
									"patching_rect" : [ 71.0, 85.0, 15.0, 15.0 ],
									"id" : "obj-23",
									"numoutlets" : 1,
									"comment" : "nternal start.stop"
								}

							}
, 							{
								"box" : 								{
									"maxclass" : "inlet",
									"outlettype" : [ "int" ],
									"numinlets" : 0,
									"patching_rect" : [ 13.0, 87.0, 15.0, 15.0 ],
									"id" : "obj-24",
									"numoutlets" : 1,
									"comment" : "source"
								}

							}
, 							{
								"box" : 								{
									"maxclass" : "newobj",
									"text" : "timer",
									"outlettype" : [ "float", "" ],
									"fontsize" : 9.0,
									"numinlets" : 2,
									"patching_rect" : [ 232.0, 291.0, 34.0, 17.0 ],
									"id" : "obj-25",
									"fontname" : "Arial",
									"numoutlets" : 2
								}

							}
, 							{
								"box" : 								{
									"maxclass" : "newobj",
									"text" : "r tempo",
									"outlettype" : [ "" ],
									"fontsize" : 9.0,
									"numinlets" : 0,
									"patching_rect" : [ 209.0, 265.0, 44.0, 17.0 ],
									"id" : "obj-26",
									"fontname" : "Arial",
									"numoutlets" : 1
								}

							}
, 							{
								"box" : 								{
									"maxclass" : "newobj",
									"text" : "switch 3",
									"outlettype" : [ "" ],
									"fontsize" : 9.0,
									"numinlets" : 4,
									"patching_rect" : [ 163.0, 314.0, 81.0, 17.0 ],
									"id" : "obj-27",
									"fontname" : "Arial",
									"numoutlets" : 1
								}

							}
, 							{
								"box" : 								{
									"maxclass" : "newobj",
									"text" : "b",
									"outlettype" : [ "bang", "bang" ],
									"fontsize" : 9.0,
									"numinlets" : 1,
									"patching_rect" : [ 124.0, 291.0, 27.0, 17.0 ],
									"id" : "obj-28",
									"fontname" : "Arial",
									"numoutlets" : 2
								}

							}
, 							{
								"box" : 								{
									"maxclass" : "newobj",
									"text" : "r address",
									"outlettype" : [ "" ],
									"fontsize" : 9.0,
									"numinlets" : 0,
									"patching_rect" : [ 124.0, 266.0, 52.0, 17.0 ],
									"id" : "obj-29",
									"fontname" : "Arial",
									"numoutlets" : 1
								}

							}
, 							{
								"box" : 								{
									"maxclass" : "newobj",
									"text" : "s gome_tempo",
									"fontsize" : 9.0,
									"numinlets" : 1,
									"patching_rect" : [ 163.0, 369.0, 74.0, 17.0 ],
									"id" : "obj-30",
									"fontname" : "Arial",
									"numoutlets" : 0
								}

							}
, 							{
								"box" : 								{
									"maxclass" : "newobj",
									"text" : "s gome_pulse",
									"fontsize" : 9.0,
									"numinlets" : 1,
									"patching_rect" : [ 78.0, 394.0, 70.0, 17.0 ],
									"id" : "obj-31",
									"fontname" : "Arial",
									"numoutlets" : 0
								}

							}
, 							{
								"box" : 								{
									"maxclass" : "newobj",
									"text" : "rtin",
									"outlettype" : [ "int" ],
									"fontsize" : 9.0,
									"numinlets" : 1,
									"patching_rect" : [ 164.0, 110.0, 25.0, 17.0 ],
									"id" : "obj-32",
									"fontname" : "Arial",
									"numoutlets" : 1
								}

							}
, 							{
								"box" : 								{
									"maxclass" : "message",
									"text" : "0",
									"outlettype" : [ "" ],
									"fontsize" : 9.0,
									"numinlets" : 2,
									"patching_rect" : [ 298.0, 153.0, 16.0, 15.0 ],
									"id" : "obj-33",
									"fontname" : "Arial",
									"numoutlets" : 1
								}

							}
, 							{
								"box" : 								{
									"maxclass" : "newobj",
									"text" : "counter",
									"outlettype" : [ "int", "", "", "int" ],
									"fontsize" : 9.0,
									"numinlets" : 5,
									"patching_rect" : [ 256.0, 175.0, 66.0, 17.0 ],
									"id" : "obj-34",
									"fontname" : "Arial",
									"numoutlets" : 4
								}

							}
, 							{
								"box" : 								{
									"maxclass" : "newobj",
									"text" : "route 250 252 248",
									"outlettype" : [ "", "", "", "" ],
									"fontsize" : 9.0,
									"numinlets" : 1,
									"patching_rect" : [ 164.0, 131.0, 148.0, 17.0 ],
									"id" : "obj-35",
									"fontname" : "Arial",
									"numoutlets" : 4
								}

							}
, 							{
								"box" : 								{
									"maxclass" : "newobj",
									"text" : "switch 3",
									"outlettype" : [ "" ],
									"fontsize" : 9.0,
									"numinlets" : 4,
									"patching_rect" : [ 78.0, 323.0, 81.0, 17.0 ],
									"id" : "obj-36",
									"fontname" : "Arial",
									"numoutlets" : 1
								}

							}
 ],
						"lines" : [ 							{
								"patchline" : 								{
									"source" : [ "obj-1", 0 ],
									"destination" : [ "obj-5", 0 ],
									"hidden" : 0,
									"midpoints" : [  ]
								}

							}
, 							{
								"patchline" : 								{
									"source" : [ "obj-11", 0 ],
									"destination" : [ "obj-10", 0 ],
									"hidden" : 0,
									"midpoints" : [  ]
								}

							}
, 							{
								"patchline" : 								{
									"source" : [ "obj-27", 0 ],
									"destination" : [ "obj-11", 0 ],
									"hidden" : 0,
									"midpoints" : [  ]
								}

							}
, 							{
								"patchline" : 								{
									"source" : [ "obj-5", 0 ],
									"destination" : [ "obj-2", 1 ],
									"hidden" : 0,
									"midpoints" : [  ]
								}

							}
, 							{
								"patchline" : 								{
									"source" : [ "obj-12", 1 ],
									"destination" : [ "obj-13", 0 ],
									"hidden" : 0,
									"midpoints" : [  ]
								}

							}
, 							{
								"patchline" : 								{
									"source" : [ "obj-4", 0 ],
									"destination" : [ "obj-2", 0 ],
									"hidden" : 0,
									"midpoints" : [  ]
								}

							}
, 							{
								"patchline" : 								{
									"source" : [ "obj-33", 0 ],
									"destination" : [ "obj-34", 3 ],
									"hidden" : 0,
									"midpoints" : [  ]
								}

							}
, 							{
								"patchline" : 								{
									"source" : [ "obj-35", 0 ],
									"destination" : [ "obj-33", 0 ],
									"hidden" : 0,
									"midpoints" : [  ]
								}

							}
, 							{
								"patchline" : 								{
									"source" : [ "obj-34", 0 ],
									"destination" : [ "obj-4", 0 ],
									"hidden" : 0,
									"midpoints" : [  ]
								}

							}
, 							{
								"patchline" : 								{
									"source" : [ "obj-19", 0 ],
									"destination" : [ "obj-20", 0 ],
									"hidden" : 0,
									"midpoints" : [  ]
								}

							}
, 							{
								"patchline" : 								{
									"source" : [ "obj-16", 0 ],
									"destination" : [ "obj-20", 0 ],
									"hidden" : 0,
									"midpoints" : [  ]
								}

							}
, 							{
								"patchline" : 								{
									"source" : [ "obj-14", 0 ],
									"destination" : [ "obj-20", 0 ],
									"hidden" : 0,
									"midpoints" : [  ]
								}

							}
, 							{
								"patchline" : 								{
									"source" : [ "obj-13", 0 ],
									"destination" : [ "obj-20", 0 ],
									"hidden" : 0,
									"midpoints" : [  ]
								}

							}
, 							{
								"patchline" : 								{
									"source" : [ "obj-12", 0 ],
									"destination" : [ "obj-14", 0 ],
									"hidden" : 0,
									"midpoints" : [  ]
								}

							}
, 							{
								"patchline" : 								{
									"source" : [ "obj-23", 0 ],
									"destination" : [ "obj-12", 0 ],
									"hidden" : 0,
									"midpoints" : [  ]
								}

							}
, 							{
								"patchline" : 								{
									"source" : [ "obj-4", 0 ],
									"destination" : [ "obj-3", 0 ],
									"hidden" : 0,
									"midpoints" : [  ]
								}

							}
, 							{
								"patchline" : 								{
									"source" : [ "obj-2", 0 ],
									"destination" : [ "obj-25", 1 ],
									"hidden" : 0,
									"midpoints" : [  ]
								}

							}
, 							{
								"patchline" : 								{
									"source" : [ "obj-35", 2 ],
									"destination" : [ "obj-34", 0 ],
									"hidden" : 0,
									"midpoints" : [  ]
								}

							}
, 							{
								"patchline" : 								{
									"source" : [ "obj-15", 0 ],
									"destination" : [ "obj-19", 0 ],
									"hidden" : 0,
									"midpoints" : [  ]
								}

							}
, 							{
								"patchline" : 								{
									"source" : [ "obj-18", 0 ],
									"destination" : [ "obj-15", 0 ],
									"hidden" : 0,
									"midpoints" : [  ]
								}

							}
, 							{
								"patchline" : 								{
									"source" : [ "obj-25", 0 ],
									"destination" : [ "obj-27", 3 ],
									"hidden" : 0,
									"midpoints" : [  ]
								}

							}
, 							{
								"patchline" : 								{
									"source" : [ "obj-3", 0 ],
									"destination" : [ "obj-25", 0 ],
									"hidden" : 0,
									"midpoints" : [  ]
								}

							}
, 							{
								"patchline" : 								{
									"source" : [ "obj-26", 0 ],
									"destination" : [ "obj-27", 2 ],
									"hidden" : 0,
									"midpoints" : [  ]
								}

							}
, 							{
								"patchline" : 								{
									"source" : [ "obj-22", 0 ],
									"destination" : [ "obj-27", 1 ],
									"hidden" : 0,
									"midpoints" : [  ]
								}

							}
, 							{
								"patchline" : 								{
									"source" : [ "obj-32", 0 ],
									"destination" : [ "obj-35", 0 ],
									"hidden" : 0,
									"midpoints" : [  ]
								}

							}
, 							{
								"patchline" : 								{
									"source" : [ "obj-21", 0 ],
									"destination" : [ "obj-32", 0 ],
									"hidden" : 0,
									"midpoints" : [  ]
								}

							}
, 							{
								"patchline" : 								{
									"source" : [ "obj-27", 0 ],
									"destination" : [ "obj-30", 0 ],
									"hidden" : 0,
									"midpoints" : [  ]
								}

							}
, 							{
								"patchline" : 								{
									"source" : [ "obj-24", 0 ],
									"destination" : [ "obj-27", 0 ],
									"hidden" : 0,
									"midpoints" : [  ]
								}

							}
, 							{
								"patchline" : 								{
									"source" : [ "obj-3", 0 ],
									"destination" : [ "obj-36", 3 ],
									"hidden" : 0,
									"midpoints" : [  ]
								}

							}
, 							{
								"patchline" : 								{
									"source" : [ "obj-2", 0 ],
									"destination" : [ "obj-36", 3 ],
									"hidden" : 0,
									"midpoints" : [  ]
								}

							}
, 							{
								"patchline" : 								{
									"source" : [ "obj-9", 0 ],
									"destination" : [ "obj-17", 0 ],
									"hidden" : 0,
									"midpoints" : [  ]
								}

							}
, 							{
								"patchline" : 								{
									"source" : [ "obj-5", 0 ],
									"destination" : [ "obj-6", 1 ],
									"hidden" : 0,
									"midpoints" : [  ]
								}

							}
, 							{
								"patchline" : 								{
									"source" : [ "obj-28", 0 ],
									"destination" : [ "obj-36", 2 ],
									"hidden" : 0,
									"midpoints" : [  ]
								}

							}
, 							{
								"patchline" : 								{
									"source" : [ "obj-29", 0 ],
									"destination" : [ "obj-28", 0 ],
									"hidden" : 0,
									"midpoints" : [  ]
								}

							}
, 							{
								"patchline" : 								{
									"source" : [ "obj-17", 0 ],
									"destination" : [ "obj-18", 3 ],
									"hidden" : 0,
									"midpoints" : [  ]
								}

							}
, 							{
								"patchline" : 								{
									"source" : [ "obj-8", 0 ],
									"destination" : [ "obj-6", 0 ],
									"hidden" : 0,
									"midpoints" : [  ]
								}

							}
, 							{
								"patchline" : 								{
									"source" : [ "obj-7", 0 ],
									"destination" : [ "obj-36", 1 ],
									"hidden" : 0,
									"midpoints" : [  ]
								}

							}
, 							{
								"patchline" : 								{
									"source" : [ "obj-6", 0 ],
									"destination" : [ "obj-36", 1 ],
									"hidden" : 0,
									"midpoints" : [  ]
								}

							}
, 							{
								"patchline" : 								{
									"source" : [ "obj-22", 0 ],
									"destination" : [ "obj-18", 1 ],
									"hidden" : 0,
									"midpoints" : [  ]
								}

							}
, 							{
								"patchline" : 								{
									"source" : [ "obj-18", 0 ],
									"destination" : [ "obj-8", 0 ],
									"hidden" : 0,
									"midpoints" : [  ]
								}

							}
, 							{
								"patchline" : 								{
									"source" : [ "obj-36", 0 ],
									"destination" : [ "obj-31", 0 ],
									"hidden" : 0,
									"midpoints" : [  ]
								}

							}
, 							{
								"patchline" : 								{
									"source" : [ "obj-24", 0 ],
									"destination" : [ "obj-36", 0 ],
									"hidden" : 0,
									"midpoints" : [  ]
								}

							}
, 							{
								"patchline" : 								{
									"source" : [ "obj-23", 0 ],
									"destination" : [ "obj-18", 0 ],
									"hidden" : 0,
									"midpoints" : [  ]
								}

							}
, 							{
								"patchline" : 								{
									"source" : [ "obj-8", 0 ],
									"destination" : [ "obj-7", 0 ],
									"hidden" : 0,
									"midpoints" : [  ]
								}

							}
 ]
					}
,
					"saved_object_attributes" : 					{
						"globalpatchername" : "",
						"default_fontface" : 0,
						"fontface" : 0,
						"fontsize" : 12.0,
						"default_fontname" : "Arial",
						"default_fontsize" : 12.0,
						"fontname" : "Arial"
					}

				}

			}
, 			{
				"box" : 				{
					"maxclass" : "comment",
					"text" : "receive beat clock from:",
					"fontsize" : 9.0,
					"numinlets" : 1,
					"patching_rect" : [ 186.0, 166.0, 131.0, 17.0 ],
					"id" : "obj-11",
					"fontname" : "Arial",
					"numoutlets" : 0
				}

			}
, 			{
				"box" : 				{
					"maxclass" : "toggle",
					"outlettype" : [ "int" ],
					"numinlets" : 1,
					"patching_rect" : [ 139.0, 141.0, 15.0, 15.0 ],
					"id" : "obj-12",
					"numoutlets" : 1
				}

			}
, 			{
				"box" : 				{
					"maxclass" : "number",
					"minimum" : 0,
					"outlettype" : [ "int", "bang" ],
					"htextcolor" : [ 0.870588, 0.870588, 0.870588, 1.0 ],
					"triscale" : 0.9,
					"fontsize" : 9.0,
					"textcolor" : [ 0.121569, 0.121569, 0.121569, 1.0 ],
					"bgcolor" : [ 0.905882, 0.905882, 0.905882, 1.0 ],
					"numinlets" : 1,
					"patching_rect" : [ 156.0, 141.0, 35.0, 17.0 ],
					"id" : "obj-13",
					"fontname" : "Arial",
					"numoutlets" : 2
				}

			}
, 			{
				"box" : 				{
					"maxclass" : "comment",
					"text" : "internal",
					"fontsize" : 9.0,
					"numinlets" : 1,
					"patching_rect" : [ 136.0, 128.0, 48.0, 17.0 ],
					"id" : "obj-14",
					"fontname" : "Arial",
					"numoutlets" : 0
				}

			}
, 			{
				"box" : 				{
					"maxclass" : "comment",
					"text" : "source",
					"fontsize" : 9.0,
					"numinlets" : 1,
					"patching_rect" : [ 68.0, 128.0, 41.0, 17.0 ],
					"id" : "obj-15",
					"fontname" : "Arial",
					"numoutlets" : 0
				}

			}
, 			{
				"box" : 				{
					"maxclass" : "panel",
					"rounded" : 0,
					"border" : 1,
					"bgcolor" : [ 0.905882, 0.905882, 0.905882, 1.0 ],
					"numinlets" : 1,
					"patching_rect" : [ 15.0, 95.0, 374.0, 253.0 ],
					"id" : "obj-16",
					"numoutlets" : 0
				}

			}
, 			{
				"box" : 				{
					"maxclass" : "newobj",
					"text" : "midiinfo",
					"outlettype" : [ "" ],
					"hidden" : 1,
					"fontsize" : 9.0,
					"numinlets" : 2,
					"patching_rect" : [ 0.0, 46.0, 46.0, 17.0 ],
					"id" : "obj-17",
					"fontname" : "Arial",
					"numoutlets" : 1
				}

			}
, 			{
				"box" : 				{
					"maxclass" : "newobj",
					"text" : "loadbang",
					"outlettype" : [ "bang" ],
					"hidden" : 1,
					"fontsize" : 9.0,
					"numinlets" : 1,
					"patching_rect" : [ 4.0, 21.0, 52.0, 17.0 ],
					"id" : "obj-18",
					"fontname" : "Arial",
					"numoutlets" : 1
				}

			}
 ],
		"lines" : [ 			{
				"patchline" : 				{
					"source" : [ "obj-2", 0 ],
					"destination" : [ "obj-10", 5 ],
					"hidden" : 1,
					"midpoints" : [  ]
				}

			}
, 			{
				"patchline" : 				{
					"source" : [ "obj-3", 1 ],
					"destination" : [ "obj-10", 4 ],
					"hidden" : 1,
					"midpoints" : [  ]
				}

			}
, 			{
				"patchline" : 				{
					"source" : [ "obj-8", 4 ],
					"destination" : [ "obj-2", 0 ],
					"hidden" : 1,
					"midpoints" : [  ]
				}

			}
, 			{
				"patchline" : 				{
					"source" : [ "obj-4", 1 ],
					"destination" : [ "obj-10", 3 ],
					"hidden" : 1,
					"midpoints" : [  ]
				}

			}
, 			{
				"patchline" : 				{
					"source" : [ "obj-8", 3 ],
					"destination" : [ "obj-4", 0 ],
					"hidden" : 1,
					"midpoints" : [  ]
				}

			}
, 			{
				"patchline" : 				{
					"source" : [ "obj-8", 2 ],
					"destination" : [ "obj-13", 0 ],
					"hidden" : 1,
					"midpoints" : [  ]
				}

			}
, 			{
				"patchline" : 				{
					"source" : [ "obj-13", 0 ],
					"destination" : [ "obj-10", 2 ],
					"hidden" : 1,
					"midpoints" : [  ]
				}

			}
, 			{
				"patchline" : 				{
					"source" : [ "obj-8", 1 ],
					"destination" : [ "obj-12", 0 ],
					"hidden" : 1,
					"midpoints" : [  ]
				}

			}
, 			{
				"patchline" : 				{
					"source" : [ "obj-12", 0 ],
					"destination" : [ "obj-10", 1 ],
					"hidden" : 1,
					"midpoints" : [  ]
				}

			}
, 			{
				"patchline" : 				{
					"source" : [ "obj-17", 0 ],
					"destination" : [ "obj-3", 0 ],
					"hidden" : 1,
					"midpoints" : [  ]
				}

			}
, 			{
				"patchline" : 				{
					"source" : [ "obj-8", 0 ],
					"destination" : [ "obj-5", 0 ],
					"hidden" : 1,
					"midpoints" : [  ]
				}

			}
, 			{
				"patchline" : 				{
					"source" : [ "obj-5", 0 ],
					"destination" : [ "obj-10", 0 ],
					"hidden" : 1,
					"midpoints" : [  ]
				}

			}
, 			{
				"patchline" : 				{
					"source" : [ "obj-18", 0 ],
					"destination" : [ "obj-17", 0 ],
					"hidden" : 1,
					"midpoints" : [  ]
				}

			}
 ]
	}

}
