{
	"patcher" : 	{
		"fileversion" : 1,
		"rect" : [ 201.0, 673.0, 800.0, 691.0 ],
		"bglocked" : 0,
		"defrect" : [ 201.0, 673.0, 800.0, 691.0 ],
		"openrect" : [ 0.0, 0.0, 0.0, 0.0 ],
		"openinpresentation" : 0,
		"default_fontsize" : 12.0,
		"default_fontface" : 0,
		"default_fontname" : "Arial",
		"gridonopen" : 0,
		"gridsize" : [ 15.0, 15.0 ],
		"gridsnaponopen" : 0,
		"toolbarvisible" : 1,
		"boxanimatetime" : 200,
		"imprint" : 0,
		"enablehscroll" : 1,
		"enablevscroll" : 1,
		"devicewidth" : 0.0,
		"boxes" : [ 			{
				"box" : 				{
					"maxclass" : "comment",
					"text" : "sustain pedal holds pattern",
					"linecount" : 2,
					"fontsize" : 9.0,
					"numinlets" : 1,
					"patching_rect" : [ 104.0, 253.0, 84.0, 27.0 ],
					"id" : "obj-1",
					"fontname" : "Arial",
					"numoutlets" : 0
				}

			}
, 			{
				"box" : 				{
					"maxclass" : "toggle",
					"outlettype" : [ "int" ],
					"numinlets" : 1,
					"patching_rect" : [ 82.0, 253.0, 15.0, 15.0 ],
					"id" : "obj-2",
					"numoutlets" : 1
				}

			}
, 			{
				"box" : 				{
					"maxclass" : "toggle",
					"outlettype" : [ "int" ],
					"numinlets" : 1,
					"patching_rect" : [ 82.0, 225.0, 15.0, 15.0 ],
					"id" : "obj-3",
					"numoutlets" : 1
				}

			}
, 			{
				"box" : 				{
					"maxclass" : "comment",
					"text" : "sustain pedals holds notes",
					"linecount" : 2,
					"fontsize" : 9.0,
					"numinlets" : 1,
					"patching_rect" : [ 104.0, 225.0, 84.0, 27.0 ],
					"id" : "obj-4",
					"fontname" : "Arial",
					"numoutlets" : 0
				}

			}
, 			{
				"box" : 				{
					"maxclass" : "panel",
					"rounded" : 0,
					"border" : 1,
					"bgcolor" : [ 0.784314, 0.760784, 0.792157, 1.0 ],
					"numinlets" : 1,
					"patching_rect" : [ 77.0, 216.0, 118.0, 68.0 ],
					"id" : "obj-5",
					"numoutlets" : 0
				}

			}
, 			{
				"box" : 				{
					"maxclass" : "umenu",
					"outlettype" : [ "int", "", "" ],
					"types" : [  ],
					"fontsize" : 9.0,
					"items" : [ "IAC Driver Bus 1", ",", "Faderport", ",", "to MaxMSP 1", ",", "to MaxMSP 2" ],
					"numinlets" : 1,
					"patching_rect" : [ 78.0, 185.0, 100.0, 17.0 ],
					"id" : "obj-6",
					"fontname" : "Arial",
					"numoutlets" : 3
				}

			}
, 			{
				"box" : 				{
					"maxclass" : "newobj",
					"text" : "r gome_midi_refresh",
					"outlettype" : [ "" ],
					"hidden" : 1,
					"fontsize" : 9.0,
					"numinlets" : 0,
					"patching_rect" : [ 56.0, 15.0, 106.0, 17.0 ],
					"id" : "obj-7",
					"fontname" : "Arial",
					"numoutlets" : 1
				}

			}
, 			{
				"box" : 				{
					"maxclass" : "newobj",
					"text" : "r mac",
					"outlettype" : [ "" ],
					"hidden" : 1,
					"fontsize" : 9.0,
					"numinlets" : 0,
					"patching_rect" : [ 119.0, 416.0, 36.0, 17.0 ],
					"id" : "obj-8",
					"fontname" : "Arial",
					"numoutlets" : 1
				}

			}
, 			{
				"box" : 				{
					"maxclass" : "newobj",
					"text" : "r map",
					"outlettype" : [ "" ],
					"hidden" : 1,
					"fontsize" : 9.0,
					"numinlets" : 0,
					"patching_rect" : [ 71.0, 416.0, 36.0, 17.0 ],
					"id" : "obj-9",
					"fontname" : "Arial",
					"numoutlets" : 1
				}

			}
, 			{
				"box" : 				{
					"maxclass" : "newobj",
					"text" : "s holdsource",
					"hidden" : 1,
					"fontsize" : 9.0,
					"numinlets" : 1,
					"patching_rect" : [ 139.0, 442.0, 66.0, 17.0 ],
					"id" : "obj-10",
					"fontname" : "Arial",
					"numoutlets" : 0
				}

			}
, 			{
				"box" : 				{
					"maxclass" : "newobj",
					"text" : "gate",
					"outlettype" : [ "" ],
					"hidden" : 1,
					"fontsize" : 9.0,
					"numinlets" : 2,
					"patching_rect" : [ 125.0, 391.0, 29.0, 17.0 ],
					"id" : "obj-11",
					"fontname" : "Arial",
					"numoutlets" : 1
				}

			}
, 			{
				"box" : 				{
					"maxclass" : "newobj",
					"text" : "gate",
					"outlettype" : [ "" ],
					"hidden" : 1,
					"fontsize" : 9.0,
					"numinlets" : 2,
					"patching_rect" : [ 93.0, 391.0, 29.0, 17.0 ],
					"id" : "obj-12",
					"fontname" : "Arial",
					"numoutlets" : 1
				}

			}
, 			{
				"box" : 				{
					"maxclass" : "newobj",
					"text" : "loadbang",
					"outlettype" : [ "bang" ],
					"hidden" : 1,
					"fontsize" : 9.0,
					"numinlets" : 1,
					"patching_rect" : [ 85.0, 36.0, 52.0, 17.0 ],
					"id" : "obj-13",
					"fontname" : "Arial",
					"numoutlets" : 1
				}

			}
, 			{
				"box" : 				{
					"maxclass" : "message",
					"text" : "-1",
					"outlettype" : [ "" ],
					"hidden" : 1,
					"fontsize" : 9.0,
					"numinlets" : 2,
					"patching_rect" : [ 85.0, 60.0, 19.0, 15.0 ],
					"id" : "obj-14",
					"fontname" : "Arial",
					"numoutlets" : 1
				}

			}
, 			{
				"box" : 				{
					"maxclass" : "newobj",
					"text" : "midiinfo",
					"outlettype" : [ "" ],
					"hidden" : 1,
					"fontsize" : 9.0,
					"numinlets" : 2,
					"patching_rect" : [ 49.0, 83.0, 46.0, 17.0 ],
					"id" : "obj-15",
					"fontname" : "Arial",
					"numoutlets" : 1
				}

			}
, 			{
				"box" : 				{
					"maxclass" : "newobj",
					"text" : "ctlout 64",
					"hidden" : 1,
					"fontsize" : 9.0,
					"numinlets" : 3,
					"patching_rect" : [ 74.0, 441.0, 51.0, 17.0 ],
					"id" : "obj-16",
					"fontname" : "Arial",
					"numoutlets" : 0
				}

			}
, 			{
				"box" : 				{
					"maxclass" : "newobj",
					"text" : "ctlin 64",
					"outlettype" : [ "int", "int" ],
					"hidden" : 1,
					"fontsize" : 9.0,
					"numinlets" : 1,
					"patching_rect" : [ 124.0, 354.0, 45.0, 17.0 ],
					"id" : "obj-17",
					"fontname" : "Arial",
					"numoutlets" : 2
				}

			}
, 			{
				"box" : 				{
					"maxclass" : "comment",
					"text" : "MIDI input device",
					"fontsize" : 9.0,
					"background" : 1,
					"numinlets" : 1,
					"patching_rect" : [ 78.0, 171.0, 136.0, 17.0 ],
					"id" : "obj-18",
					"fontname" : "Arial",
					"numoutlets" : 0
				}

			}
, 			{
				"box" : 				{
					"maxclass" : "comment",
					"text" : "sustain pedal options",
					"frgb" : [ 1.0, 1.0, 1.0, 1.0 ],
					"fontsize" : 9.0,
					"textcolor" : [ 1.0, 1.0, 1.0, 1.0 ],
					"background" : 1,
					"numinlets" : 1,
					"patching_rect" : [ 77.0, 149.0, 113.0, 17.0 ],
					"id" : "obj-19",
					"fontname" : "Arial",
					"numoutlets" : 0
				}

			}
, 			{
				"box" : 				{
					"maxclass" : "panel",
					"rounded" : 0,
					"bgcolor" : [ 0.290196, 0.082353, 0.309804, 1.0 ],
					"background" : 1,
					"numinlets" : 1,
					"patching_rect" : [ 46.0, 129.0, 342.0, 36.0 ],
					"id" : "obj-20",
					"numoutlets" : 0
				}

			}
, 			{
				"box" : 				{
					"maxclass" : "panel",
					"rounded" : 0,
					"border" : 1,
					"bgcolor" : [ 0.905882, 0.905882, 0.905882, 1.0 ],
					"background" : 1,
					"numinlets" : 1,
					"patching_rect" : [ 44.0, 150.0, 374.0, 253.0 ],
					"id" : "obj-21",
					"numoutlets" : 0
				}

			}
 ],
		"lines" : [ 			{
				"patchline" : 				{
					"source" : [ "obj-17", 0 ],
					"destination" : [ "obj-11", 1 ],
					"hidden" : 1,
					"midpoints" : [  ]
				}

			}
, 			{
				"patchline" : 				{
					"source" : [ "obj-11", 0 ],
					"destination" : [ "obj-10", 0 ],
					"hidden" : 1,
					"midpoints" : [  ]
				}

			}
, 			{
				"patchline" : 				{
					"source" : [ "obj-2", 0 ],
					"destination" : [ "obj-11", 0 ],
					"hidden" : 1,
					"midpoints" : [  ]
				}

			}
, 			{
				"patchline" : 				{
					"source" : [ "obj-6", 1 ],
					"destination" : [ "obj-17", 0 ],
					"hidden" : 1,
					"midpoints" : [  ]
				}

			}
, 			{
				"patchline" : 				{
					"source" : [ "obj-8", 0 ],
					"destination" : [ "obj-16", 2 ],
					"hidden" : 1,
					"midpoints" : [  ]
				}

			}
, 			{
				"patchline" : 				{
					"source" : [ "obj-17", 0 ],
					"destination" : [ "obj-12", 1 ],
					"hidden" : 1,
					"midpoints" : [  ]
				}

			}
, 			{
				"patchline" : 				{
					"source" : [ "obj-3", 0 ],
					"destination" : [ "obj-12", 0 ],
					"hidden" : 1,
					"midpoints" : [  ]
				}

			}
, 			{
				"patchline" : 				{
					"source" : [ "obj-14", 0 ],
					"destination" : [ "obj-15", 1 ],
					"hidden" : 1,
					"midpoints" : [  ]
				}

			}
, 			{
				"patchline" : 				{
					"source" : [ "obj-7", 0 ],
					"destination" : [ "obj-14", 0 ],
					"hidden" : 1,
					"midpoints" : [  ]
				}

			}
, 			{
				"patchline" : 				{
					"source" : [ "obj-13", 0 ],
					"destination" : [ "obj-14", 0 ],
					"hidden" : 1,
					"midpoints" : [  ]
				}

			}
, 			{
				"patchline" : 				{
					"source" : [ "obj-15", 0 ],
					"destination" : [ "obj-6", 0 ],
					"hidden" : 1,
					"midpoints" : [  ]
				}

			}
, 			{
				"patchline" : 				{
					"source" : [ "obj-12", 0 ],
					"destination" : [ "obj-16", 0 ],
					"hidden" : 1,
					"midpoints" : [  ]
				}

			}
, 			{
				"patchline" : 				{
					"source" : [ "obj-9", 0 ],
					"destination" : [ "obj-16", 0 ],
					"hidden" : 1,
					"midpoints" : [  ]
				}

			}
 ]
	}

}
