{
	"patcher" : 	{
		"fileversion" : 1,
		"appversion" : 		{
			"major" : 6,
			"minor" : 1,
			"revision" : 6,
			"architecture" : "x86"
		}
,
		"rect" : [ 378.0, 240.0, 842.0, 698.0 ],
		"bgcolor" : [ 1.0, 1.0, 1.0, 0.0 ],
		"bglocked" : 0,
		"openinpresentation" : 0,
		"default_fontsize" : 12.0,
		"default_fontface" : 0,
		"default_fontname" : "Arial",
		"gridonopen" : 0,
		"gridsize" : [ 15.0, 15.0 ],
		"gridsnaponopen" : 0,
		"statusbarvisible" : 2,
		"toolbarvisible" : 1,
		"boxanimatetime" : 200,
		"imprint" : 0,
		"enablehscroll" : 1,
		"enablevscroll" : 1,
		"devicewidth" : 0.0,
		"description" : "",
		"digest" : "",
		"tags" : "",
		"boxes" : [ 			{
				"box" : 				{
					"fontname" : "Arial",
					"fontsize" : 12.0,
					"id" : "obj-29",
					"maxclass" : "newobj",
					"numinlets" : 1,
					"numoutlets" : 1,
					"outlettype" : [ "" ],
					"patching_rect" : [ 487.0, 67.0, 96.0, 20.0 ],
					"text" : "prepend symbol"
				}

			}
, 			{
				"box" : 				{
					"color" : [ 0.5, 0.0, 0.5, 1.0 ],
					"fontname" : "Arial",
					"fontsize" : 12.0,
					"id" : "obj-81",
					"maxclass" : "newobj",
					"numinlets" : 0,
					"numoutlets" : 1,
					"outlettype" : [ "" ],
					"patching_rect" : [ 487.0, 42.0, 84.0, 20.0 ],
					"text" : "r [batch]mode"
				}

			}
, 			{
				"box" : 				{
					"fontname" : "Arial",
					"fontsize" : 9.0,
					"hidden" : 1,
					"id" : "obj-2",
					"maxclass" : "newobj",
					"numinlets" : 0,
					"numoutlets" : 1,
					"outlettype" : [ "" ],
					"patching_rect" : [ 248.0, 28.0, 90.0, 17.0 ],
					"text" : "r gome_key_shift"
				}

			}
, 			{
				"box" : 				{
					"bgcolor" : [ 0.905882, 0.905882, 0.905882, 1.0 ],
					"bgcolor2" : [ 0.917647, 0.917647, 0.917647, 1.0 ],
					"discolor" : [ 0.439216, 0.439216, 0.439216, 1.0 ],
					"fontname" : "Arial",
					"fontsize" : 9.0,
					"framecolor" : [ 0.015686, 0.015686, 0.015686, 1.0 ],
					"hltcolor" : [ 0.905882, 0.905882, 0.905882, 1.0 ],
					"id" : "obj-3",
					"items" : [ "ionian", ",", "dorian", ",", "phrygian", ",", "lydian", ",", "mixolydian", ",", "aeolian", ",", "locrian" ],
					"maxclass" : "umenu",
					"numinlets" : 1,
					"numoutlets" : 3,
					"outlettype" : [ "int", "", "" ],
					"parameter_enable" : 0,
					"patching_rect" : [ 258.0, 133.0, 70.0, 17.0 ],
					"textcolor" : [ 0.121569, 0.121569, 0.121569, 1.0 ],
					"textcolor2" : [ 0.121569, 0.121569, 0.121569, 1.0 ],
					"togcolor" : [ 0.552941, 0.552941, 0.552941, 1.0 ]
				}

			}
, 			{
				"box" : 				{
					"bgcolor" : [ 0.905882, 0.905882, 0.905882, 1.0 ],
					"bgcolor2" : [ 0.917647, 0.917647, 0.917647, 1.0 ],
					"discolor" : [ 0.439216, 0.439216, 0.439216, 1.0 ],
					"fontname" : "Arial",
					"fontsize" : 9.0,
					"framecolor" : [ 0.015686, 0.015686, 0.015686, 1.0 ],
					"hltcolor" : [ 0.905882, 0.905882, 0.905882, 1.0 ],
					"id" : "obj-4",
					"items" : [ "off", ",", "chromatic", ",", "diatonic", ",", "arbitrary", "map" ],
					"maxclass" : "umenu",
					"numinlets" : 1,
					"numoutlets" : 3,
					"outlettype" : [ "int", "", "" ],
					"parameter_enable" : 0,
					"patching_rect" : [ 157.0, 133.0, 64.0, 17.0 ],
					"textcolor" : [ 0.121569, 0.121569, 0.121569, 1.0 ],
					"textcolor2" : [ 0.121569, 0.121569, 0.121569, 1.0 ],
					"togcolor" : [ 0.552941, 0.552941, 0.552941, 1.0 ]
				}

			}
, 			{
				"box" : 				{
					"bgcolor" : [ 0.905882, 0.905882, 0.905882, 1.0 ],
					"bgcolor2" : [ 0.917647, 0.917647, 0.917647, 1.0 ],
					"discolor" : [ 0.439216, 0.439216, 0.439216, 1.0 ],
					"fontname" : "Arial",
					"fontsize" : 9.0,
					"framecolor" : [ 0.015686, 0.015686, 0.015686, 1.0 ],
					"hltcolor" : [ 0.905882, 0.905882, 0.905882, 1.0 ],
					"id" : "obj-5",
					"items" : [ "off", ",", "chromatic", ",", "M2", ",", "m3", ",", "M3", ",", "P4", ",", "tritone", ",", "P5", ",", "m6", ",", "M6", ",", "m7", ",", "M7", ",", "circle", "of", "5ths" ],
					"maxclass" : "umenu",
					"numinlets" : 1,
					"numoutlets" : 3,
					"outlettype" : [ "int", "", "" ],
					"parameter_enable" : 0,
					"patching_rect" : [ 86.0, 133.0, 70.0, 17.0 ],
					"textcolor" : [ 0.121569, 0.121569, 0.121569, 1.0 ],
					"textcolor2" : [ 0.121569, 0.121569, 0.121569, 1.0 ],
					"togcolor" : [ 0.552941, 0.552941, 0.552941, 1.0 ]
				}

			}
, 			{
				"box" : 				{
					"bgcolor" : [ 0.905882, 0.905882, 0.905882, 1.0 ],
					"bgcolor2" : [ 0.917647, 0.917647, 0.917647, 1.0 ],
					"discolor" : [ 0.439216, 0.439216, 0.439216, 1.0 ],
					"fontname" : "Arial",
					"fontsize" : 9.0,
					"framecolor" : [ 0.015686, 0.015686, 0.015686, 1.0 ],
					"hltcolor" : [ 0.905882, 0.905882, 0.905882, 1.0 ],
					"id" : "obj-6",
					"items" : [ "off", ",", "chromatic", ",", "M2", ",", "m3", ",", "M3", ",", "P4", ",", "tritone", ",", "P5", ",", "m6", ",", "M6", ",", "m7", ",", "M7", ",", "circle", "of", "5ths" ],
					"maxclass" : "umenu",
					"numinlets" : 1,
					"numoutlets" : 3,
					"outlettype" : [ "int", "", "" ],
					"parameter_enable" : 0,
					"patching_rect" : [ 14.0, 133.0, 70.0, 17.0 ],
					"textcolor" : [ 0.121569, 0.121569, 0.121569, 1.0 ],
					"textcolor2" : [ 0.121569, 0.121569, 0.121569, 1.0 ],
					"togcolor" : [ 0.552941, 0.552941, 0.552941, 1.0 ]
				}

			}
, 			{
				"box" : 				{
					"fontname" : "Arial",
					"fontsize" : 9.0,
					"hidden" : 1,
					"id" : "obj-7",
					"maxclass" : "newobj",
					"numinlets" : 2,
					"numoutlets" : 1,
					"outlettype" : [ "bang" ],
					"patching_rect" : [ 157.0, 67.0, 43.0, 17.0 ],
					"text" : "delay 2"
				}

			}
, 			{
				"box" : 				{
					"fontname" : "Arial",
					"fontsize" : 9.0,
					"hidden" : 1,
					"id" : "obj-8",
					"maxclass" : "newobj",
					"numinlets" : 1,
					"numoutlets" : 1,
					"outlettype" : [ "bang" ],
					"patching_rect" : [ 159.0, 45.0, 48.0, 17.0 ],
					"text" : "loadbang"
				}

			}
, 			{
				"box" : 				{
					"fontname" : "Arial",
					"fontsize" : 9.0,
					"hidden" : 1,
					"id" : "obj-10",
					"maxclass" : "message",
					"numinlets" : 2,
					"numoutlets" : 1,
					"outlettype" : [ "" ],
					"patching_rect" : [ 221.0, 90.0, 20.0, 15.0 ],
					"text" : "36"
				}

			}
, 			{
				"box" : 				{
					"fontname" : "Arial",
					"fontsize" : 9.0,
					"hidden" : 1,
					"id" : "obj-11",
					"maxclass" : "message",
					"numinlets" : 2,
					"numoutlets" : 1,
					"outlettype" : [ "" ],
					"patching_rect" : [ 106.0, 90.0, 16.0, 15.0 ],
					"text" : "2"
				}

			}
, 			{
				"box" : 				{
					"fontname" : "Arial",
					"fontsize" : 9.0,
					"hidden" : 1,
					"id" : "obj-12",
					"maxclass" : "message",
					"numinlets" : 2,
					"numoutlets" : 1,
					"outlettype" : [ "" ],
					"patching_rect" : [ 14.0, 90.0, 32.5, 15.0 ],
					"text" : "2"
				}

			}
, 			{
				"box" : 				{
					"fontname" : "Arial",
					"fontsize" : 9.0,
					"hidden" : 1,
					"id" : "obj-13",
					"maxclass" : "newobj",
					"numinlets" : 0,
					"numoutlets" : 1,
					"outlettype" : [ "" ],
					"patching_rect" : [ 159.0, 21.0, 62.0, 17.0 ],
					"text" : "r gome_init"
				}

			}
, 			{
				"box" : 				{
					"fontname" : "Arial",
					"fontsize" : 9.0,
					"hidden" : 1,
					"id" : "obj-14",
					"maxclass" : "newobj",
					"numinlets" : 1,
					"numoutlets" : 0,
					"patching_rect" : [ 147.0, 221.0, 55.0, 17.0 ],
					"text" : "s g_pit_m"
				}

			}
, 			{
				"box" : 				{
					"fontname" : "Arial",
					"fontsize" : 9.0,
					"frgb" : 0.0,
					"id" : "obj-15",
					"maxclass" : "comment",
					"numinlets" : 1,
					"numoutlets" : 0,
					"patching_rect" : [ 157.0, 120.0, 64.0, 17.0 ],
					"text" : "pitch mode"
				}

			}
, 			{
				"box" : 				{
					"fontname" : "Arial",
					"fontsize" : 9.0,
					"frgb" : 0.0,
					"id" : "obj-16",
					"maxclass" : "comment",
					"numinlets" : 1,
					"numoutlets" : 0,
					"patching_rect" : [ 86.0, 120.0, 28.0, 17.0 ],
					"text" : "col"
				}

			}
, 			{
				"box" : 				{
					"fontname" : "Arial",
					"fontsize" : 9.0,
					"frgb" : 0.0,
					"id" : "obj-17",
					"maxclass" : "comment",
					"numinlets" : 1,
					"numoutlets" : 0,
					"patching_rect" : [ 12.0, 120.0, 28.0, 17.0 ],
					"text" : "row"
				}

			}
, 			{
				"box" : 				{
					"fontname" : "Arial",
					"fontsize" : 9.0,
					"hidden" : 1,
					"id" : "obj-18",
					"maxclass" : "newobj",
					"numinlets" : 1,
					"numoutlets" : 0,
					"patching_rect" : [ 260.0, 221.0, 70.0, 17.0 ],
					"text" : "s gome_mode"
				}

			}
, 			{
				"box" : 				{
					"fontname" : "Arial",
					"fontsize" : 9.0,
					"hidden" : 1,
					"id" : "obj-19",
					"maxclass" : "newobj",
					"numinlets" : 1,
					"numoutlets" : 0,
					"patching_rect" : [ 199.5, 221.0, 63.0, 17.0 ],
					"text" : "s gome_key"
				}

			}
, 			{
				"box" : 				{
					"bgcolor" : [ 0.866667, 0.866667, 0.866667, 1.0 ],
					"fontname" : "Arial",
					"fontsize" : 9.0,
					"format" : 4,
					"htextcolor" : [ 0.870588, 0.870588, 0.870588, 1.0 ],
					"id" : "obj-20",
					"maxclass" : "number",
					"maximum" : 127,
					"minimum" : 0,
					"numinlets" : 1,
					"numoutlets" : 2,
					"outlettype" : [ "int", "bang" ],
					"parameter_enable" : 0,
					"patching_rect" : [ 222.0, 133.0, 35.0, 17.0 ],
					"triscale" : 0.9
				}

			}
, 			{
				"box" : 				{
					"fontname" : "Arial",
					"fontsize" : 9.0,
					"hidden" : 1,
					"id" : "obj-21",
					"maxclass" : "newobj",
					"numinlets" : 1,
					"numoutlets" : 0,
					"patching_rect" : [ 82.0, 221.0, 53.0, 17.0 ],
					"text" : "s g_col_p"
				}

			}
, 			{
				"box" : 				{
					"fontname" : "Arial",
					"fontsize" : 9.0,
					"hidden" : 1,
					"id" : "obj-22",
					"maxclass" : "newobj",
					"numinlets" : 1,
					"numoutlets" : 0,
					"patching_rect" : [ 19.0, 221.0, 58.0, 17.0 ],
					"text" : "s g_row_p"
				}

			}
, 			{
				"box" : 				{
					"fontname" : "Arial",
					"fontsize" : 9.0,
					"frgb" : 0.0,
					"id" : "obj-23",
					"maxclass" : "comment",
					"numinlets" : 1,
					"numoutlets" : 0,
					"patching_rect" : [ 222.0, 120.0, 78.0, 17.0 ],
					"text" : "diatonic filter"
				}

			}
 ],
		"lines" : [ 			{
				"patchline" : 				{
					"destination" : [ "obj-20", 0 ],
					"disabled" : 0,
					"hidden" : 1,
					"source" : [ "obj-10", 0 ]
				}

			}
, 			{
				"patchline" : 				{
					"destination" : [ "obj-4", 0 ],
					"disabled" : 0,
					"hidden" : 1,
					"source" : [ "obj-11", 0 ]
				}

			}
, 			{
				"patchline" : 				{
					"destination" : [ "obj-5", 0 ],
					"disabled" : 0,
					"hidden" : 1,
					"source" : [ "obj-11", 0 ]
				}

			}
, 			{
				"patchline" : 				{
					"destination" : [ "obj-6", 0 ],
					"disabled" : 0,
					"hidden" : 1,
					"source" : [ "obj-12", 0 ]
				}

			}
, 			{
				"patchline" : 				{
					"destination" : [ "obj-8", 0 ],
					"disabled" : 0,
					"hidden" : 1,
					"source" : [ "obj-13", 0 ]
				}

			}
, 			{
				"patchline" : 				{
					"destination" : [ "obj-20", 0 ],
					"disabled" : 0,
					"hidden" : 1,
					"source" : [ "obj-2", 0 ]
				}

			}
, 			{
				"patchline" : 				{
					"destination" : [ "obj-19", 0 ],
					"disabled" : 0,
					"hidden" : 1,
					"source" : [ "obj-20", 0 ]
				}

			}
, 			{
				"patchline" : 				{
					"destination" : [ "obj-3", 0 ],
					"disabled" : 0,
					"hidden" : 0,
					"source" : [ "obj-29", 0 ]
				}

			}
, 			{
				"patchline" : 				{
					"destination" : [ "obj-18", 0 ],
					"disabled" : 0,
					"hidden" : 1,
					"source" : [ "obj-3", 0 ]
				}

			}
, 			{
				"patchline" : 				{
					"destination" : [ "obj-14", 0 ],
					"disabled" : 0,
					"hidden" : 1,
					"source" : [ "obj-4", 0 ]
				}

			}
, 			{
				"patchline" : 				{
					"destination" : [ "obj-21", 0 ],
					"disabled" : 0,
					"hidden" : 1,
					"source" : [ "obj-5", 0 ]
				}

			}
, 			{
				"patchline" : 				{
					"destination" : [ "obj-22", 0 ],
					"disabled" : 0,
					"hidden" : 1,
					"source" : [ "obj-6", 0 ]
				}

			}
, 			{
				"patchline" : 				{
					"destination" : [ "obj-10", 0 ],
					"disabled" : 0,
					"hidden" : 1,
					"source" : [ "obj-7", 0 ]
				}

			}
, 			{
				"patchline" : 				{
					"destination" : [ "obj-11", 0 ],
					"disabled" : 0,
					"hidden" : 1,
					"source" : [ "obj-7", 0 ]
				}

			}
, 			{
				"patchline" : 				{
					"destination" : [ "obj-12", 0 ],
					"disabled" : 0,
					"hidden" : 1,
					"source" : [ "obj-7", 0 ]
				}

			}
, 			{
				"patchline" : 				{
					"destination" : [ "obj-7", 0 ],
					"disabled" : 0,
					"hidden" : 1,
					"source" : [ "obj-8", 0 ]
				}

			}
, 			{
				"patchline" : 				{
					"destination" : [ "obj-29", 0 ],
					"disabled" : 0,
					"hidden" : 0,
					"source" : [ "obj-81", 0 ]
				}

			}
 ]
	}

}
